<svg width="61" height="50" viewBox="0 0 61 50" fill="none" xmlns="http://www.w3.org/2000/svg">
<path d="M49.7727 31.9716C49.6432 32.0082 48.4857 33.1892 47.9232 33.7752L47.4358 34.5243C48.1446 34.3533 49.6589 33.9199 50.0449 33.5546C50.431 33.1893 50.8334 32.1186 50.9863 31.6289L49.7727 31.9716Z" fill="url(#paint0_linear_1464_4034)"/>
<path d="M53.9455 12.0977C54.2031 11.4425 54.008 10.5657 53.8957 9.54916C53.7634 9.49332 52.8813 10.185 52.5856 13.6756L52.6399 14.7961C52.5377 15.4655 52.8978 14.7814 53.2573 14.3013C53.7155 13.0362 53.6235 12.9166 53.9455 12.0977Z" fill="url(#paint1_linear_1464_4034)"/>
<path d="M51.2901 9.29347C51.1213 9.10817 50.4039 8.32064 49.1008 7.72763L49.1008 7.72765C49.1617 7.94342 49.3369 8.56374 50.3145 9.86018C50.495 9.98392 51.433 10.418 51.9717 10.4697C52.0514 10.587 51.9938 10.3761 51.9993 10.258C51.8498 9.65962 51.459 9.47877 51.2901 9.29347Z" fill="url(#paint2_linear_1464_4034)"/>
<path fill-rule="evenodd" clip-rule="evenodd" d="M52.7178 22.1642C53.5814 15.9601 52.2999 9.97401 50.9653 6.28693L50.8305 6.32501C52.1449 9.95639 53.1255 15.983 52.2737 22.1024C51.4228 28.2156 48.5853 34.4542 41.952 38.6446L42.1915 39.0236C48.9622 34.7465 51.8534 28.3744 52.7178 22.1642Z" fill="url(#paint3_linear_1464_4034)"/>
<path d="M51.8688 7.73248L53.335 5.39648L53.4949 5.96286C53.7332 7.32249 53.0383 7.95552 52.8235 8.94804C52.6517 9.74205 52.1678 10.201 51.9919 10.2312L51.7987 9.23744L51.8688 7.73248Z" fill="url(#paint4_linear_1464_4034)"/>
<path fill-rule="evenodd" clip-rule="evenodd" d="M53.3089 5.438C53.0029 6.61584 52.619 8.02571 52.3903 8.34115C52.182 8.62843 52.0486 9.41319 51.9724 10.1308L51.9919 10.2312C52.1678 10.201 52.6517 9.74205 52.8235 8.94804C52.896 8.61304 53.0232 8.31899 53.1508 8.02414C53.4011 7.44542 53.6528 6.86358 53.4949 5.96286L53.335 5.39648L53.3089 5.438Z" fill="url(#paint5_linear_1464_4034)"/>
<path d="M50.0645 23.4137C50.0224 23.0995 50.1995 21.2789 50.2933 20.4079L50.516 20.578C51.4917 22.4865 51.1919 23.5904 51.1929 24.522C51.1938 25.4536 51.8624 27.0994 51.3443 26.6051C50.8261 26.1108 50.1172 23.8065 50.0645 23.4137Z" fill="url(#paint6_linear_1464_4034)"/>
<path fill-rule="evenodd" clip-rule="evenodd" d="M50.2801 20.5311C50.484 21.557 50.7445 23.0638 50.7519 23.8897C50.7588 24.6623 51.0347 25.7847 51.308 26.5679C51.3202 26.5812 51.3323 26.5937 51.3443 26.6051C51.6451 26.8921 51.5459 26.4578 51.4097 25.8608C51.3112 25.4293 51.1933 24.9128 51.1929 24.522C51.1927 24.3537 51.2024 24.1797 51.2125 23.9963C51.2586 23.1651 51.3154 22.1416 50.516 20.578L50.2933 20.4079C50.289 20.4471 50.2847 20.4883 50.2801 20.5311Z" fill="url(#paint7_linear_1464_4034)"/>
<path d="M53.4388 17.8303C53.7667 17.3417 54.5848 16.5263 54.9529 16.1797C54.9891 16.9266 54.7111 17.1798 54.6118 18.1688C54.5324 18.9601 53.4066 19.9167 52.8537 20.2961C52.9121 19.6777 53.1108 18.319 53.4388 17.8303Z" fill="url(#paint8_linear_1464_4034)"/>
<path fill-rule="evenodd" clip-rule="evenodd" d="M53.4727 17.7814C53.4609 17.798 53.4497 17.8143 53.439 17.8303C53.111 18.319 52.9123 19.6777 52.8539 20.2961C53.0497 20.1617 53.3173 19.955 53.5849 19.7089C53.6706 19.0186 53.5814 18.2935 53.4727 17.7814Z" fill="url(#paint9_linear_1464_4034)"/>
<path d="M54.1993 12.1703C54.3635 11.8444 55.0554 11.2491 55.3809 10.9922C55.3119 11.7106 55.4643 12.6285 55.0836 13.7552C54.9262 14.2211 53.6011 15.5522 52.9051 16.1467L52.9374 15.6426C53.6412 14.6285 53.994 12.5778 54.1993 12.1703Z" fill="url(#paint10_linear_1464_4034)"/>
<path d="M51.2043 14.7624C50.6829 14.071 50.6739 12.8155 50.7346 12.2742C51.6355 13.505 52.1092 13.4294 52.5814 15.1016L52.6093 16.0256C52.3582 15.8926 51.7257 15.4539 51.2043 14.7624Z" fill="url(#paint11_linear_1464_4034)"/>
<path d="M52.207 25.2273C53.1345 24.0568 55.0052 23.6897 55.7994 23.7178C54.0337 25.8181 53.7049 25.0664 52.8987 25.6144C52.2537 26.0527 51.7895 26.1896 51.719 26.1804L52.207 25.2273Z" fill="url(#paint12_linear_1464_4034)"/>
<path d="M53.7743 22.6281C54.0182 22.4194 55.7683 21.405 56.6128 20.9238C55.6879 22.4954 54.9185 23.5863 54.2705 23.9731C53.7522 24.2826 52.485 25.4189 51.9162 25.9484C51.9346 25.8073 51.9978 25.4536 52.1034 25.1675C52.2354 24.8099 53.4693 22.8889 53.7743 22.6281Z" fill="url(#paint13_linear_1464_4034)"/>
<path d="M48.7413 26.8743C49.2401 27.8983 49.4169 29.5762 49.4429 30.2872L49.0076 31.6332C48.7365 30.9138 48.1986 29.3456 48.2156 28.8283C48.2326 28.3109 48.5732 27.3101 48.7413 26.8743Z" fill="url(#paint14_linear_1464_4034)"/>
<path d="M51.8885 27.4988C52.0494 27.2437 52.8222 26.8178 53.1885 26.6367C53.1536 27.1319 52.9361 28.3213 52.3455 29.1171C51.7548 29.9129 50.6233 30.409 50.1314 30.5576C50.0894 30.4433 50.0694 30.1733 50.3255 30.0078C50.6457 29.8009 51.6874 27.8177 51.8885 27.4988Z" fill="url(#paint15_linear_1464_4034)"/>
<path fill-rule="evenodd" clip-rule="evenodd" d="M50.2053 30.5361C51.3556 29.5318 52.545 27.7545 53.1857 26.6725C53.1866 26.6609 53.1875 26.6496 53.1882 26.6387C52.822 26.8198 52.0492 27.2457 51.8883 27.5008C51.838 27.5805 51.7352 27.7643 51.6042 27.9983C51.2114 28.7002 50.5654 29.8545 50.3253 30.0097C50.0692 30.1752 50.0891 30.4453 50.1311 30.5596C50.1544 30.5525 50.1792 30.5447 50.2053 30.5361Z" fill="url(#paint16_linear_1464_4034)"/>
<path d="M48.9229 35.3555C48.6954 35.2101 47.7025 34.9527 47.2345 34.8422L47.2545 34.6036C47.4574 34.5657 48.0172 34.4581 48.6335 34.3307C49.2498 34.2032 50.0099 34.8739 50.313 35.2251C49.9444 35.3292 49.1503 35.501 48.9229 35.3555Z" fill="url(#paint17_linear_1464_4034)"/>
<path d="M51.0391 3.25017C50.9294 2.8618 49.7343 1.92959 49.1505 1.51204L49.1566 3.2867C49.2327 3.5564 49.4855 4.22469 49.8873 4.74023C50.2891 5.25577 50.7928 6.12502 50.8983 6.4641L51.0601 6.41841C51.3329 5.32213 51.1762 3.73564 51.0391 3.25017Z" fill="url(#paint18_linear_1464_4034)"/>
<path fill-rule="evenodd" clip-rule="evenodd" d="M50.9218 6.34069C50.8804 5.42968 49.8568 2.96224 49.2094 1.55412C49.1891 1.53948 49.1695 1.52534 49.1505 1.51175L49.1565 3.2864C49.2327 3.55611 49.4855 4.2244 49.8873 4.73994C50.2891 5.25548 50.7735 6.15931 50.8789 6.49839L50.9218 6.34069Z" fill="url(#paint19_linear_1464_4034)"/>
<g filter="url(#filter0_d_1464_4034)">
<path d="M51.3977 8.06704C51.3395 7.94368 50.7861 6.7837 49.3292 6.00114C49.2896 6.34234 49.491 7.31247 49.7047 7.90442C49.9185 8.49638 51.2275 9.56142 51.9688 10.0898C51.729 9.20625 51.4558 8.19041 51.3977 8.06704Z" fill="url(#paint20_linear_1464_4034)"/>
<path fill-rule="evenodd" clip-rule="evenodd" d="M49.3246 6.07165C49.3253 6.04586 49.3268 6.02225 49.3292 6.00107C50.7861 6.78363 51.3396 7.9436 51.3977 8.06697C51.4511 8.18022 51.6858 9.04564 51.9094 9.87037C51.9294 9.94401 51.9493 10.0173 51.9689 10.0897C51.9128 10.0497 51.8533 10.0066 51.7914 9.96087C50.9666 8.87925 49.9123 7.11153 49.3246 6.07165Z" fill="url(#paint21_linear_1464_4034)"/>
</g>
<path fill-rule="evenodd" clip-rule="evenodd" d="M53.9001 9.59375C53.8279 9.73067 53.7526 9.89673 53.6942 10.0773C53.5387 10.558 52.6408 14.5972 52.6935 14.99C52.6969 15.0156 52.7016 15.0375 52.7073 15.0559C52.7787 14.9968 52.8888 14.8353 53.0137 14.6522C53.0912 14.5387 53.1743 14.4169 53.2573 14.3059C53.4966 13.6453 53.5858 13.2971 53.6623 12.9985C53.7323 12.7252 53.7916 12.4936 53.9455 12.1023C54.1452 11.425 54.0685 10.8621 53.972 10.1547C53.948 9.97805 53.9227 9.79242 53.9001 9.59375Z" fill="url(#paint22_linear_1464_4034)"/>
<path fill-rule="evenodd" clip-rule="evenodd" d="M52.9154 15.984C53.491 15.4489 54.0791 14.6387 54.476 13.4618C54.911 12.1719 55.1955 11.4644 55.3719 11.1027C55.3743 11.066 55.3772 11.0298 55.3806 10.9941C55.0552 11.2511 54.3632 11.8464 54.199 12.1723C54.1333 12.3026 54.0525 12.6012 53.95 12.9803C53.732 13.7859 53.4158 14.9549 52.9372 15.6445L52.9154 15.984Z" fill="url(#paint23_linear_1464_4034)"/>
<path fill-rule="evenodd" clip-rule="evenodd" d="M50.7411 12.2829C51.0344 12.6825 51.2823 12.9438 51.4996 13.1728C51.9468 13.6442 52.2646 13.9791 52.5816 15.1018L52.6095 16.0257C52.5979 16.0196 52.5856 16.0128 52.5724 16.0054C51.7579 14.9874 51.0464 13.2083 50.7411 12.2829Z" fill="url(#paint24_linear_1464_4034)"/>
<g filter="url(#filter1_d_1464_4034)">
<path d="M52.7872 16.9661C52.6692 16.9606 52.6848 16.9285 52.3563 16.8839C51.1621 16.7218 50.0814 15.2632 49.8201 14.193L50.9122 14.5544C52.5518 15.163 52.8507 16.3658 52.7872 16.9661Z" fill="url(#paint25_linear_1464_4034)"/>
<path fill-rule="evenodd" clip-rule="evenodd" d="M49.8321 14.2404C49.8279 14.2245 49.8239 14.2087 49.8201 14.193L50.9122 14.5544C52.5518 15.1631 52.8506 16.3658 52.7872 16.9661C52.7829 16.9659 52.7788 16.9657 52.7748 16.9654C52.2667 16.143 50.6904 14.8714 49.8321 14.2404Z" fill="url(#paint26_linear_1464_4034)"/>
</g>
<g filter="url(#filter2_d_1464_4034)">
<path d="M54.1683 18.5543C54.4244 18.3887 56.1075 17.6184 56.917 17.2539C55.9889 19.8456 54.5636 20.1607 54.1661 20.506C53.3446 21 52.717 21.4587 52.5307 21.521L52.6827 20.9248C53.0712 20.2036 53.9121 18.7198 54.1683 18.5543Z" fill="url(#paint27_linear_1464_4034)"/>
<path fill-rule="evenodd" clip-rule="evenodd" d="M56.9023 17.2949C56.1547 19.3522 55.0931 19.9561 54.5015 20.2927C54.3585 20.374 54.243 20.4398 54.166 20.5066C53.7914 20.7319 53.4572 20.9498 53.1867 21.1261C52.9124 21.305 52.7036 21.4411 52.5849 21.4987C53.1608 20.2906 55.518 18.3338 56.9023 17.2949Z" fill="url(#paint28_linear_1464_4034)"/>
</g>
<path fill-rule="evenodd" clip-rule="evenodd" d="M52.0257 25.4202C53.0553 24.3255 55.2457 22.2207 56.6052 20.9336C55.7578 21.4165 54.0176 22.4254 53.7744 22.6334C53.4695 22.8943 52.2356 24.8152 52.1036 25.1728C52.0743 25.2521 52.0483 25.3365 52.0257 25.4202Z" fill="url(#paint29_linear_1464_4034)"/>
<g filter="url(#filter3_d_1464_4034)">
<path d="M52.1323 24.549C52.4993 23.3737 52.2446 22.2653 52.0713 21.858L51.7845 22.4923C50.622 23.9854 51.1096 25.8085 51.4987 26.5334C51.557 26.3616 51.7653 25.7243 52.1323 24.549Z" fill="url(#paint30_linear_1464_4034)"/>
<path fill-rule="evenodd" clip-rule="evenodd" d="M52.0759 21.8693C52.1487 22.5854 52.003 23.7964 51.3126 25.77C51.3763 26.0534 51.4327 26.2969 51.4831 26.5041C51.4883 26.5141 51.4935 26.524 51.4986 26.5336C51.5569 26.3618 51.7652 25.7245 52.1322 24.5492C52.496 23.3844 52.249 22.2854 52.0759 21.8693Z" fill="url(#paint31_linear_1464_4034)"/>
</g>
<path fill-rule="evenodd" clip-rule="evenodd" d="M51.7523 26.1783C52.561 25.1917 54.6548 24.1898 55.7805 23.7402C54.5926 25.1477 54.0596 25.2558 53.5882 25.3514C53.3655 25.3966 53.1566 25.4389 52.8989 25.6141C52.319 26.0083 51.8852 26.1587 51.7523 26.1783Z" fill="url(#paint32_linear_1464_4034)"/>
<path d="M50.9489 6.33275C51.3856 7.43251 52.3952 10.671 52.757 14.1799C53.0166 16.6983 53.2053 17.6642 52.6978 22.1174C52.5778 23.1705 52.1159 25.8112 51.2285 27.9488C50.7879 29.3448 49.1738 32.8621 46.2422 35.7633C45.4017 36.6025 43.4146 38.4138 42.1904 38.9459" stroke="#FADA81" stroke-width="0.1121"/>
<g filter="url(#filter4_d_1464_4034)">
<path d="M50.5857 28.0426C50.5621 27.263 50.7347 26.7483 50.698 26.584C49.6782 27.7164 49.07 28.9657 48.9345 29.2078C48.8261 29.4014 49.0512 30.8929 49.1773 31.6145L50.5045 29.4051C50.6612 28.5163 50.6136 28.9666 50.5857 28.0426Z" fill="url(#paint33_linear_1464_4034)"/>
<path fill-rule="evenodd" clip-rule="evenodd" d="M50.5916 26.7042C50.6265 26.664 50.662 26.6239 50.698 26.584C50.7126 26.6492 50.6942 26.7697 50.6681 26.9399C50.6286 27.1987 50.5715 27.5725 50.5857 28.0426C50.5998 28.5093 50.6189 28.6254 50.6142 28.7405C50.6096 28.8534 50.5821 28.9652 50.5045 29.4051L49.2085 31.5625C49.1639 30.3592 50.0376 27.9952 50.5916 26.7042Z" fill="url(#paint34_linear_1464_4034)"/>
</g>
<g filter="url(#filter5_d_1464_4034)">
<path d="M52.3645 29.0858C52.9293 28.6934 53.9092 28.7467 54.3286 28.8224C54.3895 29.0382 53.3187 30.0589 52.7757 30.5422C52.6178 30.5674 52.1602 30.652 51.5932 30.7888C51.0261 30.9256 50.3411 30.6861 50.0695 30.5493C50.5992 30.225 51.7997 29.4783 52.3645 29.0858Z" fill="url(#paint35_linear_1464_4034)"/>
<path fill-rule="evenodd" clip-rule="evenodd" d="M50.263 30.6321C50.1863 30.6023 50.1207 30.573 50.0697 30.5473C50.5994 30.223 51.7999 29.4763 52.3647 29.0839C52.9295 28.6914 53.9094 28.7448 54.3288 28.8205C54.3305 28.8266 54.3313 28.8333 54.3313 28.8406C53.8087 29.3076 52.5911 30.0122 50.263 30.6321Z" fill="url(#paint36_linear_1464_4034)"/>
</g>
<g filter="url(#filter6_d_1464_4034)">
<path d="M48.475 33.357C49.0758 33.2572 50.5744 33.7446 51.2485 34.0008C49.8829 34.9397 49.8648 34.5662 48.9941 34.7829C48.2976 34.9563 47.789 34.434 47.6218 34.1512C47.6559 33.928 47.8742 33.4568 48.475 33.357Z" fill="url(#paint37_linear_1464_4034)"/>
<path fill-rule="evenodd" clip-rule="evenodd" d="M47.6353 34.0886C49.3442 33.7608 50.6021 33.8653 51.2377 34.0092C50.2965 34.6549 49.9995 34.6729 49.6146 34.6963C49.4455 34.7065 49.2595 34.7178 48.9944 34.7838C48.9357 34.7984 48.8783 34.8081 48.8223 34.8134C48.6986 34.805 48.5771 34.7961 48.4586 34.7867C48.0407 34.6843 47.7427 34.356 47.6221 34.1521C47.6251 34.1326 47.6294 34.1113 47.6353 34.0886Z" fill="url(#paint38_linear_1464_4034)"/>
</g>
<path d="M11.3035 31.579C11.433 31.6156 12.5905 32.7966 13.153 33.3826L13.6404 34.1317C12.9315 33.9607 11.4173 33.5273 11.0312 33.162C10.6452 32.7968 10.2428 31.726 10.0898 31.2363L11.3035 31.579Z" fill="url(#paint39_linear_1464_4034)"/>
<path d="M7.13042 11.7051C6.87279 11.0499 7.06794 10.1731 7.18025 9.15658C7.3125 9.10074 8.19467 9.79241 8.49034 13.283L8.43605 14.4035C8.53823 15.0729 8.1781 14.3888 7.81861 13.9087C7.36045 12.6436 7.45247 12.524 7.13042 11.7051Z" fill="url(#paint40_linear_1464_4034)"/>
<path d="M9.78578 8.90284C9.95458 8.71754 10.672 7.93002 11.9752 7.33701L11.9752 7.33702C11.9142 7.5528 11.7391 8.17312 10.7615 9.46956C10.5809 9.5933 9.64297 10.0273 9.1042 10.0791C9.02449 10.1963 9.0821 9.98546 9.0766 9.86742C9.22616 9.269 9.61697 9.08814 9.78578 8.90284Z" fill="url(#paint41_linear_1464_4034)"/>
<path fill-rule="evenodd" clip-rule="evenodd" d="M8.35811 21.7716C7.49453 15.5675 8.77606 9.58143 10.1106 5.89435L10.2455 5.93243C8.93107 9.56382 7.95044 15.5904 8.80222 21.7098C9.65315 27.823 12.4906 34.0616 19.1239 38.252L18.8845 38.6311C12.1137 34.3539 9.22254 27.9818 8.35811 21.7716Z" fill="url(#paint42_linear_1464_4034)"/>
<path d="M9.20717 7.34186L7.74097 5.00586L7.58104 5.57224C7.34273 6.93186 8.03761 7.56489 8.2524 8.55741C8.42424 9.35143 8.90814 9.81034 9.08403 9.84059L9.27727 8.84681L9.20717 7.34186Z" fill="url(#paint43_linear_1464_4034)"/>
<path fill-rule="evenodd" clip-rule="evenodd" d="M7.76703 5.04738C8.07304 6.22521 8.45697 7.63508 8.68566 7.95053C8.89393 8.2378 9.02729 9.02256 9.10355 9.74019L9.08403 9.84059C8.90814 9.81034 8.42424 9.35143 8.2524 8.55741C8.17991 8.22241 8.05271 7.92837 7.92517 7.63351C7.67484 7.05479 7.42317 6.47296 7.58104 5.57224L7.74097 5.00586L7.76703 5.04738Z" fill="url(#paint44_linear_1464_4034)"/>
<path d="M11.0114 23.0231C11.0535 22.7088 10.8765 20.8883 10.7827 20.0173L10.5599 20.1874C9.58419 22.0959 9.88402 23.1998 9.88305 24.1314C9.88208 25.063 9.2135 26.7088 9.73166 26.2145C10.2498 25.7201 10.9587 23.4159 11.0114 23.0231Z" fill="url(#paint45_linear_1464_4034)"/>
<path fill-rule="evenodd" clip-rule="evenodd" d="M10.7958 20.1404C10.5919 21.1664 10.3314 22.6732 10.3241 23.4991C10.3171 24.2717 10.0412 25.3941 9.76794 26.1773C9.75575 26.1906 9.74365 26.203 9.73166 26.2145C9.43087 26.5014 9.52999 26.0672 9.66627 25.4702C9.76475 25.0387 9.88264 24.5222 9.88305 24.1314C9.88322 23.963 9.87357 23.789 9.8634 23.6057C9.8173 22.7745 9.76054 21.751 10.5599 20.1874L10.7827 20.0173C10.7869 20.0565 10.7913 20.0976 10.7958 20.1404Z" fill="url(#paint46_linear_1464_4034)"/>
<path d="M7.63717 17.4397C7.30922 16.951 6.49111 16.1357 6.12305 15.7891C6.08686 16.536 6.36481 16.7892 6.46411 17.7782C6.54355 18.5694 7.66929 19.526 8.22223 19.9054C8.16386 19.2871 7.96512 17.9283 7.63717 17.4397Z" fill="url(#paint47_linear_1464_4034)"/>
<path fill-rule="evenodd" clip-rule="evenodd" d="M7.6035 17.3908C7.61522 17.4074 7.62646 17.4237 7.63717 17.4397C7.96512 17.9283 8.16386 19.2871 8.22223 19.9054C8.02644 19.7711 7.75883 19.5644 7.49128 19.3183C7.40558 18.628 7.4948 17.9029 7.6035 17.3908Z" fill="url(#paint48_linear_1464_4034)"/>
<path d="M6.87691 11.7797C6.71269 11.4538 6.02075 10.8585 5.69531 10.6016C5.76426 11.3199 5.61183 12.2379 5.99257 13.3646C6.14998 13.8304 7.47506 15.1616 8.1711 15.7561L8.13875 15.2519C7.435 14.2378 7.0822 12.1871 6.87691 11.7797Z" fill="url(#paint49_linear_1464_4034)"/>
<path d="M9.8719 14.3718C10.3933 13.6804 10.4022 12.4249 10.3415 11.8835C9.44071 13.1143 8.96698 13.0388 8.49482 14.711L8.46688 15.6349C8.71797 15.502 9.3505 15.0633 9.8719 14.3718Z" fill="url(#paint50_linear_1464_4034)"/>
<path d="M8.86898 24.8347C7.94147 23.6642 6.07075 23.2971 5.27654 23.3252C7.04227 25.4255 7.37101 24.6738 8.17726 25.2218C8.82226 25.6602 9.28642 25.7971 9.35697 25.7879L8.86898 24.8347Z" fill="url(#paint51_linear_1464_4034)"/>
<path d="M7.30166 22.2375C7.05773 22.0288 5.30767 21.0144 4.46313 20.5332C5.38804 22.1048 6.15747 23.1957 6.80539 23.5825C7.32372 23.8919 8.59091 25.0282 9.15971 25.5577C9.14131 25.4166 9.07811 25.0629 8.97252 24.7768C8.84053 24.4192 7.60658 22.4983 7.30166 22.2375Z" fill="url(#paint52_linear_1464_4034)"/>
<path d="M12.3349 26.4818C11.836 27.5057 11.6593 29.1836 11.6332 29.8946L12.0686 31.2406C12.3397 30.5212 12.8776 28.953 12.8606 28.4357C12.8436 27.9184 12.503 26.9175 12.3349 26.4818Z" fill="url(#paint53_linear_1464_4034)"/>
<path d="M9.18766 27.1082C9.02673 26.8531 8.25396 26.4272 7.8877 26.2461C7.92259 26.7413 8.14005 27.9306 8.73072 28.7264C9.32139 29.5222 10.4529 30.0184 10.9448 30.167C10.9868 30.0527 11.0067 29.7826 10.7506 29.6171C10.4305 29.4102 9.38882 27.4271 9.18766 27.1082Z" fill="url(#paint54_linear_1464_4034)"/>
<path fill-rule="evenodd" clip-rule="evenodd" d="M10.8704 30.1435C9.72006 29.1392 8.53064 27.362 7.89003 26.2799C7.88908 26.2683 7.88822 26.257 7.88745 26.2461C8.25372 26.4272 9.02648 26.8531 9.18741 27.1082C9.2377 27.1879 9.34052 27.3717 9.47147 27.6057C9.86431 28.3077 10.5103 29.462 10.7504 29.6171C11.0065 29.7826 10.9866 30.0527 10.9446 30.167C10.9212 30.16 10.8965 30.1521 10.8704 30.1435Z" fill="url(#paint55_linear_1464_4034)"/>
<path d="M12.1531 34.9649C12.3805 34.8195 13.3734 34.5621 13.8414 34.4515L13.8214 34.2129C13.6186 34.1751 13.0588 34.0675 12.4424 33.94C11.8261 33.8126 11.066 34.4832 10.763 34.8345C11.1316 34.9386 11.9256 35.1104 12.1531 34.9649Z" fill="url(#paint56_linear_1464_4034)"/>
<path d="M10.0366 2.85759C10.1463 2.46922 11.3414 1.53702 11.9252 1.11946L11.9191 2.89412C11.843 3.16382 11.5902 3.83211 11.1884 4.34765C10.7865 4.8632 10.2829 5.73244 10.1774 6.07152L10.0156 6.02583C9.74275 4.92955 9.89952 3.34306 10.0366 2.85759Z" fill="url(#paint57_linear_1464_4034)"/>
<path fill-rule="evenodd" clip-rule="evenodd" d="M10.1539 5.94811C10.1952 5.0371 11.2189 2.56966 11.8663 1.16154C11.8866 1.1469 11.9062 1.13276 11.9252 1.11917L11.9191 2.89383C11.843 3.16353 11.5902 3.83182 11.1884 4.34736C10.7865 4.8629 10.3022 5.76673 10.1968 6.10581L10.1539 5.94811Z" fill="url(#paint58_linear_1464_4034)"/>
<g filter="url(#filter7_d_1464_4034)">
<path d="M9.67827 7.67642C9.7364 7.55305 10.2899 6.39308 11.7468 5.61052C11.7863 5.95172 11.5849 6.92185 11.3712 7.5138C11.1575 8.10575 9.84842 9.17079 9.1071 9.69919C9.34689 8.81562 9.62014 7.79978 9.67827 7.67642Z" fill="url(#paint59_linear_1464_4034)"/>
<path fill-rule="evenodd" clip-rule="evenodd" d="M11.7514 5.68285C11.7507 5.65713 11.7492 5.63359 11.7468 5.61246C10.2899 6.39502 9.73639 7.555 9.67826 7.67836C9.6249 7.79162 9.39023 8.65704 9.16659 9.48177C9.14663 9.55541 9.12675 9.62872 9.10709 9.70114C9.16316 9.66118 9.22247 9.61815 9.28431 9.57249C10.1091 8.49085 11.1636 6.7228 11.7514 5.68285Z" fill="url(#paint60_linear_1464_4034)"/>
</g>
<path fill-rule="evenodd" clip-rule="evenodd" d="M7.17603 9.20117C7.2483 9.33809 7.32362 9.50416 7.38201 9.6847C7.53748 10.1654 8.43537 14.2047 8.38269 14.5975C8.37926 14.6231 8.3746 14.6449 8.36887 14.6633C8.2975 14.6042 8.18736 14.4428 8.06244 14.2596C7.98502 14.1461 7.90191 14.0243 7.81885 13.9134C7.5796 13.2527 7.49038 12.9045 7.41388 12.6059C7.34388 12.3326 7.28454 12.101 7.13066 11.7097C6.931 11.0325 7.00772 10.4695 7.10413 9.76209C7.1282 9.58547 7.15349 9.39984 7.17603 9.20117Z" fill="url(#paint61_linear_1464_4034)"/>
<path fill-rule="evenodd" clip-rule="evenodd" d="M8.16029 15.5915C7.58467 15.0563 6.99655 14.2461 6.59969 13.0692C6.16473 11.7793 5.88018 11.0718 5.7038 10.7101C5.70137 10.6734 5.69849 10.6373 5.69507 10.6016C6.02051 10.8585 6.71244 11.4538 6.87667 11.7797C6.94235 11.9101 7.02314 12.2087 7.12569 12.5877C7.34365 13.3933 7.65993 14.5623 8.1385 15.2519L8.16029 15.5915Z" fill="url(#paint62_linear_1464_4034)"/>
<path fill-rule="evenodd" clip-rule="evenodd" d="M10.3348 11.8923C10.0415 12.2919 9.79362 12.5532 9.57629 12.7822C9.12908 13.2536 8.81136 13.5884 8.49434 14.7111L8.4664 15.6351C8.47798 15.629 8.49037 15.6222 8.50353 15.6148C9.31799 14.5967 10.0295 12.8177 10.3348 11.8923Z" fill="url(#paint63_linear_1464_4034)"/>
<g filter="url(#filter8_d_1464_4034)">
<path d="M8.28897 16.5755C8.407 16.57 8.39139 16.5379 8.71986 16.4933C9.91411 16.3312 10.9948 14.8726 11.2561 13.8023L10.164 14.1637C8.52438 14.7724 8.22552 15.9752 8.28897 16.5755Z" fill="url(#paint64_linear_1464_4034)"/>
<path fill-rule="evenodd" clip-rule="evenodd" d="M11.2441 13.8497C11.2483 13.8339 11.2523 13.8181 11.2561 13.8024L10.164 14.1638C8.52439 14.7724 8.22554 15.9752 8.28898 16.5755C8.29327 16.5753 8.29738 16.5751 8.30134 16.5748C8.80944 15.7523 10.3858 14.4807 11.2441 13.8497Z" fill="url(#paint65_linear_1464_4034)"/>
</g>
<g filter="url(#filter9_d_1464_4034)">
<path d="M6.90792 18.1636C6.6518 17.9981 4.96871 17.2278 4.15918 16.8633C5.08724 19.455 6.51254 19.7701 6.91011 20.1153C7.73159 20.6094 8.3592 21.0681 8.54545 21.1304L8.39348 20.5342C8.00501 19.813 7.16404 18.3291 6.90792 18.1636Z" fill="url(#paint66_linear_1464_4034)"/>
<path fill-rule="evenodd" clip-rule="evenodd" d="M4.17358 16.9043C4.92118 18.9616 5.9828 19.5655 6.57439 19.902C6.71741 19.9834 6.83296 20.0491 6.90996 20.116C7.28448 20.3412 7.61871 20.5591 7.88918 20.7355C8.16357 20.9144 8.37236 21.0505 8.49104 21.1081C7.91515 19.9 5.55788 17.9432 4.17358 16.9043Z" fill="url(#paint67_linear_1464_4034)"/>
</g>
<path fill-rule="evenodd" clip-rule="evenodd" d="M9.05051 25.0276C8.02088 23.9329 5.83051 21.8282 4.47095 20.541C5.31839 21.0239 7.05853 22.0328 7.30173 22.2409C7.60665 22.5017 8.84059 24.4226 8.97258 24.7802C9.00183 24.8595 9.02782 24.9439 9.05051 25.0276Z" fill="url(#paint68_linear_1464_4034)"/>
<g filter="url(#filter10_d_1464_4034)">
<path d="M8.94362 24.1564C8.57659 22.9811 8.83133 21.8727 9.00458 21.4654L9.2914 22.0997C10.454 23.5928 9.96635 25.4159 9.57723 26.1408C9.51896 25.9691 9.31065 25.3317 8.94362 24.1564Z" fill="url(#paint69_linear_1464_4034)"/>
<path fill-rule="evenodd" clip-rule="evenodd" d="M8.99998 21.4767C8.9272 22.1928 9.07291 23.4038 9.76332 25.3774C9.69964 25.6608 9.64324 25.9044 9.59285 26.1116C9.58765 26.1216 9.58247 26.1314 9.5773 26.141C9.51903 25.9692 9.31073 25.3319 8.9437 24.1566C8.57996 22.9919 8.82689 21.8928 8.99998 21.4767Z" fill="url(#paint70_linear_1464_4034)"/>
</g>
<path fill-rule="evenodd" clip-rule="evenodd" d="M9.32384 25.7858C8.51515 24.7991 6.42137 23.7972 5.29565 23.3477C6.48361 24.7551 7.01659 24.8632 7.48801 24.9588C7.71065 25.004 7.91956 25.0464 8.17726 25.2215C8.75722 25.6157 9.19098 25.7661 9.32384 25.7858Z" fill="url(#paint71_linear_1464_4034)"/>
<path d="M10.1271 5.94018C9.69034 7.03993 8.68074 10.2785 8.31896 13.7873C8.05929 16.3057 7.87061 17.2717 8.37815 21.7248C8.49818 22.778 8.96007 25.4186 9.84746 27.5562C10.2881 28.9522 11.9021 32.4696 14.8337 35.3707C15.6742 36.2099 17.6613 38.0212 18.8855 38.5533" stroke="#FADA81" stroke-width="0.1121"/>
<g filter="url(#filter11_d_1464_4034)">
<path d="M10.4902 27.652C10.5138 26.8724 10.3412 26.3577 10.3779 26.1934C11.3977 27.3258 12.0059 28.575 12.1414 28.8171C12.2498 29.0108 12.0247 30.5023 11.8987 31.2238L10.5714 29.0145C10.4147 28.1257 10.4623 28.576 10.4902 27.652Z" fill="url(#paint72_linear_1464_4034)"/>
<path fill-rule="evenodd" clip-rule="evenodd" d="M10.4846 26.3136C10.4496 26.2734 10.4142 26.2333 10.3782 26.1934C10.3636 26.2586 10.382 26.379 10.408 26.5493C10.4476 26.808 10.5047 27.1818 10.4905 27.652C10.4764 28.1187 10.4572 28.2348 10.462 28.3499C10.4666 28.4627 10.4941 28.5746 10.5717 29.0145L11.8677 31.1718C11.9123 29.9685 11.0386 27.6046 10.4846 26.3136Z" fill="url(#paint73_linear_1464_4034)"/>
</g>
<g filter="url(#filter12_d_1464_4034)">
<path d="M8.7112 28.6913C8.14642 28.2988 7.16649 28.3522 6.74713 28.4279C6.6862 28.6437 7.75697 29.6643 8.29996 30.1477C8.45787 30.1729 8.91546 30.2574 9.48253 30.3943C10.0496 30.5311 10.7346 30.2916 11.0062 30.1547C10.4765 29.8304 9.27599 29.0837 8.7112 28.6913Z" fill="url(#paint74_linear_1464_4034)"/>
<path fill-rule="evenodd" clip-rule="evenodd" d="M10.8129 30.2395C10.8896 30.2097 10.9552 30.1804 11.0062 30.1547C10.4765 29.8304 9.27599 29.0837 8.71121 28.6912C8.14642 28.2988 7.16649 28.3521 6.74713 28.4278C6.74541 28.4339 6.74459 28.4407 6.74464 28.4481C7.26725 28.915 8.48477 29.6196 10.8129 30.2395Z" fill="url(#paint75_linear_1464_4034)"/>
</g>
<g filter="url(#filter13_d_1464_4034)">
<path d="M12.6012 32.9644C12.0003 32.8647 10.5018 33.352 9.82764 33.6082C11.1933 34.5471 11.2114 34.1736 12.082 34.3903C12.7786 34.5637 13.2871 34.0414 13.4544 33.7586C13.4203 33.5355 13.202 33.0642 12.6012 32.9644Z" fill="url(#paint76_linear_1464_4034)"/>
<path fill-rule="evenodd" clip-rule="evenodd" d="M13.4408 33.696C11.732 33.3682 10.474 33.4727 9.83847 33.6167C10.7796 34.2623 11.0767 34.2803 11.4616 34.3037C11.6307 34.3139 11.8167 34.3252 12.0817 34.3912C12.1405 34.4058 12.1979 34.4155 12.2539 34.4208C12.3776 34.4124 12.4991 34.4035 12.6176 34.3942C13.0355 34.2918 13.3335 33.9634 13.4541 33.7595C13.4511 33.7401 13.4467 33.7188 13.4408 33.696Z" fill="url(#paint77_linear_1464_4034)"/>
</g>
<path d="M26.7945 14.5124V40.0003H34.6893V3.92188H28.3686L27.973 4.90495C27.7037 5.57428 27.3684 6.10381 26.9824 6.51983C26.5618 6.97323 26.1167 7.31513 25.6487 7.56263C25.1558 7.81695 24.6895 7.96982 24.2466 8.0403L22.9246 8.2507V14.8827H24.4932C25.0651 14.8827 25.6459 14.8094 26.2315 14.6738L26.2457 14.6705L26.2598 14.667C26.4406 14.6216 26.6189 14.5701 26.7945 14.5124Z" fill="url(#paint78_linear_1464_4034)"/>
<g filter="url(#filter14_i_1464_4034)">
<path d="M30.5122 33.9877C30.6516 33.7145 31.042 33.7145 31.1814 33.9877L32.158 35.9017C32.2126 36.0086 32.3151 36.0831 32.4336 36.1019L34.5557 36.4393C34.8586 36.4875 34.9792 36.8587 34.7625 37.0758L33.244 38.596C33.1592 38.681 33.12 38.8014 33.1388 38.92L33.4736 41.0425C33.5214 41.3455 33.2056 41.5749 32.9322 41.4358L31.0171 40.4615C30.9101 40.407 30.7835 40.407 30.6765 40.4615L28.7614 41.4358C28.488 41.5749 28.1722 41.3455 28.22 41.0425L28.5549 38.92C28.5736 38.8014 28.5345 38.681 28.4496 38.596L26.9311 37.0758C26.7144 36.8587 26.835 36.4875 27.1379 36.4393L29.26 36.1019C29.3786 36.0831 29.481 36.0086 29.5356 35.9017L30.5122 33.9877Z" fill="#43628F"/>
</g>
<path d="M30.5122 33.9877C30.6516 33.7145 31.042 33.7145 31.1814 33.9877L32.158 35.9017C32.2126 36.0086 32.3151 36.0831 32.4336 36.1019L34.5557 36.4393C34.8586 36.4875 34.9792 36.8587 34.7625 37.0758L33.244 38.596C33.1592 38.681 33.12 38.8014 33.1388 38.92L33.4736 41.0425C33.5214 41.3455 33.2056 41.5749 32.9322 41.4358L31.0171 40.4615C30.9101 40.407 30.7835 40.407 30.6765 40.4615L28.7614 41.4358C28.488 41.5749 28.1722 41.3455 28.22 41.0425L28.5549 38.92C28.5736 38.8014 28.5345 38.681 28.4496 38.596L26.9311 37.0758C26.7144 36.8587 26.835 36.4875 27.1379 36.4393L29.26 36.1019C29.3786 36.0831 29.481 36.0086 29.5356 35.9017L30.5122 33.9877Z" fill="url(#paint79_linear_1464_4034)"/>
<path d="M30.5124 33.9881C30.6518 33.7149 31.0422 33.7149 31.1816 33.9881L32.1582 35.902C32.2128 36.009 32.3152 36.0834 32.4338 36.1023L34.5559 36.4397C34.8588 36.4878 34.9794 36.8591 34.7627 37.0761L33.2442 38.5964C33.1593 38.6814 33.1202 38.8018 33.1389 38.9204L33.4738 41.0428C33.5216 41.3458 33.2058 41.5753 32.9324 41.4362L31.0173 40.4618C30.9103 40.4074 30.7837 40.4074 30.6766 40.4618L28.7616 41.4362C28.4882 41.5753 28.1724 41.3458 28.2202 41.0428L28.555 38.9204C28.5737 38.8018 28.5346 38.6814 28.4498 38.5964L26.9313 37.0761C26.7145 36.8591 26.8352 36.4878 27.1381 36.4397L29.2601 36.1023C29.3787 36.0834 29.4812 36.009 29.5358 35.902L30.5124 33.9881Z" fill="url(#paint80_linear_1464_4034)"/>
<path d="M30.5124 33.9881C30.6518 33.7149 31.0422 33.7149 31.1816 33.9881L32.1582 35.902C32.2128 36.009 32.3152 36.0834 32.4338 36.1023L34.5559 36.4397C34.8588 36.4878 34.9794 36.8591 34.7627 37.0761L33.2442 38.5964C33.1593 38.6814 33.1202 38.8018 33.1389 38.9204L33.4738 41.0428C33.5216 41.3458 33.2058 41.5753 32.9324 41.4362L31.0173 40.4618C30.9103 40.4074 30.7837 40.4074 30.6766 40.4618L28.7616 41.4362C28.4882 41.5753 28.1724 41.3458 28.2202 41.0428L28.555 38.9204C28.5737 38.8018 28.5346 38.6814 28.4498 38.5964L26.9313 37.0761C26.7145 36.8591 26.8352 36.4878 27.1381 36.4397L29.2601 36.1023C29.3787 36.0834 29.4812 36.009 29.5358 35.902L30.5124 33.9881Z" fill="url(#paint81_radial_1464_4034)"/>
<path fill-rule="evenodd" clip-rule="evenodd" d="M32.0467 35.959L31.07 34.045C30.9771 33.8629 30.7169 33.8629 30.6239 34.045L29.6473 35.959C29.5745 36.1016 29.4379 36.2008 29.2798 36.2259L27.1578 36.5633C26.9558 36.5954 26.8754 36.843 27.0199 36.9876L28.5384 38.5079C28.6515 38.6212 28.7037 38.7817 28.6787 38.9399L28.3438 41.0624C28.312 41.2643 28.5225 41.4173 28.7048 41.3246L30.6199 40.3502C30.7626 40.2776 30.9314 40.2776 31.0741 40.3502L32.9892 41.3246C33.1714 41.4173 33.382 41.2643 33.3501 41.0624L33.0152 38.9399C32.9903 38.7817 33.0425 38.6212 33.1556 38.5079L34.6741 36.9876C34.8186 36.843 34.7382 36.5954 34.5362 36.5633L32.4142 36.2259C32.256 36.2008 32.1195 36.1016 32.0467 35.959ZM31.1816 33.9881C31.0422 33.7149 30.6518 33.7149 30.5124 33.9881L29.5358 35.902C29.4812 36.009 29.3787 36.0834 29.2601 36.1023L27.1381 36.4397C26.8352 36.4878 26.7145 36.8591 26.9313 37.0761L28.4498 38.5964C28.5346 38.6814 28.5737 38.8018 28.555 38.9204L28.2202 41.0428C28.1724 41.3458 28.4882 41.5753 28.7616 41.4362L30.6766 40.4618C30.7837 40.4074 30.9103 40.4074 31.0173 40.4618L32.9324 41.4362C33.2058 41.5753 33.5216 41.3458 33.4738 41.0428L33.1389 38.9204C33.1202 38.8018 33.1593 38.6814 33.2442 38.5964L34.7627 37.0761C34.9794 36.8591 34.8588 36.4878 34.5559 36.4397L32.4338 36.1023C32.3152 36.0834 32.2128 36.009 32.1582 35.902L31.1816 33.9881Z" fill="url(#paint82_linear_1464_4034)"/>
<path d="M30.6841 35.8669C30.7564 35.7419 30.9369 35.7419 31.0092 35.8669L31.5812 36.8555C31.6078 36.9015 31.6526 36.9341 31.7046 36.9452L32.8216 37.1837C32.9628 37.2138 33.0186 37.3855 32.922 37.4929L32.1585 38.3424C32.123 38.3819 32.1059 38.4346 32.1114 38.4874L32.2298 39.6234C32.2447 39.7671 32.0987 39.8732 31.9667 39.8146L30.9229 39.3509C30.8743 39.3294 30.8189 39.3294 30.7704 39.3509L29.7265 39.8145C29.5945 39.8732 29.4485 39.7671 29.4635 39.6234L29.5818 38.4874C29.5873 38.4346 29.5702 38.3819 29.5347 38.3424L28.7712 37.4929C28.6747 37.3855 28.7305 37.2138 28.8717 37.1837L29.9887 36.9452C30.0407 36.9341 30.0855 36.9015 30.1121 36.8555L30.6841 35.8669Z" fill="url(#paint83_linear_1464_4034)"/>
<path d="M33.2314 37.3385C30.9654 39.4799 28.9416 38.5328 28.2129 37.7915C27.1045 36.1443 29.5368 37.4621 31.692 36.8855C33.4162 36.4243 33.4367 36.9954 33.2314 37.3385Z" fill="url(#paint84_linear_1464_4034)"/>
<path fill-rule="evenodd" clip-rule="evenodd" d="M30.59 34.4145C30.6363 34.4379 30.6548 34.4944 30.6314 34.5407L30.3659 35.0654C30.3425 35.1117 30.286 35.1303 30.2397 35.1068C30.1934 35.0834 30.1749 35.0269 30.1983 34.9807L30.4638 34.4559C30.4872 34.4096 30.5437 34.391 30.59 34.4145Z" fill="#93D6F6"/>
<ellipse cx="27.3407" cy="36.6818" rx="0.0939099" ry="0.09391" fill="#93D6F6"/>
<ellipse cx="30.1581" cy="35.2404" rx="0.0939099" ry="0.09391" fill="#93D6F6"/>
<path d="M29.9499 36.2107C29.2376 37.2197 29.4921 37.769 29.7085 37.9176C30.3655 38.2141 31.5626 36.4644 31.6436 36.0014C31.7246 35.5384 30.8403 34.9494 29.9499 36.2107Z" fill="url(#paint85_linear_1464_4034)" fill-opacity="0.6"/>
<g filter="url(#filter15_i_1464_4034)">
<path d="M46.4577 39.465C46.7401 39.3453 47.0391 39.5963 46.9703 39.8952L46.4882 41.9891C46.4613 42.1061 46.4919 42.229 46.5706 42.3196L47.9793 43.9421C48.1804 44.1737 48.0342 44.5357 47.7286 44.5626L45.5882 44.7511C45.4686 44.7617 45.3612 44.8288 45.2993 44.9317L44.1916 46.7728C44.0334 47.0356 43.644 47.0084 43.524 46.7261L42.6833 44.7487C42.6363 44.6382 42.5393 44.5568 42.4223 44.5298L40.3289 44.0452C40.0301 43.976 39.9357 43.5972 40.167 43.3958L41.7878 41.9852C41.8784 41.9064 41.9259 41.789 41.9155 41.6693L41.7295 39.5287C41.7029 39.2231 42.034 39.0162 42.297 39.1741L44.1394 40.2796C44.2424 40.3414 44.3687 40.3503 44.4793 40.3034L46.4577 39.465Z" fill="#43628F"/>
</g>
<path d="M46.4577 39.465C46.7401 39.3453 47.0391 39.5963 46.9703 39.8952L46.4882 41.9891C46.4613 42.1061 46.4919 42.229 46.5706 42.3196L47.9793 43.9421C48.1804 44.1737 48.0342 44.5357 47.7286 44.5626L45.5882 44.7511C45.4686 44.7617 45.3612 44.8288 45.2993 44.9317L44.1916 46.7728C44.0334 47.0356 43.644 47.0084 43.524 46.7261L42.6833 44.7487C42.6363 44.6382 42.5393 44.5568 42.4223 44.5298L40.3289 44.0452C40.0301 43.976 39.9357 43.5972 40.167 43.3958L41.7878 41.9852C41.8784 41.9064 41.9259 41.789 41.9155 41.6693L41.7295 39.5287C41.7029 39.2231 42.034 39.0162 42.297 39.1741L44.1394 40.2796C44.2424 40.3414 44.3687 40.3503 44.4793 40.3034L46.4577 39.465Z" fill="url(#paint86_linear_1464_4034)"/>
<path d="M46.4577 39.4653C46.7401 39.3456 47.0392 39.5965 46.9704 39.8954L46.4883 41.9893C46.4613 42.1064 46.492 42.2292 46.5707 42.3199L47.9794 43.9424C48.1805 44.174 48.0342 44.5359 47.7287 44.5628L45.5883 44.7514C45.4687 44.7619 45.3613 44.829 45.2994 44.9319L44.1916 46.7731C44.0335 47.0359 43.6441 47.0086 43.5241 46.7264L42.6833 44.749C42.6363 44.6385 42.5393 44.5571 42.4223 44.53L40.329 44.0454C40.0302 43.9762 39.9357 43.5975 40.1671 43.3961L41.7879 41.9854C41.8785 41.9066 41.9259 41.7892 41.9155 41.6696L41.7295 39.5289C41.703 39.2234 42.034 39.0165 42.297 39.1743L44.1395 40.2799C44.2425 40.3417 44.3688 40.3505 44.4793 40.3037L46.4577 39.4653Z" fill="url(#paint87_linear_1464_4034)"/>
<path d="M46.4577 39.4653C46.7401 39.3456 47.0392 39.5965 46.9704 39.8954L46.4883 41.9893C46.4613 42.1064 46.492 42.2292 46.5707 42.3199L47.9794 43.9424C48.1805 44.174 48.0342 44.5359 47.7287 44.5628L45.5883 44.7514C45.4687 44.7619 45.3613 44.829 45.2994 44.9319L44.1916 46.7731C44.0335 47.0359 43.6441 47.0086 43.5241 46.7264L42.6833 44.749C42.6363 44.6385 42.5393 44.5571 42.4223 44.53L40.329 44.0454C40.0302 43.9762 39.9357 43.5975 40.1671 43.3961L41.7879 41.9854C41.8785 41.9066 41.9259 41.7892 41.9155 41.6696L41.7295 39.5289C41.703 39.2234 42.034 39.0165 42.297 39.1743L44.1395 40.2799C44.2425 40.3417 44.3688 40.3505 44.4793 40.3037L46.4577 39.4653Z" fill="url(#paint88_radial_1464_4034)"/>
<path fill-rule="evenodd" clip-rule="evenodd" d="M46.3662 41.9612L46.8484 39.8673C46.8942 39.6681 46.6949 39.5008 46.5066 39.5806L44.5282 40.4189C44.3808 40.4814 44.2124 40.4696 44.0751 40.3873L42.2326 39.2817C42.0573 39.1765 41.8366 39.3144 41.8543 39.5181L42.0403 41.6587C42.0541 41.8183 41.9909 41.9748 41.8701 42.0799L40.2493 43.4905C40.0951 43.6248 40.158 43.8773 40.3572 43.9234L42.4506 44.408C42.6066 44.4441 42.7359 44.5526 42.7985 44.7L43.6393 46.6774C43.7193 46.8656 43.9789 46.8837 44.0843 46.7085L45.1921 44.8674C45.2746 44.7302 45.4178 44.6407 45.5773 44.6267L47.7177 44.4381C47.9214 44.4202 48.0189 44.1789 47.8848 44.0245L46.4761 42.402C46.3712 42.2811 46.3303 42.1173 46.3662 41.9612ZM46.9704 39.8954C47.0392 39.5965 46.7401 39.3456 46.4577 39.4653L44.4793 40.3037C44.3688 40.3505 44.2425 40.3417 44.1395 40.2799L42.297 39.1743C42.034 39.0165 41.703 39.2234 41.7295 39.5289L41.9155 41.6696C41.9259 41.7892 41.8785 41.9066 41.7879 41.9854L40.1671 43.3961C39.9357 43.5975 40.0302 43.9762 40.329 44.0454L42.4223 44.53C42.5393 44.5571 42.6363 44.6385 42.6833 44.749L43.5241 46.7264C43.6441 47.0086 44.0335 47.0359 44.1916 46.7731L45.2994 44.9319C45.3613 44.829 45.4687 44.7619 45.5883 44.7514L47.7287 44.5628C48.0342 44.5359 48.1805 44.174 47.9794 43.9424L46.5707 42.3199C46.492 42.2292 46.4613 42.1064 46.4883 41.9893L46.9704 39.8954Z" fill="url(#paint89_linear_1464_4034)"/>
<path d="M45.3816 41.0156C45.5174 40.9663 45.6556 41.0823 45.6307 41.2246L45.4334 42.3496C45.4242 42.4019 45.4376 42.4556 45.4703 42.4975L46.1726 43.3982C46.2615 43.5121 46.1939 43.6794 46.0508 43.6997L44.9199 43.8597C44.8673 43.8671 44.8204 43.8965 44.7906 43.9405L44.1511 44.8868C44.0702 45.0064 43.8901 44.9939 43.8267 44.8641L43.3251 43.838C43.3017 43.7903 43.2593 43.7547 43.2083 43.74L42.1106 43.4241C41.9718 43.3842 41.9282 43.2091 42.032 43.1087L42.8529 42.3145C42.891 42.2776 42.9118 42.2262 42.91 42.1731L42.8712 41.0316C42.8663 40.8872 43.0193 40.7916 43.1469 40.8593L44.1559 41.3946C44.2028 41.4195 44.258 41.4233 44.308 41.4052L45.3816 41.0156Z" fill="url(#paint90_linear_1464_4034)"/>
<path d="M46.3867 43.7797C43.2744 43.9635 42.3329 41.9371 42.2511 40.9009C42.4609 38.9266 43.4771 41.4995 45.4986 42.4432C47.1159 43.1982 46.7646 43.6488 46.3867 43.7797Z" fill="url(#paint91_linear_1464_4034)"/>
<path fill-rule="evenodd" clip-rule="evenodd" d="M46.2435 39.8421C46.2639 39.8898 46.2417 39.945 46.1941 39.9654L45.6533 40.1968C45.6056 40.2172 45.5504 40.195 45.53 40.1474C45.5096 40.0997 45.5318 40.0445 45.5794 40.0241L46.1202 39.7927C46.1679 39.7723 46.2231 39.7944 46.2435 39.8421Z" fill="#93D6F6"/>
<ellipse cx="42.297" cy="39.4897" rx="0.09391" ry="0.09391" transform="rotate(40 42.297 39.4897)" fill="#93D6F6"/>
<ellipse cx="45.3805" cy="40.1968" rx="0.09391" ry="0.09391" transform="rotate(40 45.3805 40.1968)" fill="#93D6F6"/>
<path d="M44.5978 40.8073C43.4035 41.1223 43.2454 41.7068 43.3156 41.9597C43.6283 42.6091 45.67 42.0383 46.0297 41.7356C46.3894 41.433 46.0906 40.4134 44.5978 40.8073Z" fill="url(#paint92_linear_1464_4034)" fill-opacity="0.6"/>
<g filter="url(#filter16_i_1464_4034)">
<path d="M14.5841 39.9068C14.5153 39.6079 14.8143 39.357 15.0967 39.4766L17.0751 40.315C17.1857 40.3619 17.312 40.3531 17.415 40.2913L19.2574 39.1857C19.5204 39.0279 19.8515 39.2348 19.8249 39.5403L19.6389 41.681C19.6285 41.8006 19.676 41.918 19.7666 41.9968L21.3874 43.4075C21.6187 43.6088 21.5243 43.9876 21.2255 44.0568L19.1321 44.5414C19.0151 44.5685 18.9181 44.6499 18.8712 44.7604L18.0304 46.7378C17.9104 47.02 17.521 47.0473 17.3628 46.7844L16.2551 44.9433C16.1932 44.8404 16.0858 44.7733 15.9662 44.7628L13.8258 44.5742C13.5202 44.5473 13.374 44.1854 13.5751 43.9538L14.9838 42.3313C15.0625 42.2406 15.0931 42.1177 15.0662 42.0007L14.5841 39.9068Z" fill="#43628F"/>
</g>
<path d="M14.5841 39.9068C14.5153 39.6079 14.8143 39.357 15.0967 39.4766L17.0751 40.315C17.1857 40.3619 17.312 40.3531 17.415 40.2913L19.2574 39.1857C19.5204 39.0279 19.8515 39.2348 19.8249 39.5403L19.6389 41.681C19.6285 41.8006 19.676 41.918 19.7666 41.9968L21.3874 43.4075C21.6187 43.6088 21.5243 43.9876 21.2255 44.0568L19.1321 44.5414C19.0151 44.5685 18.9181 44.6499 18.8712 44.7604L18.0304 46.7378C17.9104 47.02 17.521 47.0473 17.3628 46.7844L16.2551 44.9433C16.1932 44.8404 16.0858 44.7733 15.9662 44.7628L13.8258 44.5742C13.5202 44.5473 13.374 44.1854 13.5751 43.9538L14.9838 42.3313C15.0625 42.2406 15.0931 42.1177 15.0662 42.0007L14.5841 39.9068Z" fill="url(#paint93_linear_1464_4034)"/>
<path d="M14.5842 39.9073C14.5154 39.6084 14.8144 39.3574 15.0968 39.4771L17.0752 40.3155C17.1858 40.3624 17.3121 40.3535 17.4151 40.2917L19.2575 39.1862C19.5205 39.0284 19.8516 39.2352 19.825 39.5408L19.639 41.6814C19.6286 41.8011 19.6761 41.9185 19.7667 41.9973L21.3875 43.4079C21.6188 43.6093 21.5244 43.9881 21.2256 44.0573L19.1322 44.5419C19.0152 44.5689 18.9182 44.6503 18.8713 44.7608L18.0305 46.7382C17.9105 47.0205 17.5211 47.0477 17.3629 46.7849L16.2552 44.9438C16.1933 44.8409 16.0859 44.7738 15.9663 44.7632L13.8259 44.5747C13.5203 44.5478 13.3741 44.1858 13.5752 43.9542L14.9839 42.3317C15.0626 42.2411 15.0932 42.1182 15.0663 42.0012L14.5842 39.9073Z" fill="url(#paint94_linear_1464_4034)"/>
<path d="M14.5842 39.9073C14.5154 39.6084 14.8144 39.3574 15.0968 39.4771L17.0752 40.3155C17.1858 40.3624 17.3121 40.3535 17.4151 40.2917L19.2575 39.1862C19.5205 39.0284 19.8516 39.2352 19.825 39.5408L19.639 41.6814C19.6286 41.8011 19.6761 41.9185 19.7667 41.9973L21.3875 43.4079C21.6188 43.6093 21.5244 43.9881 21.2256 44.0573L19.1322 44.5419C19.0152 44.5689 18.9182 44.6503 18.8713 44.7608L18.0305 46.7382C17.9105 47.0205 17.5211 47.0477 17.3629 46.7849L16.2552 44.9438C16.1933 44.8409 16.0859 44.7738 15.9663 44.7632L13.8259 44.5747C13.5203 44.5478 13.3741 44.1858 13.5752 43.9542L14.9839 42.3317C15.0626 42.2411 15.0932 42.1182 15.0663 42.0012L14.5842 39.9073Z" fill="url(#paint95_radial_1464_4034)"/>
<path fill-rule="evenodd" clip-rule="evenodd" d="M17.0264 40.4308L15.048 39.5924C14.8597 39.5126 14.6603 39.6799 14.7062 39.8792L15.1883 41.9731C15.2243 42.1291 15.1834 42.2929 15.0784 42.4138L13.6697 44.0363C13.5357 44.1907 13.6332 44.432 13.8368 44.45L15.9773 44.6385C16.1368 44.6526 16.2799 44.742 16.3625 44.8792L17.4702 46.7204C17.5757 46.8956 17.8353 46.8774 17.9153 46.6892L18.756 44.7118C18.8187 44.5645 18.948 44.456 19.104 44.4199L21.1973 43.9353C21.3965 43.8892 21.4595 43.6366 21.3053 43.5024L19.6845 42.0917C19.5637 41.9866 19.5004 41.8301 19.5143 41.6706L19.7003 39.5299C19.718 39.3262 19.4973 39.1883 19.322 39.2935L17.4795 40.3991C17.3422 40.4815 17.1738 40.4933 17.0264 40.4308ZM15.0968 39.4771C14.8144 39.3574 14.5154 39.6084 14.5842 39.9073L15.0663 42.0012C15.0932 42.1182 15.0626 42.2411 14.9839 42.3317L13.5752 43.9542C13.3741 44.1858 13.5203 44.5478 13.8259 44.5747L15.9663 44.7632C16.0859 44.7738 16.1933 44.8409 16.2552 44.9438L17.3629 46.7849C17.5211 47.0477 17.9105 47.0205 18.0305 46.7382L18.8713 44.7608C18.9182 44.6503 19.0152 44.5689 19.1322 44.5419L21.2256 44.0573C21.5244 43.9881 21.6188 43.6093 21.3875 43.4079L19.7667 41.9973C19.6761 41.9185 19.6286 41.8011 19.639 41.6814L19.825 39.5408C19.8516 39.2352 19.5205 39.0284 19.2575 39.1862L17.4151 40.2917C17.3121 40.3535 17.1858 40.3624 17.0752 40.3155L15.0968 39.4771Z" fill="url(#paint96_linear_1464_4034)"/>
<path d="M15.9238 41.2352C15.8988 41.093 16.0371 40.977 16.1728 41.0262L17.2465 41.4159C17.2964 41.434 17.3517 41.4302 17.3986 41.4053L18.4076 40.87C18.5351 40.8023 18.6882 40.8979 18.6833 41.0423L18.6445 42.1838C18.6427 42.2369 18.6634 42.2882 18.7016 42.3252L19.5225 43.1193C19.6263 43.2198 19.5826 43.3949 19.4438 43.4348L18.3462 43.7507C18.2951 43.7653 18.2527 43.801 18.2294 43.8487L17.7277 44.8748C17.6643 45.0045 17.4843 45.0171 17.4034 44.8975L16.7638 43.9511C16.7341 43.9071 16.6871 43.8778 16.6345 43.8703L15.5036 43.7103C15.3606 43.6901 15.293 43.5228 15.3818 43.4089L16.0842 42.5082C16.1168 42.4663 16.1302 42.4126 16.1211 42.3602L15.9238 41.2352Z" fill="url(#paint97_linear_1464_4034)"/>
<path d="M18.8209 40.7257C18.4615 43.8226 16.3023 44.398 15.2677 44.2985C13.3598 43.7492 16.0701 43.1952 17.3505 41.3682C18.3748 39.9066 18.7576 40.3309 18.8209 40.7257Z" fill="url(#paint98_linear_1464_4034)"/>
<path fill-rule="evenodd" clip-rule="evenodd" d="M14.9178 40.1845C14.9683 40.1727 15.0188 40.2041 15.0306 40.2546L15.1645 40.8272C15.1763 40.8777 15.145 40.9283 15.0945 40.9401C15.044 40.9519 14.9934 40.9205 14.9816 40.87L14.8477 40.2973C14.8359 40.2468 14.8673 40.1963 14.9178 40.1845Z" fill="#93D6F6"/>
<ellipse cx="13.8862" cy="44.0096" rx="0.0939099" ry="0.09391" transform="rotate(-40 13.8862 44.0096)" fill="#93D6F6"/>
<ellipse cx="15.1189" cy="41.0956" rx="0.0939099" ry="0.09391" transform="rotate(-40 15.1189 41.0956)" fill="#93D6F6"/>
<path d="M15.5825 41.9711C15.6854 43.2019 16.2335 43.4591 16.4947 43.4339C17.1886 43.2387 16.981 41.1289 16.7454 40.7221C16.5099 40.3153 15.4539 40.4325 15.5825 41.9711Z" fill="url(#paint99_linear_1464_4034)" fill-opacity="0.6"/>
<g style="mix-blend-mode:hard-light">
<path d="M30.5122 33.9881C30.6516 33.7149 31.042 33.7149 31.1814 33.9881L32.158 35.902C32.2126 36.009 32.3151 36.0834 32.4337 36.1023L34.5557 36.4397C34.8586 36.4878 34.9793 36.8591 34.7625 37.0761L33.244 38.5964C33.1592 38.6814 33.1201 38.8018 33.1388 38.9204L33.4736 41.0428C33.5214 41.3458 33.2056 41.5753 32.9322 41.4362L31.0172 40.4618C30.9101 40.4074 30.7835 40.4074 30.6765 40.4618L28.7614 41.4362C28.488 41.5753 28.1722 41.3458 28.22 41.0428L28.5549 38.9204C28.5736 38.8018 28.5345 38.6814 28.4496 38.5964L26.9311 37.0761C26.7144 36.8591 26.835 36.4878 27.1379 36.4397L29.26 36.1023C29.3786 36.0834 29.481 36.009 29.5356 35.902L30.5122 33.9881Z" fill="#FFB43A"/>
<path d="M46.4578 39.4637C46.7402 39.344 47.0393 39.595 46.9704 39.8938L46.4883 41.9878C46.4614 42.1048 46.492 42.2277 46.5708 42.3183L47.9795 43.9408C48.1806 44.1724 48.0343 44.5344 47.7288 44.5613L45.5884 44.7498C45.4687 44.7604 45.3614 44.8275 45.2995 44.9304L44.1917 46.7715C44.0336 47.0343 43.6441 47.0071 43.5241 46.7248L42.6834 44.7474C42.6364 44.6369 42.5394 44.5555 42.4224 44.5284L40.3291 44.0438C40.0303 43.9747 39.9358 43.5959 40.1672 43.3945L41.788 41.9839C41.8786 41.905 41.926 41.7877 41.9156 41.668L41.7296 39.5274C41.7031 39.2218 42.0341 39.0149 42.2971 39.1728L44.1396 40.2783C44.2425 40.3401 44.3689 40.3489 44.4794 40.3021L46.4578 39.4637Z" fill="#FFB43A"/>
<path d="M15.0968 39.4756C14.8144 39.356 14.5154 39.6069 14.5842 39.9058L15.0663 41.9997C15.0933 42.1167 15.0626 42.2396 14.9839 42.3303L13.5752 43.9527C13.3741 44.1844 13.5203 44.5463 13.8259 44.5732L15.9663 44.7618C16.0859 44.7723 16.1933 44.8394 16.2552 44.9423L17.363 46.7834C17.5211 47.0462 17.9105 47.019 18.0305 46.7368L18.8713 44.7594C18.9182 44.6488 19.0152 44.5675 19.1322 44.5404L21.2256 44.0558C21.5244 43.9866 21.6188 43.6078 21.3875 43.4065L19.7667 41.9958C19.6761 41.917 19.6287 41.7996 19.639 41.6799L19.825 39.5393C19.8516 39.2337 19.5205 39.0269 19.2575 39.1847L17.4151 40.2903C17.3121 40.352 17.1858 40.3609 17.0752 40.314L15.0968 39.4756Z" fill="#FFB43A"/>
</g>
<defs>
<filter id="filter0_d_1464_4034" x="49.1762" y="6.00195" width="2.94089" height="4.53206" filterUnits="userSpaceOnUse" color-interpolation-filters="sRGB">
<feFlood flood-opacity="0" result="BackgroundImageFix"/>
<feColorMatrix in="SourceAlpha" type="matrix" values="0 0 0 0 0 0 0 0 0 0 0 0 0 0 0 0 0 0 127 0" result="hardAlpha"/>
<feOffset dy="0.296113"/>
<feGaussianBlur stdDeviation="0.0740282"/>
<feColorMatrix type="matrix" values="0 0 0 0 0.541667 0 0 0 0 0.336104 0 0 0 0 0.0947917 0 0 0 0.25 0"/>
<feBlend mode="normal" in2="BackgroundImageFix" result="effect1_dropShadow_1464_4034"/>
<feBlend mode="normal" in="SourceGraphic" in2="effect1_dropShadow_1464_4034" result="shape"/>
</filter>
<filter id="filter1_d_1464_4034" x="49.672" y="14.1934" width="3.27097" height="3.21761" filterUnits="userSpaceOnUse" color-interpolation-filters="sRGB">
<feFlood flood-opacity="0" result="BackgroundImageFix"/>
<feColorMatrix in="SourceAlpha" type="matrix" values="0 0 0 0 0 0 0 0 0 0 0 0 0 0 0 0 0 0 127 0" result="hardAlpha"/>
<feOffset dy="0.296113"/>
<feGaussianBlur stdDeviation="0.0740282"/>
<feColorMatrix type="matrix" values="0 0 0 0 0.541667 0 0 0 0 0.336104 0 0 0 0 0.0947917 0 0 0 0.25 0"/>
<feBlend mode="normal" in2="BackgroundImageFix" result="effect1_dropShadow_1464_4034"/>
<feBlend mode="normal" in="SourceGraphic" in2="effect1_dropShadow_1464_4034" result="shape"/>
</filter>
<filter id="filter2_d_1464_4034" x="52.5308" y="17.2539" width="4.8304" height="4.71175" filterUnits="userSpaceOnUse" color-interpolation-filters="sRGB">
<feFlood flood-opacity="0" result="BackgroundImageFix"/>
<feColorMatrix in="SourceAlpha" type="matrix" values="0 0 0 0 0 0 0 0 0 0 0 0 0 0 0 0 0 0 127 0" result="hardAlpha"/>
<feOffset dx="0.296113" dy="0.296113"/>
<feGaussianBlur stdDeviation="0.0740282"/>
<feColorMatrix type="matrix" values="0 0 0 0 0.541667 0 0 0 0 0.336104 0 0 0 0 0.0947917 0 0 0 0.25 0"/>
<feBlend mode="normal" in2="BackgroundImageFix" result="effect1_dropShadow_1464_4034"/>
<feBlend mode="normal" in="SourceGraphic" in2="effect1_dropShadow_1464_4034" result="shape"/>
</filter>
<filter id="filter3_d_1464_4034" x="50.9093" y="21.8574" width="1.55881" height="5.11995" filterUnits="userSpaceOnUse" color-interpolation-filters="sRGB">
<feFlood flood-opacity="0" result="BackgroundImageFix"/>
<feColorMatrix in="SourceAlpha" type="matrix" values="0 0 0 0 0 0 0 0 0 0 0 0 0 0 0 0 0 0 127 0" result="hardAlpha"/>
<feOffset dy="0.296113"/>
<feGaussianBlur stdDeviation="0.0740282"/>
<feColorMatrix type="matrix" values="0 0 0 0 0.541667 0 0 0 0 0.336104 0 0 0 0 0.0947917 0 0 0 0.25 0"/>
<feBlend mode="normal" in2="BackgroundImageFix" result="effect1_dropShadow_1464_4034"/>
<feBlend mode="normal" in="SourceGraphic" in2="effect1_dropShadow_1464_4034" result="shape"/>
</filter>
<filter id="filter4_d_1464_4034" x="48.7577" y="26.584" width="2.09348" height="5.47542" filterUnits="userSpaceOnUse" color-interpolation-filters="sRGB">
<feFlood flood-opacity="0" result="BackgroundImageFix"/>
<feColorMatrix in="SourceAlpha" type="matrix" values="0 0 0 0 0 0 0 0 0 0 0 0 0 0 0 0 0 0 127 0" result="hardAlpha"/>
<feOffset dy="0.296113"/>
<feGaussianBlur stdDeviation="0.0740282"/>
<feColorMatrix type="matrix" values="0 0 0 0 0.541667 0 0 0 0 0.336104 0 0 0 0 0.0947917 0 0 0 0.25 0"/>
<feBlend mode="normal" in2="BackgroundImageFix" result="effect1_dropShadow_1464_4034"/>
<feBlend mode="normal" in="SourceGraphic" in2="effect1_dropShadow_1464_4034" result="shape"/>
</filter>
<filter id="filter5_d_1464_4034" x="50.0696" y="28.7676" width="4.70589" height="2.50667" filterUnits="userSpaceOnUse" color-interpolation-filters="sRGB">
<feFlood flood-opacity="0" result="BackgroundImageFix"/>
<feColorMatrix in="SourceAlpha" type="matrix" values="0 0 0 0 0 0 0 0 0 0 0 0 0 0 0 0 0 0 127 0" result="hardAlpha"/>
<feOffset dx="0.296113" dy="0.296113"/>
<feGaussianBlur stdDeviation="0.0740282"/>
<feColorMatrix type="matrix" values="0 0 0 0 0.541667 0 0 0 0 0.336104 0 0 0 0 0.0947917 0 0 0 0.25 0"/>
<feBlend mode="normal" in2="BackgroundImageFix" result="effect1_dropShadow_1464_4034"/>
<feBlend mode="normal" in="SourceGraphic" in2="effect1_dropShadow_1464_4034" result="shape"/>
</filter>
<filter id="filter6_d_1464_4034" x="47.4738" y="33.3438" width="3.92282" height="1.91878" filterUnits="userSpaceOnUse" color-interpolation-filters="sRGB">
<feFlood flood-opacity="0" result="BackgroundImageFix"/>
<feColorMatrix in="SourceAlpha" type="matrix" values="0 0 0 0 0 0 0 0 0 0 0 0 0 0 0 0 0 0 127 0" result="hardAlpha"/>
<feOffset dy="0.296113"/>
<feGaussianBlur stdDeviation="0.0740281"/>
<feColorMatrix type="matrix" values="0 0 0 0 0.541667 0 0 0 0 0.336104 0 0 0 0 0.0947917 0 0 0 0.25 0"/>
<feBlend mode="normal" in2="BackgroundImageFix" result="effect1_dropShadow_1464_4034"/>
<feBlend mode="normal" in="SourceGraphic" in2="effect1_dropShadow_1464_4034" result="shape"/>
</filter>
<filter id="filter7_d_1464_4034" x="8.95912" y="5.61133" width="2.94064" height="4.53401" filterUnits="userSpaceOnUse" color-interpolation-filters="sRGB">
<feFlood flood-opacity="0" result="BackgroundImageFix"/>
<feColorMatrix in="SourceAlpha" type="matrix" values="0 0 0 0 0 0 0 0 0 0 0 0 0 0 0 0 0 0 127 0" result="hardAlpha"/>
<feOffset dy="0.296113"/>
<feGaussianBlur stdDeviation="0.0740282"/>
<feColorMatrix type="matrix" values="0 0 0 0 0.541667 0 0 0 0 0.336104 0 0 0 0 0.0947917 0 0 0 0.25 0"/>
<feBlend mode="normal" in2="BackgroundImageFix" result="effect1_dropShadow_1464_4034"/>
<feBlend mode="normal" in="SourceGraphic" in2="effect1_dropShadow_1464_4034" result="shape"/>
</filter>
<filter id="filter8_d_1464_4034" x="8.13319" y="13.8027" width="3.27097" height="3.21761" filterUnits="userSpaceOnUse" color-interpolation-filters="sRGB">
<feFlood flood-opacity="0" result="BackgroundImageFix"/>
<feColorMatrix in="SourceAlpha" type="matrix" values="0 0 0 0 0 0 0 0 0 0 0 0 0 0 0 0 0 0 127 0" result="hardAlpha"/>
<feOffset dy="0.296113"/>
<feGaussianBlur stdDeviation="0.0740282"/>
<feColorMatrix type="matrix" values="0 0 0 0 0.541667 0 0 0 0 0.336104 0 0 0 0 0.0947917 0 0 0 0.25 0"/>
<feBlend mode="normal" in2="BackgroundImageFix" result="effect1_dropShadow_1464_4034"/>
<feBlend mode="normal" in="SourceGraphic" in2="effect1_dropShadow_1464_4034" result="shape"/>
</filter>
<filter id="filter9_d_1464_4034" x="4.15918" y="16.8633" width="4.8304" height="4.71175" filterUnits="userSpaceOnUse" color-interpolation-filters="sRGB">
<feFlood flood-opacity="0" result="BackgroundImageFix"/>
<feColorMatrix in="SourceAlpha" type="matrix" values="0 0 0 0 0 0 0 0 0 0 0 0 0 0 0 0 0 0 127 0" result="hardAlpha"/>
<feOffset dx="0.296113" dy="0.296113"/>
<feGaussianBlur stdDeviation="0.0740282"/>
<feColorMatrix type="matrix" values="0 0 0 0 0.541667 0 0 0 0 0.336104 0 0 0 0 0.0947917 0 0 0 0.25 0"/>
<feBlend mode="normal" in2="BackgroundImageFix" result="effect1_dropShadow_1464_4034"/>
<feBlend mode="normal" in="SourceGraphic" in2="effect1_dropShadow_1464_4034" result="shape"/>
</filter>
<filter id="filter10_d_1464_4034" x="8.6078" y="21.4648" width="1.55881" height="5.11995" filterUnits="userSpaceOnUse" color-interpolation-filters="sRGB">
<feFlood flood-opacity="0" result="BackgroundImageFix"/>
<feColorMatrix in="SourceAlpha" type="matrix" values="0 0 0 0 0 0 0 0 0 0 0 0 0 0 0 0 0 0 127 0" result="hardAlpha"/>
<feOffset dy="0.296113"/>
<feGaussianBlur stdDeviation="0.0740282"/>
<feColorMatrix type="matrix" values="0 0 0 0 0.541667 0 0 0 0 0.336104 0 0 0 0 0.0947917 0 0 0 0.25 0"/>
<feBlend mode="normal" in2="BackgroundImageFix" result="effect1_dropShadow_1464_4034"/>
<feBlend mode="normal" in="SourceGraphic" in2="effect1_dropShadow_1464_4034" result="shape"/>
</filter>
<filter id="filter11_d_1464_4034" x="10.2247" y="26.1934" width="2.09348" height="5.47542" filterUnits="userSpaceOnUse" color-interpolation-filters="sRGB">
<feFlood flood-opacity="0" result="BackgroundImageFix"/>
<feColorMatrix in="SourceAlpha" type="matrix" values="0 0 0 0 0 0 0 0 0 0 0 0 0 0 0 0 0 0 127 0" result="hardAlpha"/>
<feOffset dy="0.296113"/>
<feGaussianBlur stdDeviation="0.0740282"/>
<feColorMatrix type="matrix" values="0 0 0 0 0.541667 0 0 0 0 0.336104 0 0 0 0 0.0947917 0 0 0 0.25 0"/>
<feBlend mode="normal" in2="BackgroundImageFix" result="effect1_dropShadow_1464_4034"/>
<feBlend mode="normal" in="SourceGraphic" in2="effect1_dropShadow_1464_4034" result="shape"/>
</filter>
<filter id="filter12_d_1464_4034" x="6.74463" y="28.375" width="4.70564" height="2.50472" filterUnits="userSpaceOnUse" color-interpolation-filters="sRGB">
<feFlood flood-opacity="0" result="BackgroundImageFix"/>
<feColorMatrix in="SourceAlpha" type="matrix" values="0 0 0 0 0 0 0 0 0 0 0 0 0 0 0 0 0 0 127 0" result="hardAlpha"/>
<feOffset dx="0.296113" dy="0.296113"/>
<feGaussianBlur stdDeviation="0.0740282"/>
<feColorMatrix type="matrix" values="0 0 0 0 0.541667 0 0 0 0 0.336104 0 0 0 0 0.0947917 0 0 0 0.25 0"/>
<feBlend mode="normal" in2="BackgroundImageFix" result="effect1_dropShadow_1464_4034"/>
<feBlend mode="normal" in="SourceGraphic" in2="effect1_dropShadow_1464_4034" result="shape"/>
</filter>
<filter id="filter13_d_1464_4034" x="9.67958" y="32.9512" width="3.92282" height="1.91878" filterUnits="userSpaceOnUse" color-interpolation-filters="sRGB">
<feFlood flood-opacity="0" result="BackgroundImageFix"/>
<feColorMatrix in="SourceAlpha" type="matrix" values="0 0 0 0 0 0 0 0 0 0 0 0 0 0 0 0 0 0 127 0" result="hardAlpha"/>
<feOffset dy="0.296113"/>
<feGaussianBlur stdDeviation="0.0740281"/>
<feColorMatrix type="matrix" values="0 0 0 0 0.541667 0 0 0 0 0.336104 0 0 0 0 0.0947917 0 0 0 0.25 0"/>
<feBlend mode="normal" in2="BackgroundImageFix" result="effect1_dropShadow_1464_4034"/>
<feBlend mode="normal" in="SourceGraphic" in2="effect1_dropShadow_1464_4034" result="shape"/>
</filter>
<filter id="filter14_i_1464_4034" x="26.8208" y="33.1571" width="8.052" height="8.31943" filterUnits="userSpaceOnUse" color-interpolation-filters="sRGB">
<feFlood flood-opacity="0" result="BackgroundImageFix"/>
<feBlend mode="normal" in="SourceGraphic" in2="BackgroundImageFix" result="shape"/>
<feColorMatrix in="SourceAlpha" type="matrix" values="0 0 0 0 0 0 0 0 0 0 0 0 0 0 0 0 0 0 127 0" result="hardAlpha"/>
<feOffset dy="-0.626066"/>
<feGaussianBlur stdDeviation="0.782583"/>
<feComposite in2="hardAlpha" operator="arithmetic" k2="-1" k3="1"/>
<feColorMatrix type="matrix" values="0 0 0 0 0.595833 0 0 0 0 0.83025 0 0 0 0 1 0 0 0 1 0"/>
<feBlend mode="normal" in2="shape" result="effect1_innerShadow_1464_4034"/>
</filter>
<filter id="filter15_i_1464_4034" x="40.0378" y="38.4931" width="8.03394" height="8.462" filterUnits="userSpaceOnUse" color-interpolation-filters="sRGB">
<feFlood flood-opacity="0" result="BackgroundImageFix"/>
<feBlend mode="normal" in="SourceGraphic" in2="BackgroundImageFix" result="shape"/>
<feColorMatrix in="SourceAlpha" type="matrix" values="0 0 0 0 0 0 0 0 0 0 0 0 0 0 0 0 0 0 127 0" result="hardAlpha"/>
<feOffset dy="-0.626066"/>
<feGaussianBlur stdDeviation="0.782583"/>
<feComposite in2="hardAlpha" operator="arithmetic" k2="-1" k3="1"/>
<feColorMatrix type="matrix" values="0 0 0 0 0.595833 0 0 0 0 0.83025 0 0 0 0 1 0 0 0 1 0"/>
<feBlend mode="normal" in2="shape" result="effect1_innerShadow_1464_4034"/>
</filter>
<filter id="filter16_i_1464_4034" x="13.4827" y="38.5048" width="8.03394" height="8.462" filterUnits="userSpaceOnUse" color-interpolation-filters="sRGB">
<feFlood flood-opacity="0" result="BackgroundImageFix"/>
<feBlend mode="normal" in="SourceGraphic" in2="BackgroundImageFix" result="shape"/>
<feColorMatrix in="SourceAlpha" type="matrix" values="0 0 0 0 0 0 0 0 0 0 0 0 0 0 0 0 0 0 127 0" result="hardAlpha"/>
<feOffset dy="-0.626066"/>
<feGaussianBlur stdDeviation="0.782583"/>
<feComposite in2="hardAlpha" operator="arithmetic" k2="-1" k3="1"/>
<feColorMatrix type="matrix" values="0 0 0 0 0.595833 0 0 0 0 0.83025 0 0 0 0 1 0 0 0 1 0"/>
<feBlend mode="normal" in2="shape" result="effect1_innerShadow_1464_4034"/>
</filter>
<linearGradient id="paint0_linear_1464_4034" x1="48.9636" y1="32.2001" x2="49.4617" y2="33.9642" gradientUnits="userSpaceOnUse">
<stop stop-color="#D2AB68"/>
<stop offset="1" stop-color="#B67D3F"/>
</linearGradient>
<linearGradient id="paint1_linear_1464_4034" x1="52.6004" y1="9.91093" x2="54.0206" y2="14.9405" gradientUnits="userSpaceOnUse">
<stop stop-color="#D2AB68"/>
<stop offset="1" stop-color="#B67D3F"/>
</linearGradient>
<linearGradient id="paint2_linear_1464_4034" x1="50.0789" y1="7.50967" x2="51.0663" y2="11.0064" gradientUnits="userSpaceOnUse">
<stop stop-color="#D2AB68"/>
<stop offset="1" stop-color="#B67D3F"/>
</linearGradient>
<linearGradient id="paint3_linear_1464_4034" x1="53.0839" y1="21.8339" x2="51.8404" y2="21.8647" gradientUnits="userSpaceOnUse">
<stop stop-color="#D2AB68"/>
<stop offset="1" stop-color="#B67D3F"/>
</linearGradient>
<linearGradient id="paint4_linear_1464_4034" x1="49.9729" y1="9.57826" x2="52.9108" y2="6.88497" gradientUnits="userSpaceOnUse">
<stop stop-color="#D2AB68"/>
<stop offset="1" stop-color="#B67D3F"/>
</linearGradient>
<linearGradient id="paint5_linear_1464_4034" x1="52.6526" y1="6.27998" x2="52.2068" y2="10.165" gradientUnits="userSpaceOnUse">
<stop stop-color="#F7E6B3"/>
<stop offset="1" stop-color="#F7E6B3" stop-opacity="0"/>
</linearGradient>
<linearGradient id="paint6_linear_1464_4034" x1="49.937" y1="20.5085" x2="51.6701" y2="26.646" gradientUnits="userSpaceOnUse">
<stop stop-color="#D2AB68"/>
<stop offset="1" stop-color="#B67D3F"/>
</linearGradient>
<linearGradient id="paint7_linear_1464_4034" x1="50.5235" y1="21.3702" x2="48.2674" y2="23.9426" gradientUnits="userSpaceOnUse">
<stop stop-color="#F7E6B3"/>
<stop offset="1" stop-color="#F7E6B3" stop-opacity="0"/>
</linearGradient>
<linearGradient id="paint8_linear_1464_4034" x1="53.4425" y1="16.6062" x2="54.364" y2="19.8696" gradientUnits="userSpaceOnUse">
<stop stop-color="#D2AB68"/>
<stop offset="1" stop-color="#B67D3F"/>
</linearGradient>
<linearGradient id="paint9_linear_1464_4034" x1="53.226" y1="18.2104" x2="53.4691" y2="20.122" gradientUnits="userSpaceOnUse">
<stop stop-color="#C18E42"/>
<stop offset="1" stop-color="#D2AB68"/>
</linearGradient>
<linearGradient id="paint10_linear_1464_4034" x1="53.5604" y1="11.5062" x2="54.7255" y2="15.6327" gradientUnits="userSpaceOnUse">
<stop stop-color="#D2AB68"/>
<stop offset="1" stop-color="#8E573C"/>
</linearGradient>
<linearGradient id="paint11_linear_1464_4034" x1="51.1311" y1="12.1622" x2="52.2506" y2="16.1268" gradientUnits="userSpaceOnUse">
<stop stop-color="#D2AB68"/>
<stop offset="1" stop-color="#B67D3F"/>
</linearGradient>
<linearGradient id="paint12_linear_1464_4034" x1="53.6042" y1="24.0908" x2="54.0146" y2="25.5442" gradientUnits="userSpaceOnUse">
<stop stop-color="#D2AB68"/>
<stop offset="1" stop-color="#B67D3F"/>
</linearGradient>
<linearGradient id="paint13_linear_1464_4034" x1="53.7809" y1="21.7235" x2="54.7481" y2="25.1487" gradientUnits="userSpaceOnUse">
<stop stop-color="#C28766"/>
<stop offset="1" stop-color="#8E573C"/>
</linearGradient>
<linearGradient id="paint14_linear_1464_4034" x1="48.2341" y1="27.0176" x2="49.4983" y2="31.4946" gradientUnits="userSpaceOnUse">
<stop stop-color="#D2AB68"/>
<stop offset="1" stop-color="#B67D3F"/>
</linearGradient>
<linearGradient id="paint15_linear_1464_4034" x1="51.2596" y1="27.1814" x2="52.0593" y2="30.0133" gradientUnits="userSpaceOnUse">
<stop stop-color="#D2AB68"/>
<stop offset="1" stop-color="#B67D3F"/>
</linearGradient>
<linearGradient id="paint16_linear_1464_4034" x1="51.025" y1="26.9292" x2="51.966" y2="30.2615" gradientUnits="userSpaceOnUse">
<stop stop-color="#FADA81"/>
<stop offset="1" stop-color="#B67D3F"/>
</linearGradient>
<linearGradient id="paint17_linear_1464_4034" x1="48.5491" y1="34.238" x2="48.9375" y2="35.6135" gradientUnits="userSpaceOnUse">
<stop stop-color="#D2AB68"/>
<stop offset="1" stop-color="#B67D3F"/>
</linearGradient>
<linearGradient id="paint18_linear_1464_4034" x1="49.5685" y1="1.39399" x2="50.9622" y2="6.32956" gradientUnits="userSpaceOnUse">
<stop stop-color="#FCF1D5"/>
<stop offset="1" stop-color="#EBCE6A"/>
</linearGradient>
<linearGradient id="paint19_linear_1464_4034" x1="49.1486" y1="1.51227" x2="50.5423" y2="6.44784" gradientUnits="userSpaceOnUse">
<stop stop-color="#D2AB68"/>
<stop offset="1" stop-color="#B67D3F"/>
</linearGradient>
<linearGradient id="paint20_linear_1464_4034" x1="49.8585" y1="5.85167" x2="51.1227" y2="10.3287" gradientUnits="userSpaceOnUse">
<stop stop-color="#D2AB68"/>
<stop offset="1" stop-color="#B67D3F"/>
</linearGradient>
<linearGradient id="paint21_linear_1464_4034" x1="50.4274" y1="6.44039" x2="49.0454" y2="9.7588" gradientUnits="userSpaceOnUse">
<stop stop-color="#F7E6B3"/>
<stop offset="1" stop-color="#F7E6B3" stop-opacity="0"/>
</linearGradient>
<linearGradient id="paint22_linear_1464_4034" x1="53.2362" y1="10.5757" x2="52.526" y2="14.9224" gradientUnits="userSpaceOnUse">
<stop stop-color="#F7E6B3"/>
<stop offset="1" stop-color="#F7E6B3" stop-opacity="0"/>
</linearGradient>
<linearGradient id="paint23_linear_1464_4034" x1="54.3201" y1="11.9592" x2="54.3417" y2="15.8848" gradientUnits="userSpaceOnUse">
<stop stop-color="#F7E6B3"/>
<stop offset="1" stop-color="#F7E6B3" stop-opacity="0"/>
</linearGradient>
<linearGradient id="paint24_linear_1464_4034" x1="51.5488" y1="12.7169" x2="50.6165" y2="14.9775" gradientUnits="userSpaceOnUse">
<stop stop-color="#FFDD78"/>
<stop offset="1" stop-color="#FFF1C8" stop-opacity="0.38"/>
</linearGradient>
<linearGradient id="paint25_linear_1464_4034" x1="50.8661" y1="13.8976" x2="51.8485" y2="17.3768" gradientUnits="userSpaceOnUse">
<stop stop-color="#D2AB68"/>
<stop offset="1" stop-color="#B67D3F"/>
</linearGradient>
<linearGradient id="paint26_linear_1464_4034" x1="50.8484" y1="13.8444" x2="52.3474" y2="17.265" gradientUnits="userSpaceOnUse">
<stop stop-color="#FFDA92"/>
<stop offset="1" stop-color="#DCBA84"/>
</linearGradient>
<linearGradient id="paint27_linear_1464_4034" x1="55.973" y1="17.5205" x2="53.1177" y2="20.9185" gradientUnits="userSpaceOnUse">
<stop stop-color="#F7E6B3"/>
<stop offset="1" stop-color="#BC8647"/>
</linearGradient>
<linearGradient id="paint28_linear_1464_4034" x1="54.3533" y1="18.0147" x2="55.1339" y2="20.779" gradientUnits="userSpaceOnUse">
<stop stop-color="#D2AB68"/>
<stop offset="1" stop-color="#8E573C"/>
</linearGradient>
<linearGradient id="paint29_linear_1464_4034" x1="54.8716" y1="21.9182" x2="55.2898" y2="24.8903" gradientUnits="userSpaceOnUse">
<stop stop-color="#F7E6B3"/>
<stop offset="1" stop-color="#F7E6B3" stop-opacity="0"/>
</linearGradient>
<linearGradient id="paint30_linear_1464_4034" x1="51.1668" y1="22.1134" x2="52.3472" y2="26.2938" gradientUnits="userSpaceOnUse">
<stop stop-color="#D2AB68"/>
<stop offset="1" stop-color="#B67D3F"/>
</linearGradient>
<linearGradient id="paint31_linear_1464_4034" x1="52.0859" y1="21.8084" x2="51.6078" y2="26.3211" gradientUnits="userSpaceOnUse">
<stop stop-color="#E0C087"/>
<stop offset="0.28125" stop-color="#FFE49E"/>
<stop offset="1" stop-color="#753C1D"/>
</linearGradient>
<linearGradient id="paint32_linear_1464_4034" x1="54.3409" y1="24.4183" x2="54.9076" y2="25.6657" gradientUnits="userSpaceOnUse">
<stop stop-color="#B18253"/>
<stop offset="1" stop-color="#F7E6B3" stop-opacity="0"/>
</linearGradient>
<linearGradient id="paint33_linear_1464_4034" x1="49.336" y1="26.9686" x2="50.5393" y2="31.2299" gradientUnits="userSpaceOnUse">
<stop stop-color="#D2AB68"/>
<stop offset="1" stop-color="#B67D3F"/>
</linearGradient>
<linearGradient id="paint34_linear_1464_4034" x1="49.9601" y1="27.4989" x2="49.5626" y2="31.5036" gradientUnits="userSpaceOnUse">
<stop stop-color="#F7E6B3"/>
<stop offset="1" stop-color="#F7E6B3" stop-opacity="0"/>
</linearGradient>
<linearGradient id="paint35_linear_1464_4034" x1="52.0334" y1="29.0992" x2="52.4656" y2="30.6298" gradientUnits="userSpaceOnUse">
<stop stop-color="#D2AB68"/>
<stop offset="1" stop-color="#B67D3F"/>
</linearGradient>
<linearGradient id="paint36_linear_1464_4034" x1="52.4843" y1="28.9919" x2="51.0664" y2="30.4694" gradientUnits="userSpaceOnUse">
<stop stop-color="#FADA81"/>
<stop offset="1" stop-color="#9A5E33"/>
</linearGradient>
<linearGradient id="paint37_linear_1464_4034" x1="49.1742" y1="33.1517" x2="49.6276" y2="34.7574" gradientUnits="userSpaceOnUse">
<stop stop-color="#FADA81"/>
<stop offset="1" stop-color="#B67D3F"/>
</linearGradient>
<linearGradient id="paint38_linear_1464_4034" x1="48.9205" y1="33.6884" x2="49.4333" y2="35.5043" gradientUnits="userSpaceOnUse">
<stop stop-color="#D2AB68"/>
<stop offset="1" stop-color="#B67D3F"/>
</linearGradient>
<linearGradient id="paint39_linear_1464_4034" x1="12.1126" y1="31.8075" x2="11.6145" y2="33.5716" gradientUnits="userSpaceOnUse">
<stop stop-color="#D2AB68"/>
<stop offset="1" stop-color="#B67D3F"/>
</linearGradient>
<linearGradient id="paint40_linear_1464_4034" x1="8.47557" y1="9.51835" x2="7.05534" y2="14.548" gradientUnits="userSpaceOnUse">
<stop stop-color="#D2AB68"/>
<stop offset="1" stop-color="#B67D3F"/>
</linearGradient>
<linearGradient id="paint41_linear_1464_4034" x1="10.997" y1="7.11904" x2="10.0096" y2="10.6158" gradientUnits="userSpaceOnUse">
<stop stop-color="#D2AB68"/>
<stop offset="1" stop-color="#B67D3F"/>
</linearGradient>
<linearGradient id="paint42_linear_1464_4034" x1="7.992" y1="21.4414" x2="9.23549" y2="21.4722" gradientUnits="userSpaceOnUse">
<stop stop-color="#D2AB68"/>
<stop offset="1" stop-color="#B67D3F"/>
</linearGradient>
<linearGradient id="paint43_linear_1464_4034" x1="11.103" y1="9.18763" x2="8.16516" y2="6.49434" gradientUnits="userSpaceOnUse">
<stop stop-color="#D2AB68"/>
<stop offset="1" stop-color="#B67D3F"/>
</linearGradient>
<linearGradient id="paint44_linear_1464_4034" x1="8.42337" y1="5.88935" x2="8.86911" y2="9.7744" gradientUnits="userSpaceOnUse">
<stop stop-color="#F7E6B3"/>
<stop offset="1" stop-color="#F7E6B3" stop-opacity="0"/>
</linearGradient>
<linearGradient id="paint45_linear_1464_4034" x1="11.1389" y1="20.1179" x2="9.40584" y2="26.2553" gradientUnits="userSpaceOnUse">
<stop stop-color="#D2AB68"/>
<stop offset="1" stop-color="#B67D3F"/>
</linearGradient>
<linearGradient id="paint46_linear_1464_4034" x1="10.5524" y1="20.9796" x2="12.8085" y2="23.552" gradientUnits="userSpaceOnUse">
<stop stop-color="#F7E6B3"/>
<stop offset="1" stop-color="#F7E6B3" stop-opacity="0"/>
</linearGradient>
<linearGradient id="paint47_linear_1464_4034" x1="7.63338" y1="16.2155" x2="6.71189" y2="19.4789" gradientUnits="userSpaceOnUse">
<stop stop-color="#D2AB68"/>
<stop offset="1" stop-color="#B67D3F"/>
</linearGradient>
<linearGradient id="paint48_linear_1464_4034" x1="7.85018" y1="17.8197" x2="7.6071" y2="19.7314" gradientUnits="userSpaceOnUse">
<stop stop-color="#C18E42"/>
<stop offset="1" stop-color="#D2AB68"/>
</linearGradient>
<linearGradient id="paint49_linear_1464_4034" x1="7.51581" y1="11.1156" x2="6.35062" y2="15.2421" gradientUnits="userSpaceOnUse">
<stop stop-color="#D2AB68"/>
<stop offset="1" stop-color="#8E573C"/>
</linearGradient>
<linearGradient id="paint50_linear_1464_4034" x1="9.94505" y1="11.7716" x2="8.82553" y2="15.7362" gradientUnits="userSpaceOnUse">
<stop stop-color="#D2AB68"/>
<stop offset="1" stop-color="#B67D3F"/>
</linearGradient>
<linearGradient id="paint51_linear_1464_4034" x1="7.47177" y1="23.6982" x2="7.06137" y2="25.1516" gradientUnits="userSpaceOnUse">
<stop stop-color="#D2AB68"/>
<stop offset="1" stop-color="#B67D3F"/>
</linearGradient>
<linearGradient id="paint52_linear_1464_4034" x1="7.29502" y1="21.3328" x2="6.32783" y2="24.7581" gradientUnits="userSpaceOnUse">
<stop stop-color="#C28766"/>
<stop offset="1" stop-color="#8E573C"/>
</linearGradient>
<linearGradient id="paint53_linear_1464_4034" x1="12.8421" y1="26.625" x2="11.5779" y2="31.1021" gradientUnits="userSpaceOnUse">
<stop stop-color="#D2AB68"/>
<stop offset="1" stop-color="#B67D3F"/>
</linearGradient>
<linearGradient id="paint54_linear_1464_4034" x1="9.81654" y1="26.7907" x2="9.0169" y2="29.6226" gradientUnits="userSpaceOnUse">
<stop stop-color="#D2AB68"/>
<stop offset="1" stop-color="#B67D3F"/>
</linearGradient>
<linearGradient id="paint55_linear_1464_4034" x1="10.0507" y1="26.5366" x2="9.10972" y2="29.869" gradientUnits="userSpaceOnUse">
<stop stop-color="#FADA81"/>
<stop offset="1" stop-color="#B67D3F"/>
</linearGradient>
<linearGradient id="paint56_linear_1464_4034" x1="12.5269" y1="33.8474" x2="12.1385" y2="35.2229" gradientUnits="userSpaceOnUse">
<stop stop-color="#D2AB68"/>
<stop offset="1" stop-color="#B67D3F"/>
</linearGradient>
<linearGradient id="paint57_linear_1464_4034" x1="11.5071" y1="1.00142" x2="10.1135" y2="5.93698" gradientUnits="userSpaceOnUse">
<stop stop-color="#FCF1D5"/>
<stop offset="1" stop-color="#EBCE6A"/>
</linearGradient>
<linearGradient id="paint58_linear_1464_4034" x1="11.9271" y1="1.11969" x2="10.5334" y2="6.05526" gradientUnits="userSpaceOnUse">
<stop stop-color="#D2AB68"/>
<stop offset="1" stop-color="#B67D3F"/>
</linearGradient>
<linearGradient id="paint59_linear_1464_4034" x1="11.2174" y1="5.46105" x2="9.95323" y2="9.93812" gradientUnits="userSpaceOnUse">
<stop stop-color="#D2AB68"/>
<stop offset="1" stop-color="#B67D3F"/>
</linearGradient>
<linearGradient id="paint60_linear_1464_4034" x1="10.6486" y1="6.05172" x2="12.0305" y2="9.37012" gradientUnits="userSpaceOnUse">
<stop stop-color="#F7E6B3"/>
<stop offset="1" stop-color="#F7E6B3" stop-opacity="0"/>
</linearGradient>
<linearGradient id="paint61_linear_1464_4034" x1="7.83992" y1="10.1831" x2="8.55021" y2="14.5299" gradientUnits="userSpaceOnUse">
<stop stop-color="#F7E6B3"/>
<stop offset="1" stop-color="#F7E6B3" stop-opacity="0"/>
</linearGradient>
<linearGradient id="paint62_linear_1464_4034" x1="6.75563" y1="11.5666" x2="6.73397" y2="15.4923" gradientUnits="userSpaceOnUse">
<stop stop-color="#F7E6B3"/>
<stop offset="1" stop-color="#F7E6B3" stop-opacity="0"/>
</linearGradient>
<linearGradient id="paint63_linear_1464_4034" x1="9.52716" y1="12.3262" x2="10.4595" y2="14.5869" gradientUnits="userSpaceOnUse">
<stop stop-color="#FFDD78"/>
<stop offset="1" stop-color="#FFF1C8" stop-opacity="0.38"/>
</linearGradient>
<linearGradient id="paint64_linear_1464_4034" x1="10.21" y1="13.507" x2="9.22765" y2="16.9862" gradientUnits="userSpaceOnUse">
<stop stop-color="#D2AB68"/>
<stop offset="1" stop-color="#B67D3F"/>
</linearGradient>
<linearGradient id="paint65_linear_1464_4034" x1="10.2278" y1="13.4537" x2="8.72876" y2="16.8744" gradientUnits="userSpaceOnUse">
<stop stop-color="#FFDA92"/>
<stop offset="1" stop-color="#DCBA84"/>
</linearGradient>
<linearGradient id="paint66_linear_1464_4034" x1="5.10314" y1="17.1298" x2="7.95847" y2="20.5278" gradientUnits="userSpaceOnUse">
<stop stop-color="#F7E6B3"/>
<stop offset="1" stop-color="#BC8647"/>
</linearGradient>
<linearGradient id="paint67_linear_1464_4034" x1="6.72259" y1="17.6241" x2="5.94204" y2="20.3883" gradientUnits="userSpaceOnUse">
<stop stop-color="#D2AB68"/>
<stop offset="1" stop-color="#8E573C"/>
</linearGradient>
<linearGradient id="paint68_linear_1464_4034" x1="6.20461" y1="21.5256" x2="5.78636" y2="24.4977" gradientUnits="userSpaceOnUse">
<stop stop-color="#F7E6B3"/>
<stop offset="1" stop-color="#F7E6B3" stop-opacity="0"/>
</linearGradient>
<linearGradient id="paint69_linear_1464_4034" x1="9.90917" y1="21.7208" x2="8.72873" y2="25.9012" gradientUnits="userSpaceOnUse">
<stop stop-color="#D2AB68"/>
<stop offset="1" stop-color="#B67D3F"/>
</linearGradient>
<linearGradient id="paint70_linear_1464_4034" x1="8.98999" y1="21.4158" x2="9.46813" y2="25.9286" gradientUnits="userSpaceOnUse">
<stop stop-color="#E0C087"/>
<stop offset="0.28125" stop-color="#FFE49E"/>
<stop offset="1" stop-color="#753C1D"/>
</linearGradient>
<linearGradient id="paint71_linear_1464_4034" x1="6.73529" y1="24.0258" x2="6.16853" y2="25.2731" gradientUnits="userSpaceOnUse">
<stop stop-color="#B18253"/>
<stop offset="1" stop-color="#F7E6B3" stop-opacity="0"/>
</linearGradient>
<linearGradient id="paint72_linear_1464_4034" x1="11.7399" y1="26.5779" x2="10.5367" y2="30.8393" gradientUnits="userSpaceOnUse">
<stop stop-color="#D2AB68"/>
<stop offset="1" stop-color="#B67D3F"/>
</linearGradient>
<linearGradient id="paint73_linear_1464_4034" x1="11.1161" y1="27.1083" x2="11.5136" y2="31.1129" gradientUnits="userSpaceOnUse">
<stop stop-color="#F7E6B3"/>
<stop offset="1" stop-color="#F7E6B3" stop-opacity="0"/>
</linearGradient>
<linearGradient id="paint74_linear_1464_4034" x1="9.04232" y1="28.7047" x2="8.61011" y2="30.2353" gradientUnits="userSpaceOnUse">
<stop stop-color="#D2AB68"/>
<stop offset="1" stop-color="#B67D3F"/>
</linearGradient>
<linearGradient id="paint75_linear_1464_4034" x1="8.59158" y1="28.5993" x2="10.0096" y2="30.0768" gradientUnits="userSpaceOnUse">
<stop stop-color="#FADA81"/>
<stop offset="1" stop-color="#9A5E33"/>
</linearGradient>
<linearGradient id="paint76_linear_1464_4034" x1="11.902" y1="32.7591" x2="11.4486" y2="34.3648" gradientUnits="userSpaceOnUse">
<stop stop-color="#FADA81"/>
<stop offset="1" stop-color="#B67D3F"/>
</linearGradient>
<linearGradient id="paint77_linear_1464_4034" x1="12.1557" y1="33.2958" x2="11.6429" y2="35.1117" gradientUnits="userSpaceOnUse">
<stop stop-color="#D2AB68"/>
<stop offset="1" stop-color="#B67D3F"/>
</linearGradient>
<linearGradient id="paint78_linear_1464_4034" x1="28.8069" y1="7.45129" x2="28.8069" y2="40.0003" gradientUnits="userSpaceOnUse">
<stop stop-color="#FFD66B"/>
<stop offset="1" stop-color="#FFD568" stop-opacity="0"/>
</linearGradient>
<linearGradient id="paint79_linear_1464_4034" x1="30.8468" y1="33.332" x2="32.9441" y2="41.4396" gradientUnits="userSpaceOnUse">
<stop stop-color="#708FBE" stop-opacity="0"/>
<stop offset="1" stop-color="#72DDFF" stop-opacity="0.63"/>
</linearGradient>
<linearGradient id="paint80_linear_1464_4034" x1="30.847" y1="33.3324" x2="32.9443" y2="41.44" gradientUnits="userSpaceOnUse">
<stop stop-color="#708FBE" stop-opacity="0"/>
<stop offset="1" stop-color="#72DDFF" stop-opacity="0.63"/>
</linearGradient>
<radialGradient id="paint81_radial_1464_4034" cx="0" cy="0" r="1" gradientUnits="userSpaceOnUse" gradientTransform="translate(29.7514 36.8071) rotate(52.6712) scale(5.472)">
<stop offset="0.738765" stop-color="#9CB6DD" stop-opacity="0"/>
<stop offset="0.89825" stop-color="#C6F1FF" stop-opacity="0.37"/>
<stop offset="1" stop-color="#EFFBFF" stop-opacity="0.7"/>
</radialGradient>
<linearGradient id="paint82_linear_1464_4034" x1="33.4765" y1="39.5931" x2="29.1566" y2="35.6801" gradientUnits="userSpaceOnUse">
<stop stop-color="#D8F6FF" stop-opacity="0.63"/>
<stop offset="0.218803" stop-color="#A0D2FF" stop-opacity="0"/>
<stop offset="0.491108" stop-color="#8DC8FF" stop-opacity="0.56"/>
<stop offset="0.733041" stop-color="#9ADBF8"/>
<stop offset="1" stop-color="white" stop-opacity="0"/>
<stop offset="1" stop-color="#BAEAFF" stop-opacity="0"/>
</linearGradient>
<linearGradient id="paint83_linear_1464_4034" x1="30.8466" y1="35.5859" x2="30.784" y2="39.7493" gradientUnits="userSpaceOnUse">
<stop stop-color="#9BE1FF"/>
<stop offset="0.277442" stop-color="#9BE1FF" stop-opacity="0.51"/>
<stop offset="1" stop-color="#CDDEE6" stop-opacity="0.15"/>
</linearGradient>
<linearGradient id="paint84_linear_1464_4034" x1="30.6452" y1="37.1738" x2="30.6142" y2="38.6534" gradientUnits="userSpaceOnUse">
<stop stop-color="#C4C4C4" stop-opacity="0"/>
<stop offset="0.731853" stop-color="#DBF6FF" stop-opacity="0.46"/>
</linearGradient>
<linearGradient id="paint85_linear_1464_4034" x1="30.23" y1="36.3456" x2="31.0615" y2="37.1304" gradientUnits="userSpaceOnUse">
<stop offset="0.223958" stop-color="#DBF6FF" stop-opacity="0.35"/>
<stop offset="1" stop-color="#C4C4C4" stop-opacity="0"/>
</linearGradient>
<linearGradient id="paint86_linear_1464_4034" x1="47.1355" y1="39.1778" x2="43.5307" y2="46.7367" gradientUnits="userSpaceOnUse">
<stop stop-color="#708FBE" stop-opacity="0"/>
<stop offset="1" stop-color="#72DDFF" stop-opacity="0.63"/>
</linearGradient>
<linearGradient id="paint87_linear_1464_4034" x1="47.1355" y1="39.178" x2="43.5307" y2="46.7369" gradientUnits="userSpaceOnUse">
<stop stop-color="#708FBE" stop-opacity="0"/>
<stop offset="1" stop-color="#72DDFF" stop-opacity="0.63"/>
</linearGradient>
<radialGradient id="paint88_radial_1464_4034" cx="0" cy="0" r="1" gradientUnits="userSpaceOnUse" gradientTransform="translate(44.0628 41.1355) rotate(92.6712) scale(5.472 5.47199)">
<stop offset="0.738765" stop-color="#9CB6DD" stop-opacity="0"/>
<stop offset="0.89825" stop-color="#C6F1FF" stop-opacity="0.37"/>
<stop offset="1" stop-color="#EFFBFF" stop-opacity="0.7"/>
</radialGradient>
<linearGradient id="paint89_linear_1464_4034" x1="45.1256" y1="45.6642" x2="44.3315" y2="39.89" gradientUnits="userSpaceOnUse">
<stop stop-color="#D8F6FF" stop-opacity="0.63"/>
<stop offset="0.218803" stop-color="#A0D2FF" stop-opacity="0"/>
<stop offset="0.491108" stop-color="#8DC8FF" stop-opacity="0.56"/>
<stop offset="0.733041" stop-color="#9ADBF8"/>
<stop offset="1" stop-color="white" stop-opacity="0"/>
<stop offset="1" stop-color="#BAEAFF" stop-opacity="0"/>
</linearGradient>
<linearGradient id="paint90_linear_1464_4034" x1="45.6868" y1="40.9048" x2="42.9627" y2="44.0539" gradientUnits="userSpaceOnUse">
<stop stop-color="#9BE1FF"/>
<stop offset="0.277442" stop-color="#9BE1FF" stop-opacity="0.51"/>
<stop offset="1" stop-color="#CDDEE6" stop-opacity="0.15"/>
</linearGradient>
<linearGradient id="paint91_linear_1464_4034" x1="44.5115" y1="41.9911" x2="43.5366" y2="43.1047" gradientUnits="userSpaceOnUse">
<stop stop-color="#C4C4C4" stop-opacity="0"/>
<stop offset="0.731853" stop-color="#DBF6FF" stop-opacity="0.46"/>
</linearGradient>
<linearGradient id="paint92_linear_1464_4034" x1="44.7256" y1="41.0907" x2="44.8581" y2="42.2263" gradientUnits="userSpaceOnUse">
<stop offset="0.223958" stop-color="#DBF6FF" stop-opacity="0.35"/>
<stop offset="1" stop-color="#C4C4C4" stop-opacity="0"/>
</linearGradient>
<linearGradient id="paint93_linear_1464_4034" x1="14.4189" y1="39.1894" x2="21.237" y2="44.052" gradientUnits="userSpaceOnUse">
<stop stop-color="#708FBE" stop-opacity="0"/>
<stop offset="1" stop-color="#72DDFF" stop-opacity="0.63"/>
</linearGradient>
<linearGradient id="paint94_linear_1464_4034" x1="14.419" y1="39.1899" x2="21.2371" y2="44.0525" gradientUnits="userSpaceOnUse">
<stop stop-color="#708FBE" stop-opacity="0"/>
<stop offset="1" stop-color="#72DDFF" stop-opacity="0.63"/>
</linearGradient>
<radialGradient id="paint95_radial_1464_4034" cx="0" cy="0" r="1" gradientUnits="userSpaceOnUse" gradientTransform="translate(15.8132 42.5559) rotate(12.6712) scale(5.47199 5.472)">
<stop offset="0.738765" stop-color="#9CB6DD" stop-opacity="0"/>
<stop offset="0.89825" stop-color="#C6F1FF" stop-opacity="0.37"/>
<stop offset="1" stop-color="#EFFBFF" stop-opacity="0.7"/>
</radialGradient>
<linearGradient id="paint96_linear_1464_4034" x1="20.4576" y1="42.2956" x2="14.6332" y2="42.0749" gradientUnits="userSpaceOnUse">
<stop stop-color="#D8F6FF" stop-opacity="0.63"/>
<stop offset="0.218803" stop-color="#A0D2FF" stop-opacity="0"/>
<stop offset="0.491108" stop-color="#8DC8FF" stop-opacity="0.56"/>
<stop offset="0.733041" stop-color="#9ADBF8"/>
<stop offset="1" stop-color="white" stop-opacity="0"/>
<stop offset="1" stop-color="#BAEAFF" stop-opacity="0"/>
</linearGradient>
<linearGradient id="paint97_linear_1464_4034" x1="15.8677" y1="40.9155" x2="18.4959" y2="44.145" gradientUnits="userSpaceOnUse">
<stop stop-color="#9BE1FF"/>
<stop offset="0.277442" stop-color="#9BE1FF" stop-opacity="0.51"/>
<stop offset="1" stop-color="#CDDEE6" stop-opacity="0.15"/>
</linearGradient>
<linearGradient id="paint98_linear_1464_4034" x1="16.7339" y1="42.2619" x2="17.6612" y2="43.4153" gradientUnits="userSpaceOnUse">
<stop stop-color="#C4C4C4" stop-opacity="0"/>
<stop offset="0.731853" stop-color="#DBF6FF" stop-opacity="0.46"/>
</linearGradient>
<linearGradient id="paint99_linear_1464_4034" x1="15.8839" y1="41.8944" x2="17.0252" y2="41.9611" gradientUnits="userSpaceOnUse">
<stop offset="0.223958" stop-color="#DBF6FF" stop-opacity="0.35"/>
<stop offset="1" stop-color="#C4C4C4" stop-opacity="0"/>
</linearGradient>
</defs>
</svg>
