<svg width="301" height="235" viewBox="0 0 301 235" fill="none" xmlns="http://www.w3.org/2000/svg">
<path d="M15.5794 55.7083L81.0131 38.1754L98.8702 42.5011L2.27761 68.383L15.5794 55.7083Z" fill="url(#paint0_linear_1406_352)"/>
<path d="M2.27759 68.3828L98.8702 42.5009L135.66 210.711L54.5219 232.451L2.27759 68.3828Z" fill="url(#paint1_linear_1406_352)"/>
<path fill-rule="evenodd" clip-rule="evenodd" d="M56.2131 157.854L58.5627 166.623L97.4657 156.199L92.7413 138.567L74.8714 143.356C74.9109 142.836 74.9592 142.325 75.0162 141.822C75.2934 139.649 75.6519 137.557 76.0903 135.547C76.5836 133.423 77.085 131.331 77.5945 129.27L81.588 113.668C82.171 111.45 82.5984 109.158 82.8739 106.793L82.8751 106.783L82.8763 106.772C83.1505 104.303 83.1935 101.767 83.0136 99.1708C82.8599 96.4862 82.3977 93.7389 81.6464 90.935C80.431 86.3988 78.7235 82.3271 76.4844 78.7669C74.1524 75.0404 71.1712 72.1585 67.493 70.3368C63.5041 68.3612 59.041 68.2328 54.4155 69.4722C48.8585 70.9612 44.2998 73.5216 41.6789 77.6651C39.2191 81.5098 38.3687 86.1434 38.7409 91.2405L38.7419 91.2546L38.7431 91.2688C39.1279 96.068 40.1653 101.548 41.8073 107.676L44.2075 116.633L61.9591 111.877L57.833 126.218L57.8313 126.224C56.6973 130.188 55.8497 133.938 55.3 137.468C54.7443 141.037 54.5217 144.499 54.647 147.849L54.6478 147.87L54.6488 147.89C54.8089 151.243 55.3318 154.565 56.2131 157.854ZM63.0019 107.569L60.1555 96.9462C59.2223 93.4636 58.8453 91.1593 58.8287 89.8308L58.8285 89.8222L58.8284 89.8137C58.8165 89.107 58.8657 88.6412 58.9212 88.3633C59.1031 88.598 59.3453 88.9726 59.6296 89.5373L59.6458 89.5694L59.6626 89.6013C60.2804 90.7752 61.01 92.7475 61.8002 95.6967C62.3087 97.5942 62.6572 99.252 62.8621 100.682L62.8672 100.717L62.8728 100.752C63.1034 102.18 63.215 103.424 63.2265 104.497C63.2384 105.599 63.1625 106.6 63.0113 107.509L63.0067 107.537L63.0019 107.569Z" fill="url(#paint2_linear_1406_352)"/>
<path d="M285.421 55.7083L219.987 38.1754L202.13 42.5011L298.722 68.383L285.421 55.7083Z" fill="url(#paint3_linear_1406_352)"/>
<path d="M298.722 68.3828L202.13 42.5009L165.34 210.711L246.478 232.451L298.722 68.3828Z" fill="url(#paint4_linear_1406_352)"/>
<path fill-rule="evenodd" clip-rule="evenodd" d="M207.457 150.357L207.463 150.375L207.469 150.393C209.537 156.661 214.96 160.438 222.133 162.36C229.739 164.398 236.654 163.709 241.94 159.133C246.795 154.964 250.154 148.324 252.412 139.894C253.382 136.275 253.991 132.877 254.202 129.717C254.428 126.433 254.132 123.33 253.214 120.474C252.919 119.556 252.55 118.681 252.111 117.849C253.856 116.826 255.411 115.441 256.761 113.73L256.766 113.724L256.77 113.718C259.381 110.384 261.271 106.269 262.545 101.512C264.611 93.8026 264.824 86.896 262.355 81.2788C259.765 75.3831 254.404 71.7335 247.375 69.8502C240.286 67.9505 233.763 68.3309 228.802 72.3399C224.262 76.0088 221.188 82.135 219.115 89.8743L217.384 96.3321L237.327 101.676L239.032 95.3124C239.713 92.7729 240.359 90.9643 240.938 89.7757C241.446 88.7833 241.803 88.5253 241.84 88.4981C241.843 88.4965 241.844 88.4957 241.844 88.4956L241.874 88.4803L241.91 88.4614L241.912 88.4609C241.917 88.4597 241.939 88.4538 241.986 88.4508C242.083 88.4446 242.3 88.4496 242.669 88.5484C243.149 88.6771 243.307 88.8392 243.385 88.9379L243.403 88.961C243.413 88.9844 243.429 89.0274 243.448 89.0949C243.507 89.3033 243.572 89.676 243.579 90.2668C243.592 91.41 243.316 93.3163 242.555 96.1552C241.736 99.2122 240.902 101.411 240.107 102.881L240.096 102.902L240.085 102.922C239.392 104.241 238.799 104.651 238.507 104.782C238.288 104.876 237.618 105.048 236.13 104.649L228.776 102.678L224.128 120.027L231.576 122.023C233.037 122.415 233.44 122.909 233.554 123.093C233.748 123.407 234.07 124.279 233.908 126.219L233.908 126.229C233.746 128.232 233.232 130.95 232.293 134.453C231.498 137.421 230.71 139.75 229.948 141.494L229.938 141.518L229.928 141.541C229.268 143.104 228.68 143.755 228.378 143.989C228.368 143.993 228.352 143.997 228.32 144C228.23 144.011 227.986 144.019 227.534 143.898C226.994 143.753 226.709 143.603 226.584 143.52C226.569 143.51 226.557 143.501 226.547 143.494C226.489 143.337 226.345 142.795 226.495 141.574C226.692 139.97 227.132 137.839 227.857 135.134L230.434 125.516L210.868 120.274L208.379 129.561C206.207 137.669 205.665 144.743 207.457 150.357ZM250.211 129.447C250.41 126.568 250.141 123.986 249.406 121.699C248.671 119.413 247.337 117.471 245.406 115.876C245.406 115.876 245.406 115.876 245.406 115.876C246.652 116.905 247.65 118.079 248.398 119.397C248.809 120.121 249.145 120.888 249.406 121.699C250.141 123.986 250.41 126.568 250.211 129.447ZM235.095 108.513C235.095 108.513 235.095 108.513 235.095 108.513V108.513Z" fill="url(#paint5_linear_1406_352)"/>
<path d="M113.742 9H188.258L206 18.68H96L113.742 9Z" fill="url(#paint6_linear_1406_352)"/>
<g opacity="0.2" filter="url(#filter0_f_1406_352)">
<ellipse cx="106.083" cy="73.5515" rx="11.88" ry="47.8413" transform="rotate(-10.9554 106.083 73.5515)" fill="black"/>
</g>
<g opacity="0.2" filter="url(#filter1_f_1406_352)">
<ellipse cx="196.417" cy="73.5515" rx="11.88" ry="47.8413" transform="rotate(15 196.417 73.5515)" fill="black"/>
</g>
<path d="M96 18.6797H206L197.2 207.88H104.8L96 18.6797Z" fill="url(#paint7_linear_1406_352)"/>
<path d="M141.868 77.0059V142H162V50H145.882L144.874 52.5068C144.187 54.2136 143.332 55.5639 142.348 56.6248C141.275 57.781 140.14 58.6528 138.947 59.2839C137.69 59.9324 136.501 60.3223 135.371 60.502L132 61.0385V77.95H136C137.458 77.95 138.939 77.7631 140.433 77.4174L140.469 77.4091L140.505 77.4001C140.966 77.2843 141.42 77.153 141.868 77.0059Z" fill="url(#paint8_linear_1406_352)"/>
<defs>
<filter id="filter0_f_1406_352" x="64.8933" y="0.127344" width="82.3785" height="146.849" filterUnits="userSpaceOnUse" color-interpolation-filters="sRGB">
<feFlood flood-opacity="0" result="BackgroundImageFix"/>
<feBlend mode="normal" in="SourceGraphic" in2="BackgroundImageFix" result="shape"/>
<feGaussianBlur stdDeviation="13.2" result="effect1_foregroundBlur_1406_352"/>
</filter>
<filter id="filter1_f_1406_352" x="153.135" y="0.836329" width="86.564" height="145.431" filterUnits="userSpaceOnUse" color-interpolation-filters="sRGB">
<feFlood flood-opacity="0" result="BackgroundImageFix"/>
<feBlend mode="normal" in="SourceGraphic" in2="BackgroundImageFix" result="shape"/>
<feGaussianBlur stdDeviation="13.2" result="effect1_foregroundBlur_1406_352"/>
</filter>
<linearGradient id="paint0_linear_1406_352" x1="50.9603" y1="55.3385" x2="46.4051" y2="38.3382" gradientUnits="userSpaceOnUse">
<stop stop-color="white"/>
<stop offset="1" stop-color="#BEBEBE"/>
</linearGradient>
<linearGradient id="paint1_linear_1406_352" x1="74.6626" y1="160.797" x2="36.4609" y2="18.2265" gradientUnits="userSpaceOnUse">
<stop stop-color="white"/>
<stop offset="1" stop-color="#EEEEEE"/>
</linearGradient>
<linearGradient id="paint2_linear_1406_352" x1="68.0615" y1="68.6699" x2="68.0615" y2="166.623" gradientUnits="userSpaceOnUse">
<stop stop-color="#D9D9D9"/>
<stop offset="1" stop-color="#D9D9D9" stop-opacity="0"/>
</linearGradient>
<linearGradient id="paint3_linear_1406_352" x1="250.04" y1="55.3385" x2="254.595" y2="38.3382" gradientUnits="userSpaceOnUse">
<stop stop-color="white"/>
<stop offset="1" stop-color="#BEBEBE"/>
</linearGradient>
<linearGradient id="paint4_linear_1406_352" x1="226.337" y1="160.797" x2="264.539" y2="18.2265" gradientUnits="userSpaceOnUse">
<stop stop-color="white"/>
<stop offset="1" stop-color="#EEEEEE"/>
</linearGradient>
<linearGradient id="paint5_linear_1406_352" x1="235.266" y1="68.7461" x2="235.266" y2="163.448" gradientUnits="userSpaceOnUse">
<stop stop-color="#D9D9D9"/>
<stop offset="1" stop-color="#D9D9D9" stop-opacity="0"/>
</linearGradient>
<linearGradient id="paint6_linear_1406_352" x1="151.44" y1="18.68" x2="151.44" y2="-0.68" gradientUnits="userSpaceOnUse">
<stop stop-color="white"/>
<stop offset="1" stop-color="#BEBEBE"/>
</linearGradient>
<linearGradient id="paint7_linear_1406_352" x1="146.6" y1="137.48" x2="146.6" y2="-24.8803" gradientUnits="userSpaceOnUse">
<stop stop-color="white"/>
<stop offset="1" stop-color="#EEEEEE"/>
</linearGradient>
<linearGradient id="paint8_linear_1406_352" x1="147" y1="50" x2="147" y2="142" gradientUnits="userSpaceOnUse">
<stop stop-color="#D9D9D9"/>
<stop offset="1" stop-color="#D9D9D9" stop-opacity="0"/>
</linearGradient>
</defs>
</svg>
