<svg width="55" height="50" viewBox="0 0 55 50" fill="none" xmlns="http://www.w3.org/2000/svg">
<path d="M31.4377 10.9395H22.9371V12.1544H31.4377V10.9395Z" fill="#27326F"/>
<path d="M21.1148 9.72702C21.1148 8.38492 22.2025 7.29909 23.5427 7.29909C24.8848 7.29909 25.9706 8.38682 25.9706 9.72702H27.1856C27.1856 8.42288 26.4984 7.28011 25.4657 6.63658C25.7542 5.61909 26.6806 4.86737 27.7911 4.86737C29.1332 4.86737 30.221 5.95509 30.221 7.29719V7.90465H31.434C32.4401 7.90465 33.2563 8.72092 33.2563 9.72702H34.4713C34.4713 8.05082 33.1121 6.69163 31.434 6.69163C31.415 6.69163 31.3998 6.69543 31.3808 6.69733C31.0923 4.97177 29.5983 3.65625 27.7911 3.65625C26.1738 3.65625 24.8032 4.71171 24.3267 6.1734C24.0742 6.11835 23.8104 6.08608 23.5408 6.08608C21.5286 6.08608 19.898 7.71672 19.898 9.72892H21.1148V9.72702Z" fill="#27326F"/>
<path d="M27.1874 17.6195V12.1543H26.5799L22.3296 21.2623H27.1874V26.7276H27.7948L32.047 17.6195H27.1874ZM24.2355 20.0493L25.9725 16.3287V18.8363H30.1392L28.4023 22.557V20.0493H24.2355Z" fill="#27326F"/>
<path d="M16.2572 30.3728H38.1181V0H16.2572V30.3728ZM17.4702 1.21491H36.9032V29.1579H17.4702V1.21491Z" fill="#27326F"/>
<path d="M7.59518 49.7607L1.54908 40.6356V49.7607H6.10352e-05V38.5664H2.06922L7.65973 47.1562V38.5664H9.20684V49.7607H7.59518Z" fill="#27326F"/>
<path d="M12.9313 38.2188C13.5312 38.2188 14.0039 38.6933 14.0039 39.2932C14.0039 39.8779 13.5312 40.3505 12.9313 40.3505C12.3466 40.3505 11.874 39.876 11.874 39.2932C11.874 38.6933 12.3466 38.2188 12.9313 38.2188ZM12.2062 42.1672H13.6736V49.7623H12.2062V42.1672Z" fill="#27326F"/>
<path d="M16.5155 49.7606V42.1674H17.9373V43.1773C18.41 42.3402 19.3572 41.9453 20.2418 41.9453C21.1891 41.9453 22.106 42.4028 22.516 43.3823C23.1159 42.2927 24.0954 41.9453 25.0578 41.9453C26.3848 41.9453 27.6794 42.8451 27.6794 44.8345V49.7606H26.2101V44.9921C26.2101 43.9974 25.7204 43.2551 24.6004 43.2551C23.5582 43.2551 22.8482 44.0752 22.8482 45.1648V49.7587H21.3637V44.9902C21.3637 44.0107 20.8892 43.2532 19.754 43.2532C18.6966 43.2532 17.9848 44.0429 17.9848 45.18V49.7587H16.5155V49.7606Z" fill="#27326F"/>
<path d="M30.3614 49.7597V38.3281H31.8288V43.239C32.1914 42.5594 33.076 41.9444 34.3384 41.9444C36.6429 41.9444 37.8275 43.7136 37.8275 45.9232C37.8275 48.1822 36.548 49.9647 34.2909 49.9647C33.1709 49.9647 32.3015 49.475 31.8288 48.6549V49.7597H30.3614ZM34.0726 43.2561C32.7628 43.2561 31.8155 44.2812 31.8155 45.9232C31.8155 47.5653 32.7628 48.6397 34.0726 48.6397C35.4299 48.6397 36.3145 47.5653 36.3145 45.9232C36.3145 44.2812 35.4451 43.2561 34.0726 43.2561Z" fill="#27326F"/>
<path d="M42.7234 49.9985C40.9542 49.9985 39.8817 48.6715 39.8817 46.9517V42.168H41.3662V46.7296C41.3662 47.7718 41.8407 48.6886 43.0879 48.6886C44.2877 48.6886 44.8875 47.8989 44.8875 46.7467V42.168H46.372V48.3564C46.372 48.9563 46.4195 49.4935 46.4517 49.7612H45.0299C44.9976 49.5884 44.9672 49.1613 44.9672 48.8462C44.5553 49.6359 43.6081 49.9985 42.7234 49.9985Z" fill="#27326F"/>
<path d="M49.8438 47.3133C49.9387 48.103 50.5386 48.7351 51.6111 48.7351C52.4483 48.7351 52.9058 48.2605 52.9058 47.7252C52.9058 47.2506 52.5584 46.8881 51.9263 46.7457L50.6316 46.4609C49.4471 46.2085 48.7371 45.4036 48.7371 44.3291C48.7371 43.0345 49.9539 41.9297 51.4365 41.9297C53.5208 41.9297 54.1681 43.287 54.3257 43.9666L53.0159 44.4563C52.9532 44.0615 52.6362 43.194 51.4365 43.194C50.6791 43.194 50.1741 43.6837 50.1741 44.2039C50.1741 44.6613 50.4589 44.9935 51.0435 45.1207L52.2755 45.3884C53.6499 45.6883 54.3751 46.5255 54.3751 47.6474C54.3751 48.7218 53.4753 49.9994 51.596 49.9994C49.5116 49.9994 48.627 48.6573 48.5017 47.7878L49.8438 47.3133Z" fill="#27326F"/>
</svg>
