<svg width="32" height="26" viewBox="0 0 32 26" fill="none" xmlns="http://www.w3.org/2000/svg">
<path d="M14.5 12.002L14 0.00195312H18L17.5 12.002H14.5Z" fill="url(#paint0_linear_1375_839)"/>
<path d="M19.1196 15.632L30 21.2891L27.8357 25.0377L17.4964 18.4435L19.1196 15.632Z" fill="url(#paint1_linear_1375_839)"/>
<path d="M16.7103 15.6361L17.0742 23.877H14.1626L14.5266 15.6361H16.7103Z" fill="url(#paint2_linear_1375_839)"/>
<path d="M13.8067 18.482L3.46729 25.0762L1.30302 21.3276L12.1835 15.6705L13.8067 18.482Z" fill="url(#paint3_linear_1375_839)"/>
<path d="M17.9842 13.2935L25.303 9.48828L23.8472 6.96677L16.8924 11.4024L17.9842 13.2935Z" fill="url(#paint4_linear_1375_839)"/>
<path d="M14.4106 11.3751L7.45581 6.93945L6.00001 9.46097L13.3188 13.2662L14.4106 11.3751Z" fill="url(#paint5_linear_1375_839)"/>
<g filter="url(#filter0_dd_1375_839)">
<path d="M9.70972 12.3398L9.70972 9.92158L3.99994 9.92158C3.99994 11.433 5.06843 12.3398 5.93659 12.3398L9.70972 12.3398Z" fill="url(#paint6_linear_1375_839)"/>
<path d="M9.70972 12.3398L9.70972 9.92158L3.99994 9.92158C3.99994 11.433 5.06843 12.3398 5.93659 12.3398L9.70972 12.3398Z" stroke="url(#paint7_linear_1375_839)" stroke-width="0.134348"/>
<path d="M11.7251 14.4902L11.7251 12.072L6.01532 12.072C6.01532 13.5834 7.08382 14.4902 7.95197 14.4902L11.7251 14.4902Z" fill="url(#paint8_linear_1375_839)"/>
<path d="M11.7251 14.4902L11.7251 12.072L6.01532 12.072C6.01532 13.5834 7.08382 14.4902 7.95197 14.4902L11.7251 14.4902Z" stroke="url(#paint9_linear_1375_839)" stroke-width="0.134348"/>
<path d="M22.2903 12.3398L22.2903 9.92158L28.0001 9.92158C28.0001 11.433 26.9316 12.3398 26.0634 12.3398L22.2903 12.3398Z" fill="url(#paint10_linear_1375_839)"/>
<path d="M22.2903 12.3398L22.2903 9.92158L28.0001 9.92158C28.0001 11.433 26.9316 12.3398 26.0634 12.3398L22.2903 12.3398Z" stroke="url(#paint11_linear_1375_839)" stroke-width="0.134348"/>
<path d="M20.2749 14.4902L20.2749 12.072L25.9847 12.072C25.9847 13.5834 24.9162 14.4902 24.048 14.4902L20.2749 14.4902Z" fill="url(#paint12_linear_1375_839)"/>
<path d="M20.2749 14.4902L20.2749 12.072L25.9847 12.072C25.9847 13.5834 24.9162 14.4902 24.048 14.4902L20.2749 14.4902Z" stroke="url(#paint13_linear_1375_839)" stroke-width="0.134348"/>
<g filter="url(#filter1_d_1375_839)">
<path d="M15.5242 5.26075L9.19951 8.70131C8.87912 8.87559 8.67969 9.21111 8.67969 9.57583L8.67969 17.4406C8.67969 17.8053 8.87912 18.1408 9.1995 18.3151L15.5242 21.7557C15.8208 21.917 16.179 21.917 16.4757 21.7557L22.8003 18.3151C23.1207 18.1408 23.3201 17.8053 23.3201 17.4406L23.3201 9.57583C23.3201 9.21111 23.1207 8.87559 22.8003 8.70131L16.4757 5.26075C16.179 5.09938 15.8208 5.09938 15.5242 5.26075Z" fill="url(#paint14_linear_1375_839)"/>
<path d="M15.5173 6.54884L10.3103 9.38138C9.99117 9.555 9.79248 9.88927 9.79248 10.2526V16.7356C9.79248 17.099 9.99116 17.4332 10.3103 17.6069L15.5173 20.4394C15.8128 20.6002 16.1697 20.6002 16.4652 20.4394L21.6722 17.6069C21.9914 17.4332 22.19 17.099 22.19 16.7356L22.19 10.2526C22.19 9.88927 21.9914 9.555 21.6722 9.38138L16.4652 6.54884C16.1697 6.38808 15.8128 6.38808 15.5173 6.54884Z" fill="url(#paint15_linear_1375_839)"/>
<g filter="url(#filter2_f_1375_839)">
<path d="M15.5173 6.54884L10.3103 9.38138C9.99117 9.555 9.79248 9.88927 9.79248 10.2526V16.7356C9.79248 17.099 9.99116 17.4332 10.3103 17.6069L15.5173 20.4394C15.8128 20.6002 16.1697 20.6002 16.4652 20.4394L21.6722 17.6069C21.9914 17.4332 22.19 17.099 22.19 16.7356L22.19 10.2526C22.19 9.88927 21.9914 9.555 21.6722 9.38138L16.4652 6.54884C16.1697 6.38808 15.8128 6.38808 15.5173 6.54884Z" stroke="url(#paint16_linear_1375_839)" stroke-width="0.0585618"/>
</g>
<g opacity="0.5">
<mask id="mask0_1375_839" style="mask-type:alpha" maskUnits="userSpaceOnUse" x="10" y="7" width="12" height="14">
<path d="M15.5786 7.11985L10.8122 9.71037C10.5085 9.87547 10.3193 10.1935 10.3193 10.5393V16.4685C10.3193 16.8143 10.5085 17.1324 10.8122 17.2975L15.5786 19.888C15.8595 20.0407 16.1987 20.0407 16.4796 19.888L21.246 17.2975C21.5498 17.1324 21.7389 16.8143 21.7389 16.4685L21.7389 10.5393C21.7389 10.1935 21.5498 9.87548 21.246 9.71037L16.4796 7.11985C16.1987 6.96717 15.8595 6.96717 15.5786 7.11985Z" fill="#A6D3DE"/>
</mask>
<g mask="url(#mask0_1375_839)">
<path d="M15.5786 7.11985L10.8122 9.71037C10.5085 9.87547 10.3193 10.1935 10.3193 10.5393V16.4685C10.3193 16.8143 10.5085 17.1324 10.8122 17.2975L15.5786 19.888C15.8595 20.0407 16.1987 20.0407 16.4796 19.888L21.246 17.2975C21.5498 17.1324 21.7389 16.8143 21.7389 16.4685L21.7389 10.5393C21.7389 10.1935 21.5498 9.87548 21.246 9.71037L16.4796 7.11985C16.1987 6.96717 15.8595 6.96717 15.5786 7.11985Z" fill="url(#paint17_radial_1375_839)"/>
<path opacity="0.5" d="M15.0747 20.3955L14.8479 6.61328H17.2106L16.9838 20.3955H15.0747Z" fill="url(#paint18_linear_1375_839)"/>
<path opacity="0.5" d="M15.0443 20.2735L7.95679 8.45117L10.0029 7.26984L16.6976 19.319L15.0443 20.2735Z" fill="url(#paint19_linear_1375_839)"/>
<path opacity="0.5" d="M14.8476 19.3187L21.5422 7.26953L23.5884 8.45086L16.5008 20.2732L14.8476 19.3187Z" fill="url(#paint20_linear_1375_839)"/>
<rect x="10.3193" y="12.7168" width="11.4196" height="7.41615" fill="url(#paint21_linear_1375_839)"/>
<g filter="url(#filter3_i_1375_839)">
<path d="M15.5786 7.11985L10.8122 9.71037C10.5085 9.87547 10.3193 10.1935 10.3193 10.5393V16.4685C10.3193 16.8143 10.5085 17.1324 10.8122 17.2975L15.5786 19.888C15.8595 20.0407 16.1987 20.0407 16.4796 19.888L21.246 17.2975C21.5498 17.1324 21.7389 16.8143 21.7389 16.4685L21.7389 10.5393C21.7389 10.1935 21.5498 9.87548 21.246 9.71037L16.4796 7.11985C16.1987 6.96717 15.8595 6.96717 15.5786 7.11985Z" fill="#6052B4" fill-opacity="0.01"/>
</g>
</g>
</g>
</g>
</g>
<g filter="url(#filter4_i_1375_839)">
<path d="M15.6413 9.11504C15.7908 8.82216 16.2092 8.82216 16.3587 9.11503L17.4056 11.1668C17.4641 11.2814 17.574 11.3612 17.7011 11.3814L19.9759 11.7431C20.3006 11.7947 20.43 12.1927 20.1976 12.4254L18.5698 14.0551C18.4788 14.1462 18.4369 14.2753 18.457 14.4024L18.8159 16.6777C18.8672 17.0025 18.5286 17.2484 18.2356 17.0993L16.1826 16.0548C16.0679 15.9965 15.9321 15.9965 15.8174 16.0548L13.7644 17.0993C13.4714 17.2484 13.1328 17.0025 13.1841 16.6777L13.543 14.4024C13.5631 14.2753 13.5212 14.1462 13.4302 14.0551L11.8024 12.4254C11.57 12.1927 11.6994 11.7947 12.0241 11.7431L14.2989 11.3814C14.426 11.3612 14.5359 11.2814 14.5944 11.1668L15.6413 9.11504Z" fill="#0B6CFF"/>
</g>
<path d="M15.6413 9.11504C15.7908 8.82216 16.2092 8.82216 16.3587 9.11503L17.4056 11.1668C17.4641 11.2814 17.574 11.3612 17.7011 11.3814L19.9759 11.7431C20.3006 11.7947 20.43 12.1927 20.1976 12.4254L18.5698 14.0551C18.4788 14.1462 18.4369 14.2753 18.457 14.4024L18.8159 16.6777C18.8672 17.0025 18.5286 17.2484 18.2356 17.0993L16.1826 16.0548C16.0679 15.9965 15.9321 15.9965 15.8174 16.0548L13.7644 17.0993C13.4714 17.2484 13.1328 17.0025 13.1841 16.6777L13.543 14.4024C13.5631 14.2753 13.5212 14.1462 13.4302 14.0551L11.8024 12.4254C11.57 12.1927 11.6994 11.7947 12.0241 11.7431L14.2989 11.3814C14.426 11.3612 14.5359 11.2814 14.5944 11.1668L15.6413 9.11504Z" fill="url(#paint22_linear_1375_839)"/>
<path d="M15.6414 9.11419C15.7909 8.82131 16.2094 8.82131 16.3588 9.11419L17.4057 11.1659C17.4643 11.2806 17.5741 11.3604 17.7012 11.3806L19.976 11.7423C20.3008 11.7939 20.4301 12.1919 20.1977 12.4245L18.5699 14.0542C18.479 14.1453 18.437 14.2744 18.4571 14.4016L18.8161 16.6768C18.8673 17.0016 18.5287 17.2476 18.2357 17.0985L16.1827 16.054C16.068 15.9956 15.9323 15.9956 15.8175 16.054L13.7645 17.0985C13.4715 17.2476 13.1329 17.0016 13.1842 16.6768L13.5432 14.4016C13.5632 14.2744 13.5213 14.1453 13.4303 14.0542L11.8025 12.4245C11.5702 12.1919 11.6995 11.7939 12.0242 11.7423L14.299 11.3806C14.4262 11.3604 14.536 11.2806 14.5945 11.1659L15.6414 9.11419Z" fill="url(#paint23_linear_1375_839)"/>
<path d="M15.6414 9.11419C15.7909 8.82131 16.2094 8.82131 16.3588 9.11419L17.4057 11.1659C17.4643 11.2806 17.5741 11.3604 17.7012 11.3806L19.976 11.7423C20.3008 11.7939 20.4301 12.1919 20.1977 12.4245L18.5699 14.0542C18.479 14.1453 18.437 14.2744 18.4571 14.4016L18.8161 16.6768C18.8673 17.0016 18.5287 17.2476 18.2357 17.0985L16.1827 16.054C16.068 15.9956 15.9323 15.9956 15.8175 16.054L13.7645 17.0985C13.4715 17.2476 13.1329 17.0016 13.1842 16.6768L13.5432 14.4016C13.5632 14.2744 13.5213 14.1453 13.4303 14.0542L11.8025 12.4245C11.5702 12.1919 11.6995 11.7939 12.0242 11.7423L14.299 11.3806C14.4262 11.3604 14.536 11.2806 14.5945 11.1659L15.6414 9.11419Z" fill="url(#paint24_radial_1375_839)"/>
<path fill-rule="evenodd" clip-rule="evenodd" d="M17.2862 11.2269L16.2392 9.1752C16.1396 8.97995 15.8606 8.97995 15.761 9.1752L14.714 11.2269C14.636 11.3798 14.4896 11.4862 14.3201 11.5131L12.0453 11.8748C11.8288 11.9092 11.7426 12.1746 11.8975 12.3297L13.5253 13.9594C13.6466 14.0808 13.7025 14.2529 13.6757 14.4225L13.3168 16.6978C13.2826 16.9143 13.5083 17.0783 13.7037 16.9789L15.7566 15.9344C15.9096 15.8565 16.0906 15.8565 16.2436 15.9344L18.2966 16.9789C18.4919 17.0783 18.7176 16.9143 18.6835 16.6978L18.3245 14.4225C18.2977 14.2529 18.3537 14.0808 18.475 13.9594L20.1027 12.3297C20.2577 12.1746 20.1714 11.9092 19.955 11.8748L17.6801 11.5131C17.5106 11.4862 17.3642 11.3798 17.2862 11.2269ZM16.3588 9.11419C16.2094 8.82131 15.7909 8.82131 15.6414 9.11419L14.5945 11.1659C14.536 11.2806 14.4262 11.3604 14.299 11.3806L12.0242 11.7423C11.6995 11.7939 11.5702 12.1919 11.8025 12.4245L13.4303 14.0542C13.5213 14.1453 13.5632 14.2744 13.5432 14.4016L13.1842 16.6768C13.1329 17.0016 13.4715 17.2476 13.7645 17.0985L15.8175 16.054C15.9323 15.9956 16.068 15.9956 16.1827 16.054L18.2357 17.0985C18.5287 17.2476 18.8673 17.0016 18.8161 16.6768L18.4571 14.4016C18.437 14.2744 18.479 14.1453 18.5699 14.0542L20.1977 12.4245C20.4301 12.1919 20.3008 11.7939 19.976 11.7423L17.7012 11.3806C17.5741 11.3604 17.4643 11.2806 17.4057 11.1659L16.3588 9.11419Z" fill="url(#paint25_linear_1375_839)"/>
<path d="M15.8256 11.1293C15.9032 10.9953 16.0966 10.9953 16.1742 11.1293L16.7874 12.1891C16.8159 12.2384 16.8639 12.2733 16.9196 12.2852L18.117 12.5409C18.2684 12.5732 18.3282 12.7572 18.2247 12.8724L17.4063 13.783C17.3682 13.8254 17.3499 13.8819 17.3558 13.9385L17.4826 15.1563C17.4987 15.3103 17.3421 15.424 17.2006 15.3612L16.0816 14.8642C16.0296 14.8411 15.9702 14.8411 15.9182 14.8642L14.7992 15.3612C14.6577 15.424 14.5011 15.3103 14.5172 15.1563L14.6441 13.9385C14.65 13.8819 14.6316 13.8254 14.5935 13.783L13.7751 12.8724C13.6716 12.7572 13.7314 12.5732 13.8828 12.5409L15.0802 12.2852C15.1359 12.2733 15.1839 12.2384 15.2125 12.1891L15.8256 11.1293Z" fill="url(#paint26_linear_1375_839)"/>
<path d="M18.5561 12.7078C16.1269 15.0033 13.9573 13.988 13.1762 13.1934C11.988 11.4276 14.5954 12.8402 16.9058 12.2222C18.7541 11.7278 18.7761 12.3399 18.5561 12.7078Z" fill="url(#paint27_linear_1375_839)"/>
<path fill-rule="evenodd" clip-rule="evenodd" d="M15.7248 9.57215C15.7744 9.59725 15.7943 9.65781 15.7692 9.70743L15.4845 10.27C15.4594 10.3196 15.3989 10.3395 15.3493 10.3144C15.2997 10.2893 15.2798 10.2287 15.3049 10.1791L15.5895 9.61653C15.6146 9.56692 15.6752 9.54705 15.7248 9.57215Z" fill="#007FBB"/>
<circle cx="12.2415" cy="12.003" r="0.100671" fill="#007FBB"/>
<circle cx="15.2618" cy="10.46" r="0.100671" fill="#007FBB"/>
<defs>
<filter id="filter0_dd_1375_839" x="0.349085" y="1.79577" width="31.3018" height="23.9039" filterUnits="userSpaceOnUse" color-interpolation-filters="sRGB">
<feFlood flood-opacity="0" result="BackgroundImageFix"/>
<feColorMatrix in="SourceAlpha" type="matrix" values="0 0 0 0 0 0 0 0 0 0 0 0 0 0 0 0 0 0 127 0" result="hardAlpha"/>
<feOffset/>
<feGaussianBlur stdDeviation="0.597296"/>
<feColorMatrix type="matrix" values="0 0 0 0 0.558594 0 0 0 0 0.710156 0 0 0 0 0.9375 0 0 0 1 0"/>
<feBlend mode="normal" in2="BackgroundImageFix" result="effect1_dropShadow_1375_839"/>
<feColorMatrix in="SourceAlpha" type="matrix" values="0 0 0 0 0 0 0 0 0 0 0 0 0 0 0 0 0 0 127 0" result="hardAlpha"/>
<feOffset dy="0.238918"/>
<feGaussianBlur stdDeviation="1.79189"/>
<feColorMatrix type="matrix" values="0 0 0 0 0.670833 0 0 0 0 0.8025 0 0 0 0 1 0 0 0 0.6 0"/>
<feBlend mode="normal" in2="effect1_dropShadow_1375_839" result="effect2_dropShadow_1375_839"/>
<feBlend mode="normal" in="SourceGraphic" in2="effect2_dropShadow_1375_839" result="shape"/>
</filter>
<filter id="filter1_d_1375_839" x="8.32832" y="5.14062" width="15.3431" height="17.5562" filterUnits="userSpaceOnUse" color-interpolation-filters="sRGB">
<feFlood flood-opacity="0" result="BackgroundImageFix"/>
<feColorMatrix in="SourceAlpha" type="matrix" values="0 0 0 0 0 0 0 0 0 0 0 0 0 0 0 0 0 0 127 0" result="hardAlpha"/>
<feOffset dy="0.468495"/>
<feGaussianBlur stdDeviation="0.175686"/>
<feColorMatrix type="matrix" values="0 0 0 0 0.141181 0 0 0 0 0.190317 0 0 0 0 0.316667 0 0 0 0.51 0"/>
<feBlend mode="normal" in2="BackgroundImageFix" result="effect1_dropShadow_1375_839"/>
<feBlend mode="normal" in="SourceGraphic" in2="effect1_dropShadow_1375_839" result="shape"/>
</filter>
<filter id="filter2_f_1375_839" x="9.74562" y="6.38087" width="12.4912" height="14.2265" filterUnits="userSpaceOnUse" color-interpolation-filters="sRGB">
<feFlood flood-opacity="0" result="BackgroundImageFix"/>
<feBlend mode="normal" in="SourceGraphic" in2="BackgroundImageFix" result="shape"/>
<feGaussianBlur stdDeviation="0.00878428" result="effect1_foregroundBlur_1375_839"/>
</filter>
<filter id="filter3_i_1375_839" x="10.3193" y="7.00586" width="11.4197" height="12.9961" filterUnits="userSpaceOnUse" color-interpolation-filters="sRGB">
<feFlood flood-opacity="0" result="BackgroundImageFix"/>
<feBlend mode="normal" in="SourceGraphic" in2="BackgroundImageFix" result="shape"/>
<feColorMatrix in="SourceAlpha" type="matrix" values="0 0 0 0 0 0 0 0 0 0 0 0 0 0 0 0 0 0 127 0" result="hardAlpha"/>
<feOffset/>
<feGaussianBlur stdDeviation="0.393778"/>
<feComposite in2="hardAlpha" operator="arithmetic" k2="-1" k3="1"/>
<feColorMatrix type="matrix" values="0 0 0 0 0.297222 0 0 0 0 0.329917 0 0 0 0 0.445833 0 0 0 1 0"/>
<feBlend mode="normal" in2="shape" result="effect1_innerShadow_1375_839"/>
</filter>
<filter id="filter4_i_1375_839" x="11.6843" y="8.22339" width="8.63135" height="8.92114" filterUnits="userSpaceOnUse" color-interpolation-filters="sRGB">
<feFlood flood-opacity="0" result="BackgroundImageFix"/>
<feBlend mode="normal" in="SourceGraphic" in2="BackgroundImageFix" result="shape"/>
<feColorMatrix in="SourceAlpha" type="matrix" values="0 0 0 0 0 0 0 0 0 0 0 0 0 0 0 0 0 0 127 0" result="hardAlpha"/>
<feOffset dy="-0.671141"/>
<feGaussianBlur stdDeviation="0.838926"/>
<feComposite in2="hardAlpha" operator="arithmetic" k2="-1" k3="1"/>
<feColorMatrix type="matrix" values="0 0 0 0 0.595833 0 0 0 0 0.83025 0 0 0 0 1 0 0 0 1 0"/>
<feBlend mode="normal" in2="shape" result="effect1_innerShadow_1375_839"/>
</filter>
<linearGradient id="paint0_linear_1375_839" x1="16" y1="0.00195313" x2="16" y2="12.002" gradientUnits="userSpaceOnUse">
<stop stop-color="white" stop-opacity="0"/>
<stop offset="0.932292" stop-color="white"/>
</linearGradient>
<linearGradient id="paint1_linear_1375_839" x1="28.9179" y1="23.1634" x2="18.3079" y2="17.0377" gradientUnits="userSpaceOnUse">
<stop offset="0.109375" stop-color="white" stop-opacity="0"/>
<stop offset="1" stop-color="white"/>
</linearGradient>
<linearGradient id="paint2_linear_1375_839" x1="15.6184" y1="23.877" x2="15.6184" y2="15.6361" gradientUnits="userSpaceOnUse">
<stop stop-color="#AACCFF" stop-opacity="0"/>
<stop offset="1" stop-color="#AACCFF" stop-opacity="0.3"/>
</linearGradient>
<linearGradient id="paint3_linear_1375_839" x1="2.38515" y1="23.2019" x2="12.9951" y2="17.0762" gradientUnits="userSpaceOnUse">
<stop offset="0.109375" stop-color="white" stop-opacity="0"/>
<stop offset="1" stop-color="white"/>
</linearGradient>
<linearGradient id="paint4_linear_1375_839" x1="24.5751" y1="8.22752" x2="17.4383" y2="12.3479" gradientUnits="userSpaceOnUse">
<stop stop-color="#AACCFF" stop-opacity="0"/>
<stop offset="1" stop-color="#AACCFF" stop-opacity="0.3"/>
</linearGradient>
<linearGradient id="paint5_linear_1375_839" x1="6.72791" y1="8.20021" x2="13.8647" y2="12.3206" gradientUnits="userSpaceOnUse">
<stop stop-color="#AACCFF" stop-opacity="0"/>
<stop offset="1" stop-color="#AACCFF" stop-opacity="0.3"/>
</linearGradient>
<linearGradient id="paint6_linear_1375_839" x1="7.49298" y1="12.3398" x2="5.44418" y2="10.291" gradientUnits="userSpaceOnUse">
<stop stop-color="#C3C5D1"/>
<stop offset="0.875" stop-color="#F9F9F9"/>
</linearGradient>
<linearGradient id="paint7_linear_1375_839" x1="4.33581" y1="9.92158" x2="6.28385" y2="12.3398" gradientUnits="userSpaceOnUse">
<stop stop-color="#F9F9F9"/>
<stop offset="0.378992" stop-color="#F9F9F9"/>
<stop offset="0.480868" stop-color="#DFDFE6"/>
<stop offset="0.729174" stop-color="#B8BAC6"/>
</linearGradient>
<linearGradient id="paint8_linear_1375_839" x1="8.9038" y1="14.188" x2="6.85499" y2="12.072" gradientUnits="userSpaceOnUse">
<stop stop-color="#C3C5D1"/>
<stop offset="0.875" stop-color="#F9F9F9"/>
</linearGradient>
<linearGradient id="paint9_linear_1375_839" x1="6.3176" y1="12.072" x2="7.3588" y2="14.188" gradientUnits="userSpaceOnUse">
<stop stop-color="#F4F4F5"/>
<stop offset="0.306027" stop-color="#F4F4F5"/>
<stop offset="0.462087" stop-color="#E8E9EC"/>
<stop offset="0.682292" stop-color="#DFDFE6"/>
<stop offset="1" stop-color="#B8BAC6"/>
</linearGradient>
<linearGradient id="paint10_linear_1375_839" x1="24.507" y1="12.3398" x2="26.5558" y2="10.291" gradientUnits="userSpaceOnUse">
<stop stop-color="#C3C5D1"/>
<stop offset="0.875" stop-color="#F9F9F9"/>
</linearGradient>
<linearGradient id="paint11_linear_1375_839" x1="27.6642" y1="9.92158" x2="25.7162" y2="12.3398" gradientUnits="userSpaceOnUse">
<stop stop-color="#F9F9F9"/>
<stop offset="0.378992" stop-color="#F9F9F9"/>
<stop offset="0.480868" stop-color="#DFDFE6"/>
<stop offset="0.729174" stop-color="#B8BAC6"/>
</linearGradient>
<linearGradient id="paint12_linear_1375_839" x1="23.0962" y1="14.188" x2="25.145" y2="12.072" gradientUnits="userSpaceOnUse">
<stop stop-color="#C3C5D1"/>
<stop offset="0.875" stop-color="#F9F9F9"/>
</linearGradient>
<linearGradient id="paint13_linear_1375_839" x1="25.6824" y1="12.072" x2="24.6412" y2="14.188" gradientUnits="userSpaceOnUse">
<stop stop-color="#F4F4F5"/>
<stop offset="0.306027" stop-color="#F4F4F5"/>
<stop offset="0.462087" stop-color="#E8E9EC"/>
<stop offset="0.682292" stop-color="#DFDFE6"/>
<stop offset="1" stop-color="#B8BAC6"/>
</linearGradient>
<linearGradient id="paint14_linear_1375_839" x1="12.9254" y1="7.05162" x2="19.5136" y2="20.1402" gradientUnits="userSpaceOnUse">
<stop stop-color="#FAFAFA"/>
<stop offset="1" stop-color="#C2C4CD"/>
</linearGradient>
<linearGradient id="paint15_linear_1375_839" x1="12.867" y1="8.13571" x2="18.5475" y2="18.6183" gradientUnits="userSpaceOnUse">
<stop stop-color="#CDCFD6"/>
<stop offset="1" stop-color="#EFEFF1"/>
</linearGradient>
<linearGradient id="paint16_linear_1375_839" x1="13.4819" y1="7.75506" x2="19.6016" y2="18.7647" gradientUnits="userSpaceOnUse">
<stop stop-color="#DDDFE2"/>
<stop offset="1" stop-color="white"/>
</linearGradient>
<radialGradient id="paint17_radial_1375_839" cx="0" cy="0" r="1" gradientUnits="userSpaceOnUse" gradientTransform="translate(16.0291 13.5039) rotate(90) scale(6.62891 5.70978)">
<stop stop-color="#F5F7FF"/>
<stop offset="1" stop-color="#B3B5C5"/>
</radialGradient>
<linearGradient id="paint18_linear_1375_839" x1="16.0292" y1="6.61328" x2="16.0292" y2="20.3955" gradientUnits="userSpaceOnUse">
<stop stop-color="white"/>
<stop offset="1" stop-color="#F2EDED" stop-opacity="0"/>
</linearGradient>
<linearGradient id="paint19_linear_1375_839" x1="8.97985" y1="7.86051" x2="15.871" y2="19.7963" gradientUnits="userSpaceOnUse">
<stop stop-color="white"/>
<stop offset="1" stop-color="#F2EDED" stop-opacity="0"/>
</linearGradient>
<linearGradient id="paint20_linear_1375_839" x1="22.5653" y1="7.8602" x2="15.6742" y2="19.796" gradientUnits="userSpaceOnUse">
<stop stop-color="white"/>
<stop offset="1" stop-color="#F2EDED" stop-opacity="0"/>
</linearGradient>
<linearGradient id="paint21_linear_1375_839" x1="16.0291" y1="15.9326" x2="15.9947" y2="19.6735" gradientUnits="userSpaceOnUse">
<stop stop-color="white" stop-opacity="0"/>
<stop offset="1" stop-color="#D0DBFF"/>
</linearGradient>
<linearGradient id="paint22_linear_1375_839" x1="16" y1="8.41211" x2="18.2483" y2="17.1034" gradientUnits="userSpaceOnUse">
<stop stop-color="#708FBE" stop-opacity="0"/>
<stop offset="1" stop-color="#72DDFF" stop-opacity="0.63"/>
</linearGradient>
<linearGradient id="paint23_linear_1375_839" x1="16.0001" y1="8.41126" x2="18.2484" y2="17.1025" gradientUnits="userSpaceOnUse">
<stop stop-color="#708FBE" stop-opacity="0"/>
<stop offset="1" stop-color="#095DDA" stop-opacity="0.63"/>
</linearGradient>
<radialGradient id="paint24_radial_1375_839" cx="0" cy="0" r="1" gradientUnits="userSpaceOnUse" gradientTransform="translate(14.8256 12.1361) rotate(52.6712) scale(5.86596)">
<stop offset="0.738765" stop-color="#9CB6DD" stop-opacity="0"/>
<stop offset="0.89825" stop-color="#C6F1FF" stop-opacity="0.37"/>
<stop offset="1" stop-color="#EFFBFF" stop-opacity="0.7"/>
</radialGradient>
<linearGradient id="paint25_linear_1375_839" x1="18.8189" y1="15.1227" x2="14.188" y2="10.928" gradientUnits="userSpaceOnUse">
<stop stop-color="#D8F6FF" stop-opacity="0.63"/>
<stop offset="0.218803" stop-color="#A0D2FF" stop-opacity="0"/>
<stop offset="0.491108" stop-color="#8DC8FF" stop-opacity="0.56"/>
<stop offset="0.733041" stop-color="#9ADBF8"/>
<stop offset="1" stop-color="white" stop-opacity="0"/>
<stop offset="1" stop-color="#BAEAFF" stop-opacity="0"/>
</linearGradient>
<linearGradient id="paint26_linear_1375_839" x1="15.9999" y1="10.8281" x2="15.9328" y2="15.2912" gradientUnits="userSpaceOnUse">
<stop stop-color="#9BE1FF"/>
<stop offset="0.277442" stop-color="#9BE1FF" stop-opacity="0.51"/>
<stop offset="1" stop-color="#CDDEE6" stop-opacity="0.15"/>
</linearGradient>
<linearGradient id="paint27_linear_1375_839" x1="15.7836" y1="12.5312" x2="15.7504" y2="14.1173" gradientUnits="userSpaceOnUse">
<stop stop-color="#C4C4C4" stop-opacity="0"/>
<stop offset="0.731853" stop-color="#DBF6FF" stop-opacity="0.46"/>
</linearGradient>
</defs>
</svg>
