<svg width="12" height="12" viewBox="0 0 12 12" fill="none" xmlns="http://www.w3.org/2000/svg">
<g clip-path="url(#clip0_1459_2917)">
<path d="M6 0C2.7 0 0 2.7 0 6C0 9.3 2.7 12 6 12C9.3 12 12 9.3 12 6C12 2.7 9.3 0 6 0ZM8.78025 5.03025L5.78025 8.03025C5.634 8.1765 5.442 8.25 5.25 8.25C5.058 8.25 4.866 8.1765 4.71975 8.03025L3.21975 6.53025C2.9265 6.237 2.9265 5.763 3.21975 5.46975C3.513 5.1765 3.987 5.1765 4.28025 5.46975L5.25 6.4395L7.71975 3.96975C8.013 3.6765 8.487 3.6765 8.78025 3.96975C9.0735 4.263 9.0735 4.737 8.78025 5.03025Z" fill="#00CC92"/>
</g>
<defs>
<clipPath id="clip0_1459_2917">
<rect width="12" height="12" fill="white"/>
</clipPath>
</defs>
</svg>
