<svg width="61" height="49" viewBox="0 0 61 49" fill="none" xmlns="http://www.w3.org/2000/svg">
<g style="mix-blend-mode:luminosity">
<path d="M49.2436 31.7465C49.1151 31.7828 47.9657 32.9556 47.4071 33.5374L46.9232 34.2813C47.6271 34.1114 49.1306 33.6811 49.514 33.3184C49.8973 32.9557 50.2969 31.8925 50.4487 31.4062L49.2436 31.7465Z" fill="url(#paint0_linear_1464_5229)"/>
<path d="M53.3873 12.0132C53.6431 11.3627 53.4493 10.4921 53.3378 9.48268C53.2065 9.42723 52.3305 10.114 52.0369 13.5801L52.0908 14.6926C51.9894 15.3574 52.347 14.6781 52.7039 14.2014C53.1589 12.9452 53.0675 12.8264 53.3873 12.0132Z" fill="url(#paint1_linear_1464_5229)"/>
<path d="M50.7504 9.23154C50.5828 9.04755 49.8704 8.26557 48.5764 7.67673L48.5764 7.67675C48.6369 7.891 48.8109 8.50696 49.7816 9.79426C49.9609 9.91714 50.8922 10.3481 51.4272 10.3995C51.5063 10.5159 51.4491 10.3065 51.4546 10.1893C51.3061 9.59512 50.918 9.41554 50.7504 9.23154Z" fill="url(#paint2_linear_1464_5229)"/>
<path fill-rule="evenodd" clip-rule="evenodd" d="M52.1679 22.0093C53.0254 15.8489 51.7529 9.90493 50.4278 6.24381L50.2939 6.28162C51.599 9.88743 52.5727 15.8716 51.7269 21.9479C50.882 28.018 48.0645 34.2127 41.4779 38.3736L41.7157 38.75C48.4388 34.5029 51.3096 28.1757 52.1679 22.0093Z" fill="url(#paint3_linear_1464_5229)"/>
<path d="M51.3251 7.67892L52.781 5.35938L52.9398 5.92176C53.1764 7.27182 52.4865 7.90039 52.2732 8.88592C52.1025 9.67434 51.6221 10.13 51.4474 10.1601L51.2555 9.17328L51.3251 7.67892Z" fill="url(#paint4_linear_1464_5229)"/>
<path fill-rule="evenodd" clip-rule="evenodd" d="M52.756 5.39957C52.4521 6.56962 52.0704 7.97134 51.8432 8.28479C51.6365 8.56991 51.5041 9.34856 51.4284 10.0609L51.4476 10.1601C51.6223 10.13 52.1028 9.67434 52.2734 8.88592C52.3454 8.55328 52.4717 8.2613 52.5983 7.96853C52.8469 7.39388 53.0968 6.81614 52.94 5.92176L52.7812 5.35938L52.756 5.39957Z" fill="url(#paint5_linear_1464_5229)"/>
<path d="M49.5339 23.2494C49.492 22.9373 49.6678 21.1296 49.761 20.2648L49.9822 20.4336C50.951 22.3287 50.6533 23.4248 50.6543 24.3499C50.6552 25.2749 51.3191 26.9091 50.8046 26.4183C50.2901 25.9274 49.5862 23.6394 49.5339 23.2494Z" fill="url(#paint6_linear_1464_5229)"/>
<path fill-rule="evenodd" clip-rule="evenodd" d="M49.7481 20.3856C49.9505 21.4043 50.2091 22.9003 50.2164 23.7202C50.2233 24.4884 50.498 25.6047 50.7697 26.3826C50.7814 26.3953 50.793 26.4073 50.8046 26.4183C51.1032 26.7032 51.0048 26.2721 50.8695 25.6792C50.7717 25.2508 50.6547 24.7379 50.6543 24.3499C50.6541 24.1827 50.6637 24.0099 50.6738 23.8278C50.7195 23.0025 50.7759 21.9862 49.9822 20.4336L49.761 20.2648C49.7568 20.3033 49.7525 20.3436 49.7481 20.3856Z" fill="url(#paint7_linear_1464_5229)"/>
<path d="M52.884 17.7074C53.2096 17.2221 54.022 16.4125 54.3875 16.0684C54.4234 16.81 54.1474 17.0614 54.0488 18.0435C53.9699 18.8292 52.8521 19.779 52.3031 20.1557C52.361 19.5418 52.5583 18.1926 52.884 17.7074Z" fill="url(#paint8_linear_1464_5229)"/>
<path fill-rule="evenodd" clip-rule="evenodd" d="M52.9172 17.6582C52.9057 17.6745 52.8947 17.6905 52.8842 17.7062C52.5586 18.1914 52.3612 19.5406 52.3033 20.1546C52.4978 20.0211 52.7636 19.8158 53.0294 19.5712C53.114 18.8858 53.0252 18.1662 52.9172 17.6582Z" fill="url(#paint9_linear_1464_5229)"/>
<path d="M53.639 12.0859C53.802 11.7622 54.4891 11.1711 54.8123 10.916C54.7438 11.6293 54.8952 12.5408 54.5171 13.6596C54.3608 14.1222 53.045 15.4439 52.3539 16.0343L52.386 15.5336C53.0848 14.5267 53.4351 12.4904 53.639 12.0859Z" fill="url(#paint10_linear_1464_5229)"/>
<path d="M50.6651 14.659C50.1474 13.9724 50.1385 12.7258 50.1987 12.1883C51.0932 13.4104 51.5636 13.3354 52.0325 14.9958L52.0602 15.9132C51.8109 15.7812 51.1828 15.3456 50.6651 14.659Z" fill="url(#paint11_linear_1464_5229)"/>
<path d="M51.6608 25.0494C52.5818 23.8871 54.4394 23.5226 55.228 23.5505C53.4747 25.636 53.1483 24.8896 52.3477 25.4337C51.7072 25.869 51.2463 26.0049 51.1763 25.9958L51.6608 25.0494Z" fill="url(#paint12_linear_1464_5229)"/>
<path d="M53.2173 22.4696C53.4596 22.2624 55.1973 21.2551 56.0359 20.7773C55.1175 22.3379 54.3535 23.4211 53.7101 23.8052C53.1954 24.1124 51.9372 25.2407 51.3724 25.7665C51.3907 25.6264 51.4534 25.2752 51.5583 24.9911C51.6893 24.636 52.9146 22.7286 53.2173 22.4696Z" fill="url(#paint13_linear_1464_5229)"/>
<path d="M48.2196 26.6847C48.7149 27.7015 48.8904 29.3676 48.9162 30.0736L48.484 31.4101C48.2148 30.6957 47.6807 29.1386 47.6975 28.6249C47.7144 28.1112 48.0526 27.1174 48.2196 26.6847Z" fill="url(#paint14_linear_1464_5229)"/>
<path d="M51.3444 27.3053C51.5042 27.052 52.2716 26.629 52.6353 26.4492C52.6006 26.9409 52.3847 28.1219 51.7982 28.9121C51.2117 29.7023 50.0881 30.195 49.5997 30.3425C49.558 30.229 49.5382 29.9609 49.7925 29.7965C50.1104 29.5911 51.1447 27.6219 51.3444 27.3053Z" fill="url(#paint15_linear_1464_5229)"/>
<path fill-rule="evenodd" clip-rule="evenodd" d="M49.6748 30.3227C50.8166 29.3253 51.997 27.5615 52.6329 26.4874C52.6338 26.4757 52.6347 26.4642 52.6355 26.4531C52.2718 26.6329 51.5045 27.0559 51.3447 27.3092C51.2948 27.3883 51.1927 27.5708 51.0626 27.8031C50.6726 28.5002 50.0312 29.6464 49.7927 29.8004C49.5384 29.9648 49.5582 30.2329 49.5999 30.3464C49.6234 30.3393 49.6484 30.3314 49.6748 30.3227Z" fill="url(#paint16_linear_1464_5229)"/>
<path d="M48.3999 35.1086C48.1741 34.9642 47.1882 34.7086 46.7234 34.5989L46.7433 34.3619C46.9447 34.3243 47.5006 34.2175 48.1125 34.0909C48.7245 33.9644 49.4793 34.6303 49.7802 34.9791C49.4142 35.0824 48.6257 35.253 48.3999 35.1086Z" fill="url(#paint17_linear_1464_5229)"/>
<path d="M50.5012 3.22754C50.3923 2.84191 49.2056 1.91627 48.6259 1.50165L48.6319 3.26381C48.7076 3.53162 48.9585 4.1952 49.3576 4.70711C49.7566 5.21902 50.2567 6.08214 50.3614 6.41884L50.5221 6.37347C50.793 5.28491 50.6373 3.70959 50.5012 3.22754Z" fill="url(#paint18_linear_1464_5229)"/>
<path fill-rule="evenodd" clip-rule="evenodd" d="M50.3848 6.29604C50.3438 5.39145 49.3273 2.94138 48.6845 1.54318C48.6644 1.52864 48.6449 1.5146 48.626 1.5011L48.632 3.26326C48.7076 3.53106 48.9586 4.19465 49.3576 4.70656C49.7567 5.21847 50.2376 6.11593 50.3423 6.45263L50.3848 6.29604Z" fill="url(#paint19_linear_1464_5229)"/>
<g filter="url(#filter0_d_1464_5229)">
<path d="M50.8575 8.01067C50.7997 7.88817 50.2502 6.73637 48.8035 5.95932C48.7643 6.29812 48.9642 7.26142 49.1764 7.8492C49.3887 8.43698 50.6885 9.49453 51.4246 10.0192C51.1865 9.14185 50.9152 8.13317 50.8575 8.01067Z" fill="url(#paint20_linear_1464_5229)"/>
<path fill-rule="evenodd" clip-rule="evenodd" d="M48.7989 6.02983C48.7996 6.00405 48.8011 5.98047 48.8035 5.95931C50.2502 6.73636 50.7997 7.88817 50.8575 8.01066C50.9105 8.12312 51.1435 8.98245 51.3655 9.80137C51.3854 9.87449 51.4051 9.94728 51.4246 10.0192C51.3686 9.9793 51.3094 9.93633 51.2477 9.89072C50.4288 8.81673 49.3824 7.06219 48.7989 6.02983Z" fill="url(#paint21_linear_1464_5229)"/>
</g>
<path fill-rule="evenodd" clip-rule="evenodd" d="M53.3423 9.52344C53.2704 9.65949 53.1955 9.82457 53.1375 10.0041C52.9831 10.4814 52.0915 14.4922 52.1439 14.8822C52.1472 14.9071 52.1517 14.9284 52.1572 14.9464C52.2281 14.8881 52.3377 14.7275 52.462 14.5452C52.5389 14.4325 52.6214 14.3115 52.7039 14.2014C52.9414 13.5454 53.03 13.1996 53.106 12.9031C53.1755 12.6318 53.2344 12.4018 53.3872 12.0132C53.5855 11.3407 53.5093 10.7818 53.4136 10.0793C53.3897 9.90427 53.3646 9.7203 53.3423 9.52344Z" fill="url(#paint22_linear_1464_5229)"/>
<path fill-rule="evenodd" clip-rule="evenodd" d="M52.3644 15.873C52.936 15.3416 53.52 14.5371 53.9141 13.3684C54.3459 12.0879 54.6284 11.3854 54.8036 11.0261C54.806 10.9896 54.8088 10.9535 54.8123 10.918C54.4891 11.1731 53.802 11.7642 53.639 12.0878C53.5738 12.2173 53.4935 12.5138 53.3917 12.8901C53.1753 13.6901 52.8612 14.8508 52.386 15.5356L52.3644 15.873Z" fill="url(#paint23_linear_1464_5229)"/>
<path fill-rule="evenodd" clip-rule="evenodd" d="M50.2062 12.2008C50.497 12.5969 50.7429 12.8561 50.9585 13.0833C51.4026 13.5513 51.7181 13.8839 52.0328 14.9986L52.0606 15.9161C52.0496 15.9103 52.0378 15.9038 52.0253 15.8968C51.2166 14.887 50.5099 13.1208 50.2062 12.2008Z" fill="url(#paint24_linear_1464_5229)"/>
<g filter="url(#filter1_d_1464_5229)">
<path d="M52.2369 16.8466C52.1197 16.8412 52.1352 16.8093 51.8091 16.765C50.6232 16.6041 49.5502 15.1557 49.2907 14.093L50.3751 14.4519C52.0032 15.0563 52.2999 16.2505 52.2369 16.8466Z" fill="url(#paint25_linear_1464_5229)"/>
<path fill-rule="evenodd" clip-rule="evenodd" d="M49.3029 14.1401C49.2987 14.1243 49.2947 14.1086 49.2909 14.093L50.3754 14.4519C52.0034 15.0563 52.3001 16.2506 52.2371 16.8467C52.2329 16.8465 52.2287 16.8462 52.2248 16.846C51.7204 16.0293 50.1551 14.7667 49.3029 14.1401Z" fill="url(#paint26_linear_1464_5229)"/>
</g>
<g filter="url(#filter2_d_1464_5229)">
<path d="M53.6083 18.426C53.8626 18.2616 55.5338 17.4967 56.3376 17.1348C55.4161 19.7082 54.0009 20.0211 53.6061 20.3639C52.7904 20.8545 52.1672 21.31 51.9823 21.3718L52.1332 20.7798C52.5189 20.0637 53.3539 18.5903 53.6083 18.426Z" fill="url(#paint27_linear_1464_5229)"/>
<path fill-rule="evenodd" clip-rule="evenodd" d="M56.3232 17.1738C55.5809 19.2177 54.5264 19.8176 53.9389 20.1518C53.7968 20.2326 53.6821 20.2979 53.6057 20.3643C53.2338 20.5879 52.9019 20.8043 52.6333 20.9794C52.3603 21.1574 52.1527 21.2927 52.035 21.3497C52.6059 20.15 54.9483 18.2057 56.3232 17.1738Z" fill="url(#paint28_linear_1464_5229)"/>
</g>
<path fill-rule="evenodd" clip-rule="evenodd" d="M51.4801 25.2384C52.5032 24.1507 54.6817 22.0573 56.0317 20.7793C55.1917 21.258 53.459 22.2624 53.2172 22.4693C52.9144 22.7283 51.6891 24.6357 51.5581 24.9908C51.5288 25.0701 51.5028 25.1547 51.4801 25.2384Z" fill="url(#paint29_linear_1464_5229)"/>
<g filter="url(#filter3_d_1464_5229)">
<path d="M51.5871 24.3757C51.9515 23.2087 51.6986 22.1081 51.5265 21.7037L51.2417 22.3335C50.0874 23.8161 50.5715 25.6263 50.9579 26.3462C51.0158 26.1756 51.2226 25.5427 51.5871 24.3757Z" fill="url(#paint30_linear_1464_5229)"/>
<path fill-rule="evenodd" clip-rule="evenodd" d="M51.5311 21.7169C51.6034 22.428 51.4587 23.6304 50.7732 25.5901C50.8364 25.8716 50.8924 26.1134 50.9424 26.3191C50.9476 26.3291 50.9527 26.3388 50.9579 26.3484C51.0157 26.1778 51.2226 25.545 51.587 24.3779C51.9482 23.2214 51.703 22.1301 51.5311 21.7169Z" fill="url(#paint31_linear_1464_5229)"/>
</g>
<path fill-rule="evenodd" clip-rule="evenodd" d="M51.2086 25.9944C52.0113 25.0142 54.092 24.0186 55.21 23.5723C54.0297 24.9708 53.5003 25.0782 53.0321 25.1732C52.811 25.218 52.6036 25.2601 52.3477 25.434C51.7709 25.8261 51.3398 25.9753 51.2086 25.9944Z" fill="url(#paint32_linear_1464_5229)"/>
<path d="M50.4116 6.28766C50.8453 7.37967 51.8478 10.5954 52.207 14.0795C52.4648 16.5802 52.6522 17.5393 52.1482 21.9612C52.029 23.0069 51.5704 25.6289 50.6893 27.7515C50.2518 29.1376 48.649 32.6302 45.7382 35.511C44.9036 36.3442 42.9305 38.1428 41.7148 38.6711" stroke="#FADA81" stroke-width="0.11131"/>
<g filter="url(#filter4_d_1464_5229)">
<path d="M50.0513 27.8487C50.0279 27.0746 50.1993 26.5636 50.1628 26.4004C49.1502 27.5249 48.5463 28.7653 48.4118 29.0057C48.3041 29.198 48.5276 30.679 48.6528 31.3955L49.9707 29.2016C50.1263 28.3191 50.0791 28.7662 50.0513 27.8487Z" fill="url(#paint33_linear_1464_5229)"/>
<path fill-rule="evenodd" clip-rule="evenodd" d="M50.0566 26.5204C50.0915 26.4803 50.1269 26.4403 50.1628 26.4004C50.1773 26.4652 50.159 26.5848 50.1332 26.7538C50.0939 27.0107 50.0372 27.3819 50.0513 27.8487C50.0653 28.3121 50.0843 28.4274 50.0796 28.5418C50.0751 28.6538 50.0477 28.7649 49.9707 29.2016L48.6838 31.3439C48.6392 30.1496 49.5064 27.8027 50.0566 26.5204Z" fill="url(#paint34_linear_1464_5229)"/>
</g>
<g filter="url(#filter5_d_1464_5229)">
<path d="M51.8173 28.8784C52.3781 28.4887 53.3512 28.5417 53.7676 28.6169C53.8281 28.8311 52.7648 29.8446 52.2257 30.3246C52.0689 30.3496 51.6145 30.4335 51.0514 30.5694C50.4883 30.7053 49.8082 30.4674 49.5385 30.3315C50.0644 30.0095 51.2565 29.2681 51.8173 28.8784Z" fill="url(#paint35_linear_1464_5229)"/>
<path fill-rule="evenodd" clip-rule="evenodd" d="M49.7308 30.416C49.6544 30.3863 49.589 30.3571 49.5382 30.3315C50.0642 30.0095 51.2563 29.2681 51.8171 28.8784C52.3779 28.4887 53.3509 28.5417 53.7673 28.6169C53.7691 28.6231 53.7699 28.6299 53.7698 28.6374C53.2509 29.101 52.0421 29.8005 49.7308 30.416Z" fill="url(#paint36_linear_1464_5229)"/>
</g>
<g filter="url(#filter6_d_1464_5229)">
<path d="M47.955 33.1237C48.5516 33.0246 50.0396 33.5085 50.709 33.7629C49.353 34.6952 49.335 34.3243 48.4705 34.5395C47.7789 34.7117 47.2739 34.1931 47.1078 33.9123C47.1416 33.6907 47.3584 33.2227 47.955 33.1237Z" fill="url(#paint37_linear_1464_5229)"/>
<path fill-rule="evenodd" clip-rule="evenodd" d="M47.1214 33.8496C48.8187 33.524 50.0681 33.628 50.699 33.771C49.7638 34.4126 49.4688 34.4305 49.0865 34.4537C48.9186 34.4639 48.7339 34.4751 48.4708 34.5406C48.4138 34.5548 48.3581 34.5642 48.3038 34.5696C48.1783 34.5611 48.0549 34.5521 47.9348 34.5426C47.5218 34.4398 47.2274 34.1151 47.1081 33.9133C47.1111 33.8938 47.1155 33.8725 47.1214 33.8496Z" fill="url(#paint38_linear_1464_5229)"/>
</g>
</g>
<g style="mix-blend-mode:luminosity">
<path d="M11.0459 31.3579C11.1745 31.3942 12.3238 32.5669 12.8824 33.1487L13.3663 33.8926C12.6625 33.7228 11.1589 33.2924 10.7756 32.9297C10.3922 32.567 9.99267 31.5038 9.84082 31.0176L11.0459 31.3579Z" fill="url(#paint39_linear_1464_5229)"/>
<path d="M6.90228 11.6265C6.64646 10.976 6.84024 10.1054 6.95176 9.09596C7.08307 9.04051 7.95903 9.72731 8.25262 13.1933L8.19871 14.3059C8.30017 14.9706 7.94258 14.2913 7.58562 13.8146C7.13069 12.5585 7.22206 12.4397 6.90228 11.6265Z" fill="url(#paint40_linear_1464_5229)"/>
<path d="M9.5389 8.84092C9.70652 8.65692 10.4189 7.87494 11.7129 7.28611L11.7129 7.28612C11.6524 7.50038 11.4784 8.11633 10.5077 9.40364C10.3284 9.52651 9.3971 9.9575 8.86212 10.0088C8.78297 10.1253 8.84017 9.91591 8.83472 9.7987C8.98323 9.20449 9.37128 9.02491 9.5389 8.84092Z" fill="url(#paint41_linear_1464_5229)"/>
<path fill-rule="evenodd" clip-rule="evenodd" d="M8.12138 21.6206C7.26389 15.4602 8.53639 9.51626 9.86154 5.85514L9.99545 5.89295C8.69031 9.49876 7.71658 15.4829 8.56237 21.5592C9.4073 27.6293 12.2248 33.824 18.8114 37.9849L18.5736 38.3613C11.8505 34.1142 8.97972 27.7871 8.12138 21.6206Z" fill="url(#paint42_linear_1464_5229)"/>
<path d="M8.96442 7.2922L7.50854 4.97266L7.34975 5.53505C7.11311 6.8851 7.8031 7.51367 8.01638 8.4992C8.18701 9.28762 8.6675 9.7433 8.84215 9.77334L9.03403 8.78656L8.96442 7.2922Z" fill="url(#paint43_linear_1464_5229)"/>
<path fill-rule="evenodd" clip-rule="evenodd" d="M7.53378 5.01286C7.83775 6.1829 8.21935 7.58462 8.4466 7.89807C8.65331 8.18319 8.78569 8.96184 8.86144 9.67414L8.84215 9.77334C8.6675 9.7433 8.18701 9.28762 8.01638 8.4992C7.94439 8.16656 7.8181 7.87458 7.69145 7.58181C7.44289 7.00716 7.19298 6.42942 7.34975 5.53505L7.50854 4.97266L7.53378 5.01286Z" fill="url(#paint44_linear_1464_5229)"/>
<path d="M10.7559 22.8627C10.7978 22.5506 10.622 20.7429 10.5288 19.878L10.3076 20.0469C9.33878 21.942 9.6365 23.0381 9.63554 23.9632C9.63458 24.8882 8.97071 26.5224 9.48522 26.0316C9.99973 25.5407 10.7036 23.2527 10.7559 22.8627Z" fill="url(#paint45_linear_1464_5229)"/>
<path fill-rule="evenodd" clip-rule="evenodd" d="M10.5417 19.9989C10.3393 21.0176 10.0807 22.5136 10.0734 23.3335C10.0665 24.1017 9.79179 25.218 9.52013 25.9958C9.5084 26.0086 9.49676 26.0205 9.48522 26.0316C9.18655 26.3165 9.28496 25.8853 9.42028 25.2925C9.51807 24.8641 9.63514 24.3512 9.63554 23.9632C9.63571 23.796 9.62613 23.6232 9.61603 23.4411C9.57026 22.6158 9.51389 21.5995 10.3076 20.0469L10.5288 19.878C10.533 19.9165 10.5373 19.9569 10.5417 19.9989Z" fill="url(#paint46_linear_1464_5229)"/>
<path d="M7.40556 17.3167C7.07992 16.8315 6.26757 16.0219 5.9021 15.6777C5.86617 16.4194 6.14216 16.6708 6.24076 17.6529C6.31964 18.4385 7.43745 19.3884 7.9865 19.7651C7.92854 19.1512 7.7312 17.8019 7.40556 17.3167Z" fill="url(#paint47_linear_1464_5229)"/>
<path fill-rule="evenodd" clip-rule="evenodd" d="M7.37256 17.2715C7.38405 17.2878 7.39508 17.3038 7.40559 17.3195C7.73123 17.8047 7.92857 19.1539 7.98653 19.7679C7.79204 19.6344 7.52618 19.429 7.26041 19.1845C7.17578 18.4991 7.2646 17.7795 7.37256 17.2715Z" fill="url(#paint48_linear_1464_5229)"/>
<path d="M6.65057 11.6991C6.4875 11.3755 5.80044 10.7844 5.47729 10.5293C5.54576 11.2426 5.3944 12.1541 5.77246 13.2729C5.92876 13.7354 7.24451 15.0572 7.93565 15.6476L7.90352 15.1469C7.20473 14.14 6.85441 12.1037 6.65057 11.6991Z" fill="url(#paint49_linear_1464_5229)"/>
<path d="M9.62447 14.2723C10.1422 13.5857 10.1511 12.339 10.0908 11.8015C9.19632 13.0237 8.72593 12.9487 8.25709 14.609L8.22935 15.5265C8.47867 15.3945 9.10675 14.9588 9.62447 14.2723Z" fill="url(#paint50_linear_1464_5229)"/>
<path d="M8.62871 24.6607C7.70773 23.4985 5.85018 23.1339 5.06157 23.1619C6.81487 25.2473 7.14129 24.5009 7.94186 25.045C8.58232 25.4803 9.04322 25.6163 9.11327 25.6071L8.62871 24.6607Z" fill="url(#paint51_linear_1464_5229)"/>
<path d="M7.07245 22.0829C6.83023 21.8757 5.0925 20.8684 4.25391 20.3906C5.17229 21.9512 5.93631 23.0344 6.57966 23.4184C7.09435 23.7257 8.35261 24.854 8.91741 25.3798C8.89914 25.2397 8.83638 24.8884 8.73153 24.6044C8.60047 24.2493 7.37522 22.3419 7.07245 22.0829Z" fill="url(#paint52_linear_1464_5229)"/>
<path d="M12.07 26.298C11.5747 27.3148 11.3992 28.9809 11.3733 29.6868L11.8056 31.0234C12.0747 30.309 12.6089 28.7519 12.592 28.2382C12.5751 27.7245 12.237 26.7307 12.07 26.298Z" fill="url(#paint53_linear_1464_5229)"/>
<path d="M8.94486 26.9186C8.78506 26.6652 8.01774 26.2423 7.65405 26.0625C7.6887 26.5542 7.90463 27.7352 8.49114 28.5254C9.07765 29.3156 10.2012 29.8082 10.6896 29.9558C10.7313 29.8423 10.7511 29.5741 10.4968 29.4098C10.1789 29.2044 9.1446 27.2352 8.94486 26.9186Z" fill="url(#paint54_linear_1464_5229)"/>
<path fill-rule="evenodd" clip-rule="evenodd" d="M10.615 29.9341C9.47318 28.9366 8.29278 27.1728 7.65692 26.0988C7.65595 26.087 7.65508 26.0755 7.6543 26.0645C8.01798 26.2443 8.78531 26.6672 8.9451 26.9205C8.99504 26.9997 9.09714 27.1821 9.22716 27.4145C9.61723 28.1115 10.2586 29.2577 10.4971 29.4118C10.7514 29.5761 10.7316 29.8442 10.6899 29.9578C10.6664 29.9507 10.6414 29.9428 10.615 29.9341Z" fill="url(#paint55_linear_1464_5229)"/>
<path d="M11.8897 34.7219C12.1155 34.5775 13.1014 34.3219 13.5661 34.2121L13.5463 33.9752C13.3448 33.9376 12.789 33.8308 12.177 33.7042C11.565 33.5777 10.8103 34.2436 10.5094 34.5924C10.8754 34.6957 11.6638 34.8663 11.8897 34.7219Z" fill="url(#paint56_linear_1464_5229)"/>
<path d="M9.7881 2.83887C9.89699 2.45323 11.0837 1.52759 11.6634 1.11298L11.6574 2.87514C11.5818 3.14294 11.3308 3.80653 10.9318 4.31844C10.5328 4.83035 10.0326 5.69347 9.92793 6.03017L9.76725 5.9848C9.49631 4.89624 9.65198 3.32092 9.7881 2.83887Z" fill="url(#paint57_linear_1464_5229)"/>
<path fill-rule="evenodd" clip-rule="evenodd" d="M9.9045 5.90737C9.94552 5.00277 10.962 2.5527 11.6048 1.15451C11.6249 1.13996 11.6444 1.12593 11.6633 1.11243L11.6573 2.87459C11.5817 3.14239 11.3307 3.80598 10.9317 4.31789C10.5327 4.8298 10.0517 5.72726 9.94704 6.06396L9.9045 5.90737Z" fill="url(#paint58_linear_1464_5229)"/>
<g filter="url(#filter7_d_1464_5229)">
<path d="M9.43209 7.6259C9.48981 7.50341 10.0394 6.3516 11.486 5.57455C11.5253 5.91335 11.3253 6.87665 11.1131 7.46443C10.9009 8.05222 9.60104 9.10976 8.86494 9.63444C9.10304 8.75709 9.37437 7.7484 9.43209 7.6259Z" fill="url(#paint59_linear_1464_5229)"/>
<path fill-rule="evenodd" clip-rule="evenodd" d="M11.4904 5.64687C11.4897 5.62115 11.4882 5.59761 11.4858 5.5765C10.0391 6.35355 9.48956 7.50536 9.43184 7.62785C9.37885 7.74031 9.14583 8.59963 8.92377 9.41856C8.90395 9.49168 8.88421 9.56447 8.86469 9.63638C8.92061 9.59652 8.97978 9.55359 9.04148 9.50802C9.86038 8.43395 10.9069 6.6792 11.4904 5.64687Z" fill="url(#paint60_linear_1464_5229)"/>
</g>
<path fill-rule="evenodd" clip-rule="evenodd" d="M6.94775 9.13281C7.0196 9.26886 7.0945 9.43395 7.15256 9.61345C7.30693 10.0908 8.1985 14.1016 8.14619 14.4916C8.14285 14.5165 8.13835 14.5378 8.13283 14.5558C8.06198 14.4975 7.95238 14.3368 7.82805 14.1546C7.75117 14.0419 7.66865 13.9209 7.58617 13.8107C7.34861 13.1548 7.26002 12.809 7.18406 12.5125C7.11455 12.2412 7.05563 12.0112 6.90283 11.6226C6.70458 10.9501 6.78075 10.3912 6.87648 9.68871C6.90034 9.51365 6.92541 9.32968 6.94775 9.13281Z" fill="url(#paint61_linear_1464_5229)"/>
<path fill-rule="evenodd" clip-rule="evenodd" d="M7.92493 15.4843C7.35333 14.9529 6.76931 14.1484 6.37521 12.9797C5.94341 11.6992 5.66089 10.9967 5.48574 10.6375C5.48333 10.6009 5.48046 10.5649 5.47705 10.5293C5.8002 10.7844 6.48726 11.3755 6.65033 11.6991C6.71555 11.8286 6.79577 12.1251 6.8976 12.5015C7.11402 13.3014 7.42807 14.4622 7.90328 15.1469L7.92493 15.4843Z" fill="url(#paint62_linear_1464_5229)"/>
<path fill-rule="evenodd" clip-rule="evenodd" d="M10.0836 11.8102C9.79277 12.2063 9.54687 12.4655 9.33128 12.6927C8.88722 13.1607 8.57174 13.4932 8.25695 14.608L8.2292 15.5255C8.24023 15.5196 8.252 15.5132 8.26447 15.5062C9.07319 14.4964 9.77993 12.7302 10.0836 11.8102Z" fill="url(#paint63_linear_1464_5229)"/>
<g filter="url(#filter8_d_1464_5229)">
<path d="M8.05239 16.4638C8.16959 16.4584 8.15409 16.4265 8.48025 16.3822C9.66609 16.2213 10.7391 14.7729 10.9986 13.7102L9.91417 14.0691C8.28615 14.6735 7.98939 15.8677 8.05239 16.4638Z" fill="url(#paint64_linear_1464_5229)"/>
<path fill-rule="evenodd" clip-rule="evenodd" d="M10.9868 13.753C10.9909 13.7373 10.9949 13.7218 10.9986 13.7063L9.91417 14.0652C8.28616 14.6696 7.9894 15.8638 8.0524 16.4599C8.05661 16.4597 8.06064 16.4595 8.06453 16.4593C8.56879 15.6426 10.1344 14.3796 10.9868 13.753Z" fill="url(#paint65_linear_1464_5229)"/>
</g>
<g filter="url(#filter9_d_1464_5229)">
<path d="M6.68104 18.0373C6.42673 17.8729 4.75549 17.108 3.95166 16.7461C4.87318 19.3196 6.28845 19.6325 6.68322 19.9753C7.49891 20.4658 8.1221 20.9213 8.30704 20.9832L8.15614 20.3912C7.7704 19.675 6.93536 18.2016 6.68104 18.0373Z" fill="url(#paint66_linear_1464_5229)"/>
<path fill-rule="evenodd" clip-rule="evenodd" d="M3.96606 16.7832C4.70843 18.8271 5.7629 19.4269 6.35045 19.7612C6.49246 19.842 6.6072 19.9072 6.68365 19.9736C7.05554 20.1973 7.38741 20.4137 7.65599 20.5888C7.92898 20.7667 8.13658 20.9021 8.2543 20.9591C7.68339 19.7594 5.341 17.815 3.96606 16.7832Z" fill="url(#paint67_linear_1464_5229)"/>
</g>
<path fill-rule="evenodd" clip-rule="evenodd" d="M8.80941 24.8517C7.78638 23.7639 5.60782 21.6706 4.25781 20.3926C5.0979 20.8712 6.83055 21.8757 7.07239 22.0826C7.37516 22.3416 8.60042 24.249 8.73148 24.6041C8.76075 24.6834 8.78675 24.7679 8.80941 24.8517Z" fill="url(#paint68_linear_1464_5229)"/>
<g filter="url(#filter10_d_1464_5229)">
<path d="M8.70297 23.987C8.33852 22.82 8.59147 21.7194 8.7635 21.315L9.0483 21.9448C10.2027 23.4274 9.7185 25.2377 9.33212 25.9575C9.27426 25.7869 9.06742 25.1541 8.70297 23.987Z" fill="url(#paint69_linear_1464_5229)"/>
<path fill-rule="evenodd" clip-rule="evenodd" d="M8.75891 21.3263C8.68664 22.0374 8.83133 23.2398 9.51688 25.1995C9.45365 25.481 9.39764 25.7228 9.34761 25.9285C9.34245 25.9384 9.3373 25.9482 9.33217 25.9577C9.27431 25.7872 9.06748 25.1543 8.70303 23.9873C8.34185 22.8308 8.58704 21.7394 8.75891 21.3263Z" fill="url(#paint70_linear_1464_5229)"/>
</g>
<path fill-rule="evenodd" clip-rule="evenodd" d="M9.08097 25.6057C8.27829 24.6255 6.19751 23.6299 5.07959 23.1836C6.25984 24.5822 6.78922 24.6896 7.25744 24.7845C7.47852 24.8294 7.68596 24.8715 7.94184 25.0454C8.51863 25.4374 8.94978 25.5866 9.08097 25.6057Z" fill="url(#paint71_linear_1464_5229)"/>
<path d="M9.87793 5.90094C9.44428 6.99295 8.44179 10.2087 8.08255 13.6928C7.82471 16.1935 7.63736 17.1526 8.14133 21.5744C8.26051 22.6202 8.71916 25.2422 9.60029 27.3647C10.0378 28.7509 11.6405 32.2435 14.5514 35.1242C15.386 35.9575 17.3591 37.7561 18.5747 38.2844" stroke="#FADA81" stroke-width="0.11131"/>
<g filter="url(#filter11_d_1464_5229)">
<path d="M10.2385 27.4581C10.2619 26.684 10.0905 26.173 10.127 26.0098C11.1396 27.1342 11.7435 28.3747 11.878 28.6151C11.9857 28.8074 11.7622 30.2884 11.637 31.0048L10.3191 28.811C10.1635 27.9285 10.2107 28.3756 10.2385 27.4581Z" fill="url(#paint72_linear_1464_5229)"/>
<path fill-rule="evenodd" clip-rule="evenodd" d="M10.2332 26.1298C10.1983 26.0897 10.1629 26.0496 10.127 26.0098C10.1125 26.0745 10.1308 26.1941 10.1566 26.3632C10.1959 26.6201 10.2526 26.9913 10.2385 27.4581C10.2244 27.9215 10.2055 28.0368 10.2101 28.1511C10.2147 28.2632 10.2421 28.3742 10.3191 28.811L11.606 30.9532C11.6506 29.759 10.7834 27.4121 10.2332 26.1298Z" fill="url(#paint73_linear_1464_5229)"/>
</g>
<g filter="url(#filter12_d_1464_5229)">
<path d="M8.47223 28.4898C7.91142 28.1001 6.93839 28.153 6.52198 28.2282C6.46149 28.4425 7.52471 29.4559 8.06388 29.9359C8.22068 29.9609 8.67504 30.0449 9.23812 30.1807C9.8012 30.3166 10.4814 30.0788 10.7511 29.9429C10.2251 29.6209 9.03303 28.8794 8.47223 28.4898Z" fill="url(#paint74_linear_1464_5229)"/>
<path fill-rule="evenodd" clip-rule="evenodd" d="M10.5591 30.0272C10.6354 29.9976 10.7006 29.9684 10.7513 29.9429C10.2254 29.6209 9.03328 28.8794 8.47247 28.4897C7.91166 28.1001 6.93864 28.153 6.52223 28.2282C6.5205 28.2343 6.51969 28.241 6.51975 28.2484C7.03866 28.7121 8.24755 29.4116 10.5591 30.0272Z" fill="url(#paint75_linear_1464_5229)"/>
</g>
<g filter="url(#filter13_d_1464_5229)">
<path d="M12.3348 32.7369C11.7382 32.6379 10.2502 33.1218 9.58077 33.3762C10.9368 34.3085 10.9548 33.9376 11.8193 34.1528C12.5109 34.325 13.0159 33.8064 13.182 33.5256C13.1482 33.304 12.9314 32.836 12.3348 32.7369Z" fill="url(#paint76_linear_1464_5229)"/>
<path fill-rule="evenodd" clip-rule="evenodd" d="M13.1682 33.4609C11.4708 33.1354 10.2215 33.2393 9.5906 33.3823C10.5257 34.0239 10.8208 34.0418 11.203 34.065C11.3709 34.0752 11.5556 34.0864 11.8188 34.1519C11.8757 34.1661 11.9314 34.1756 11.9857 34.1809C12.1113 34.1724 12.2346 34.1634 12.3547 34.1539C12.7677 34.0511 13.0621 33.7265 13.1815 33.5246C13.1785 33.5052 13.1741 33.4838 13.1682 33.4609Z" fill="url(#paint77_linear_1464_5229)"/>
</g>
</g>
<g filter="url(#filter14_i_1464_5229)">
<path d="M30.1187 33.7488C30.2571 33.4775 30.6447 33.4775 30.7832 33.7488L31.7529 35.6492C31.8071 35.7554 31.9088 35.8293 32.0266 35.848L34.1337 36.1831C34.4345 36.2309 34.5543 36.5995 34.339 36.815L32.8313 38.3246C32.747 38.409 32.7082 38.5285 32.7267 38.6463L33.0592 40.7538C33.1067 41.0546 32.7931 41.2825 32.5217 41.1444L30.6201 40.1769C30.5138 40.1228 30.3881 40.1228 30.2818 40.1769L28.3802 41.1444C28.1087 41.2825 27.7951 41.0546 27.8426 40.7538L28.1751 38.6463C28.1937 38.5285 28.1549 38.409 28.0706 38.3246L26.5628 36.815C26.3476 36.5995 26.4674 36.2309 26.7682 36.1831L28.8753 35.848C28.993 35.8293 29.0947 35.7554 29.1489 35.6492L30.1187 33.7488Z" fill="#43628F"/>
</g>
<path d="M30.1187 33.7488C30.2571 33.4775 30.6447 33.4775 30.7832 33.7488L31.7529 35.6492C31.8071 35.7554 31.9088 35.8293 32.0266 35.848L34.1337 36.1831C34.4345 36.2309 34.5543 36.5995 34.339 36.815L32.8313 38.3246C32.747 38.409 32.7082 38.5285 32.7267 38.6463L33.0592 40.7538C33.1067 41.0546 32.7931 41.2825 32.5217 41.1444L30.6201 40.1769C30.5138 40.1228 30.3881 40.1228 30.2818 40.1769L28.3802 41.1444C28.1087 41.2825 27.7951 41.0546 27.8426 40.7538L28.1751 38.6463C28.1937 38.5285 28.1549 38.409 28.0706 38.3246L26.5628 36.815C26.3476 36.5995 26.4674 36.2309 26.7682 36.1831L28.8753 35.848C28.993 35.8293 29.0947 35.7554 29.1489 35.6492L30.1187 33.7488Z" fill="url(#paint78_linear_1464_5229)"/>
<path d="M30.1187 33.7484C30.2571 33.4771 30.6448 33.4771 30.7832 33.7484L31.7529 35.6488C31.8071 35.755 31.9089 35.8289 32.0266 35.8477L34.1337 36.1827C34.4345 36.2305 34.5543 36.5992 34.3391 36.8146L32.8313 38.3242C32.747 38.4086 32.7082 38.5281 32.7268 38.6459L33.0593 40.7534C33.1067 41.0543 32.7931 41.2821 32.5217 41.144L30.6201 40.1765C30.5138 40.1224 30.3881 40.1224 30.2818 40.1765L28.3802 41.144C28.1088 41.2821 27.7952 41.0543 27.8426 40.7534L28.1751 38.6459C28.1937 38.5281 28.1549 38.4086 28.0706 38.3242L26.5628 36.8146C26.3476 36.5992 26.4674 36.2305 26.7682 36.1827L28.8753 35.8477C28.9931 35.8289 29.0948 35.755 29.149 35.6488L30.1187 33.7484Z" fill="url(#paint79_linear_1464_5229)"/>
<path d="M30.1187 33.7484C30.2571 33.4771 30.6448 33.4771 30.7832 33.7484L31.7529 35.6488C31.8071 35.755 31.9089 35.8289 32.0266 35.8477L34.1337 36.1827C34.4345 36.2305 34.5543 36.5992 34.3391 36.8146L32.8313 38.3242C32.747 38.4086 32.7082 38.5281 32.7268 38.6459L33.0593 40.7534C33.1067 41.0543 32.7931 41.2821 32.5217 41.144L30.6201 40.1765C30.5138 40.1224 30.3881 40.1224 30.2818 40.1765L28.3802 41.144C28.1088 41.2821 27.7952 41.0543 27.8426 40.7534L28.1751 38.6459C28.1937 38.5281 28.1549 38.4086 28.0706 38.3242L26.5628 36.8146C26.3476 36.5992 26.4674 36.2305 26.7682 36.1827L28.8753 35.8477C28.9931 35.8289 29.0948 35.755 29.149 35.6488L30.1187 33.7484Z" fill="url(#paint80_radial_1464_5229)"/>
<path fill-rule="evenodd" clip-rule="evenodd" d="M31.6422 35.7053L30.6724 33.8049C30.5802 33.624 30.3217 33.624 30.2295 33.8049L29.2597 35.7053C29.1874 35.847 29.0518 35.9455 28.8948 35.9705L26.7877 36.3055C26.5872 36.3374 26.5073 36.5831 26.6508 36.7268L28.1586 38.2363C28.2709 38.3488 28.3227 38.5083 28.298 38.6653L27.9654 40.7728C27.9338 40.9734 28.1429 41.1253 28.3238 41.0332L30.2254 40.0657C30.3671 39.9936 30.5348 39.9936 30.6765 40.0657L32.5781 41.0332C32.759 41.1253 32.9681 40.9734 32.9365 40.7728L32.604 38.6653C32.5792 38.5083 32.631 38.3488 32.7433 38.2363L34.2511 36.7268C34.3946 36.5831 34.3147 36.3374 34.1142 36.3055L32.0071 35.9705C31.8501 35.9455 31.7145 35.847 31.6422 35.7053ZM30.7832 33.7484C30.6448 33.4771 30.2571 33.4771 30.1187 33.7484L29.149 35.6488C29.0948 35.755 28.9931 35.8289 28.8753 35.8477L26.7682 36.1827C26.4674 36.2305 26.3476 36.5992 26.5628 36.8146L28.0706 38.3242C28.1549 38.4086 28.1937 38.5281 28.1751 38.6459L27.8426 40.7534C27.7952 41.0543 28.1088 41.2821 28.3802 41.144L30.2818 40.1765C30.3881 40.1224 30.5138 40.1224 30.6201 40.1765L32.5217 41.144C32.7931 41.2821 33.1067 41.0543 33.0593 40.7534L32.7268 38.6459C32.7082 38.5281 32.747 38.4086 32.8313 38.3242L34.3391 36.8146C34.5543 36.5992 34.4345 36.2305 34.1337 36.1827L32.0266 35.8477C31.9089 35.8289 31.8071 35.755 31.7529 35.6488L30.7832 33.7484Z" fill="url(#paint81_linear_1464_5229)"/>
<path d="M30.2893 35.6149C30.3611 35.4908 30.5404 35.4908 30.6122 35.6149L31.1801 36.5966C31.2066 36.6423 31.2511 36.6746 31.3026 36.6856L32.4118 36.9224C32.552 36.9524 32.6074 37.1228 32.5115 37.2295L31.7534 38.073C31.7182 38.1122 31.7012 38.1645 31.7066 38.217L31.8241 39.345C31.839 39.4876 31.694 39.593 31.563 39.5348L30.5265 39.0744C30.4783 39.053 30.4233 39.053 30.3751 39.0744L29.3386 39.5348C29.2075 39.593 29.0625 39.4876 29.0774 39.345L29.1949 38.217C29.2003 38.1645 29.1833 38.1122 29.1481 38.073L28.39 37.2295C28.2941 37.1228 28.3495 36.9524 28.4897 36.9224L29.5989 36.6856C29.6504 36.6746 29.6949 36.6423 29.7214 36.5966L30.2893 35.6149Z" fill="url(#paint82_linear_1464_5229)"/>
<path d="M32.8187 37.0763C30.5686 39.2026 28.559 38.2621 27.8355 37.5261C26.7349 35.8905 29.1501 37.199 31.2901 36.6265C33.0021 36.1685 33.0225 36.7356 32.8187 37.0763Z" fill="url(#paint83_linear_1464_5229)"/>
<path fill-rule="evenodd" clip-rule="evenodd" d="M30.1962 34.1721C30.2421 34.1954 30.2605 34.2515 30.2373 34.2974L29.9736 34.8185C29.9504 34.8645 29.8943 34.8829 29.8483 34.8596C29.8024 34.8364 29.784 34.7803 29.8072 34.7343L30.0709 34.2132C30.0941 34.1673 30.1502 34.1489 30.1962 34.1721Z" fill="#93D6F6"/>
<ellipse cx="26.9697" cy="36.4214" rx="0.0932486" ry="0.0932487" fill="#93D6F6"/>
<ellipse cx="29.7673" cy="34.9917" rx="0.0932486" ry="0.0932487" fill="#93D6F6"/>
<path d="M29.5605 35.9548C28.8532 36.9568 29.106 37.5023 29.3208 37.6498C29.9731 37.9442 31.1618 36.2068 31.2423 35.7471C31.3227 35.2873 30.4447 34.7025 29.5605 35.9548Z" fill="url(#paint84_linear_1464_5229)" fill-opacity="0.6"/>
<g filter="url(#filter15_i_1464_5229)">
<path d="M45.9524 39.188C46.2328 39.0691 46.5298 39.3183 46.4614 39.6151L45.9827 41.6943C45.956 41.8105 45.9864 41.9325 46.0646 42.0225L47.4634 43.6336C47.663 43.8635 47.5178 44.2229 47.2144 44.2497L45.0891 44.4369C44.9703 44.4473 44.8637 44.514 44.8022 44.6161L43.7023 46.4443C43.5452 46.7053 43.1586 46.6782 43.0394 46.398L42.2046 44.4345C42.1579 44.3247 42.0616 44.2439 41.9454 44.217L39.8668 43.7359C39.5701 43.6672 39.4764 43.2911 39.7061 43.0911L41.3155 41.6904C41.4054 41.6121 41.4525 41.4956 41.4422 41.3768L41.2575 39.2512C41.2312 38.9478 41.5599 38.7424 41.821 38.8991L43.6505 39.9969C43.7528 40.0582 43.8782 40.067 43.988 40.0205L45.9524 39.188Z" fill="#43628F"/>
</g>
<path d="M45.9524 39.188C46.2328 39.0691 46.5298 39.3183 46.4614 39.6151L45.9827 41.6943C45.956 41.8105 45.9864 41.9325 46.0646 42.0225L47.4634 43.6336C47.663 43.8635 47.5178 44.2229 47.2144 44.2497L45.0891 44.4369C44.9703 44.4473 44.8637 44.514 44.8022 44.6161L43.7023 46.4443C43.5452 46.7053 43.1586 46.6782 43.0394 46.398L42.2046 44.4345C42.1579 44.3247 42.0616 44.2439 41.9454 44.217L39.8668 43.7359C39.5701 43.6672 39.4764 43.2911 39.7061 43.0911L41.3155 41.6904C41.4054 41.6121 41.4525 41.4956 41.4422 41.3768L41.2575 39.2512C41.2312 38.9478 41.5599 38.7424 41.821 38.8991L43.6505 39.9969C43.7528 40.0582 43.8782 40.067 43.988 40.0205L45.9524 39.188Z" fill="url(#paint85_linear_1464_5229)"/>
<path d="M45.9524 39.1877C46.2328 39.0688 46.5298 39.318 46.4614 39.6148L45.9827 41.694C45.956 41.8102 45.9864 41.9322 46.0646 42.0222L47.4634 43.6333C47.663 43.8632 47.5178 44.2226 47.2144 44.2494L45.0891 44.4366C44.9703 44.447 44.8637 44.5137 44.8022 44.6158L43.7023 46.444C43.5453 46.705 43.1586 46.6779 43.0394 46.3977L42.2046 44.4342C42.1579 44.3245 42.0616 44.2437 41.9454 44.2168L39.8668 43.7356C39.5701 43.6669 39.4764 43.2908 39.7061 43.0908L41.3155 41.6901C41.4054 41.6118 41.4525 41.4953 41.4422 41.3765L41.2575 39.2509C41.2312 38.9475 41.5599 38.7421 41.821 38.8988L43.6505 39.9966C43.7528 40.0579 43.8782 40.0667 43.988 40.0202L45.9524 39.1877Z" fill="url(#paint86_linear_1464_5229)"/>
<path d="M45.9524 39.1877C46.2328 39.0688 46.5298 39.318 46.4614 39.6148L45.9827 41.694C45.956 41.8102 45.9864 41.9322 46.0646 42.0222L47.4634 43.6333C47.663 43.8632 47.5178 44.2226 47.2144 44.2494L45.0891 44.4366C44.9703 44.447 44.8637 44.5137 44.8022 44.6158L43.7023 46.444C43.5453 46.705 43.1586 46.6779 43.0394 46.3977L42.2046 44.4342C42.1579 44.3245 42.0616 44.2437 41.9454 44.2168L39.8668 43.7356C39.5701 43.6669 39.4764 43.2908 39.7061 43.0908L41.3155 41.6901C41.4054 41.6118 41.4525 41.4953 41.4422 41.3765L41.2575 39.2509C41.2312 38.9475 41.5599 38.7421 41.821 38.8988L43.6505 39.9966C43.7528 40.0579 43.8782 40.0667 43.988 40.0202L45.9524 39.1877Z" fill="url(#paint87_radial_1464_5229)"/>
<path fill-rule="evenodd" clip-rule="evenodd" d="M45.8616 41.6661L46.3403 39.5869C46.3858 39.389 46.1879 39.2229 46.0009 39.3022L44.0365 40.1346C43.8901 40.1967 43.7229 40.185 43.5865 40.1032L41.7571 39.0054C41.583 38.9009 41.3638 39.0379 41.3814 39.2401L41.5661 41.3657C41.5798 41.5241 41.517 41.6795 41.3971 41.7839L39.7877 43.1846C39.6346 43.3179 39.6971 43.5687 39.8949 43.6144L41.9735 44.0956C42.1284 44.1315 42.2568 44.2392 42.319 44.3855L43.1538 46.349C43.2333 46.5359 43.4911 46.5539 43.5957 46.3799L44.6957 44.5517C44.7777 44.4155 44.9198 44.3267 45.0782 44.3127L47.2035 44.1255C47.4058 44.1077 47.5026 43.8681 47.3695 43.7148L45.9707 42.1037C45.8665 41.9837 45.8259 41.821 45.8616 41.6661ZM46.4614 39.6148C46.5298 39.318 46.2328 39.0688 45.9524 39.1877L43.988 40.0202C43.8782 40.0667 43.7528 40.0579 43.6505 39.9966L41.821 38.8988C41.5599 38.7421 41.2312 38.9475 41.2575 39.2509L41.4422 41.3765C41.4525 41.4953 41.4054 41.6118 41.3155 41.6901L39.7061 43.0908C39.4764 43.2908 39.5701 43.6669 39.8668 43.7356L41.9454 44.2168C42.0616 44.2437 42.1579 44.3245 42.2046 44.4342L43.0394 46.3977C43.1586 46.6779 43.5453 46.705 43.7023 46.444L44.8022 44.6158C44.8637 44.5137 44.9703 44.447 45.0891 44.4366L47.2144 44.2494C47.5178 44.2226 47.663 43.8632 47.4634 43.6333L46.0646 42.0222C45.9864 41.9322 45.956 41.8102 45.9827 41.694L46.4614 39.6148Z" fill="url(#paint88_linear_1464_5229)"/>
<path d="M44.884 40.7285C45.0188 40.6796 45.156 40.7947 45.1313 40.936L44.9354 42.0531C44.9262 42.105 44.9396 42.1584 44.972 42.2L45.6694 43.0943C45.7576 43.2074 45.6905 43.3736 45.5485 43.3937L44.4255 43.5526C44.3733 43.5599 44.3267 43.5891 44.2971 43.6328L43.6621 44.5724C43.5818 44.6913 43.403 44.6788 43.34 44.5499L42.8419 43.531C42.8187 43.4836 42.7766 43.4483 42.7259 43.4337L41.636 43.1201C41.4982 43.0804 41.4548 42.9066 41.5579 42.8068L42.373 42.0183C42.4109 41.9816 42.4315 41.9306 42.4297 41.8779L42.3912 40.7444C42.3863 40.6011 42.5383 40.5061 42.665 40.5733L43.6668 41.1048C43.7134 41.1296 43.7683 41.1334 43.8179 41.1154L44.884 40.7285Z" fill="url(#paint89_linear_1464_5229)"/>
<path d="M45.882 43.4711C42.7916 43.6536 41.8567 41.6415 41.7755 40.6126C41.9838 38.6522 42.9928 41.207 45.0001 42.144C46.606 42.8937 46.2572 43.3411 45.882 43.4711Z" fill="url(#paint90_linear_1464_5229)"/>
<path fill-rule="evenodd" clip-rule="evenodd" d="M45.7395 39.561C45.7598 39.6083 45.7378 39.6631 45.6905 39.6834L45.1535 39.9131C45.1062 39.9334 45.0514 39.9114 45.0311 39.8641C45.0109 39.8167 45.0328 39.7619 45.0802 39.7416L45.6171 39.5119C45.6645 39.4917 45.7193 39.5136 45.7395 39.561Z" fill="#93D6F6"/>
<ellipse cx="41.8208" cy="39.2134" rx="0.0932486" ry="0.0932486" transform="rotate(40 41.8208 39.2134)" fill="#93D6F6"/>
<ellipse cx="44.8828" cy="39.9146" rx="0.0932486" ry="0.0932486" transform="rotate(40 44.8828 39.9146)" fill="#93D6F6"/>
<path d="M44.1055 40.5219C42.9196 40.8348 42.7626 41.4151 42.8323 41.6662C43.1428 42.3111 45.1702 41.7443 45.5273 41.4438C45.8845 41.1433 45.5878 40.1309 44.1055 40.5219Z" fill="url(#paint91_linear_1464_5229)" fill-opacity="0.6"/>
<g filter="url(#filter16_i_1464_5229)">
<path d="M14.3031 39.6279C14.2348 39.3311 14.5317 39.082 14.8122 39.2008L16.7766 40.0333C16.8864 40.0798 17.0118 40.0711 17.1141 40.0097L18.9436 38.9119C19.2047 38.7552 19.5334 38.9606 19.5071 39.264L19.3224 41.3896C19.3121 41.5084 19.3592 41.625 19.4491 41.7033L21.0585 43.104C21.2882 43.3039 21.1945 43.68 20.8977 43.7487L18.8191 44.2299C18.703 44.2568 18.6067 44.3376 18.56 44.4473L17.7252 46.4108C17.606 46.6911 17.2193 46.7181 17.0623 46.4572L15.9624 44.629C15.9009 44.5268 15.7943 44.4602 15.6755 44.4497L13.5501 44.2625C13.2468 44.2358 13.1015 43.8764 13.3012 43.6464L14.7 42.0353C14.7782 41.9453 14.8086 41.8233 14.7818 41.7071L14.3031 39.6279Z" fill="#43628F"/>
</g>
<path d="M14.3031 39.6279C14.2348 39.3311 14.5317 39.082 14.8122 39.2008L16.7766 40.0333C16.8864 40.0798 17.0118 40.0711 17.1141 40.0097L18.9436 38.9119C19.2047 38.7552 19.5334 38.9606 19.5071 39.264L19.3224 41.3896C19.3121 41.5084 19.3592 41.625 19.4491 41.7033L21.0585 43.104C21.2882 43.3039 21.1945 43.68 20.8977 43.7487L18.8191 44.2299C18.703 44.2568 18.6067 44.3376 18.56 44.4473L17.7252 46.4108C17.606 46.6911 17.2193 46.7181 17.0623 46.4572L15.9624 44.629C15.9009 44.5268 15.7943 44.4602 15.6755 44.4497L13.5501 44.2625C13.2468 44.2358 13.1015 43.8764 13.3012 43.6464L14.7 42.0353C14.7782 41.9453 14.8086 41.8233 14.7818 41.7071L14.3031 39.6279Z" fill="url(#paint92_linear_1464_5229)"/>
<path d="M14.3033 39.6279C14.235 39.3312 14.5319 39.082 14.8124 39.2008L16.7768 40.0333C16.8866 40.0798 17.012 40.0711 17.1143 40.0097L18.9438 38.9119C19.2049 38.7552 19.5336 38.9606 19.5073 39.2641L19.3226 41.3896C19.3123 41.5084 19.3594 41.625 19.4493 41.7033L21.0587 43.104C21.2884 43.3039 21.1947 43.68 20.898 43.7487L18.8193 44.2299C18.7032 44.2568 18.6069 44.3376 18.5602 44.4473L17.7254 46.4108C17.6062 46.6911 17.2195 46.7181 17.0625 46.4572L15.9626 44.629C15.9011 44.5268 15.7945 44.4602 15.6757 44.4497L13.5503 44.2625C13.247 44.2358 13.1018 43.8764 13.3014 43.6464L14.7002 42.0354C14.7784 41.9453 14.8088 41.8233 14.7821 41.7071L14.3033 39.6279Z" fill="url(#paint93_linear_1464_5229)"/>
<path d="M14.3033 39.6279C14.235 39.3312 14.5319 39.082 14.8124 39.2008L16.7768 40.0333C16.8866 40.0798 17.012 40.0711 17.1143 40.0097L18.9438 38.9119C19.2049 38.7552 19.5336 38.9606 19.5073 39.2641L19.3226 41.3896C19.3123 41.5084 19.3594 41.625 19.4493 41.7033L21.0587 43.104C21.2884 43.3039 21.1947 43.68 20.898 43.7487L18.8193 44.2299C18.7032 44.2568 18.6069 44.3376 18.5602 44.4473L17.7254 46.4108C17.6062 46.6911 17.2195 46.7181 17.0625 46.4572L15.9626 44.629C15.9011 44.5268 15.7945 44.4602 15.6757 44.4497L13.5503 44.2625C13.247 44.2358 13.1018 43.8764 13.3014 43.6464L14.7002 42.0354C14.7784 41.9453 14.8088 41.8233 14.7821 41.7071L14.3033 39.6279Z" fill="url(#paint94_radial_1464_5229)"/>
<path fill-rule="evenodd" clip-rule="evenodd" d="M16.7283 40.1478L14.7639 39.3153C14.5769 39.2361 14.379 39.4022 14.4245 39.6L14.9032 41.6792C14.9389 41.8342 14.8983 41.9968 14.7941 42.1169L13.3953 43.7279C13.2622 43.8812 13.359 44.1208 13.5613 44.1387L15.6866 44.3259C15.845 44.3398 15.9871 44.4287 16.0691 44.5649L17.1691 46.3931C17.2737 46.567 17.5315 46.549 17.611 46.3622L18.4458 44.3987C18.508 44.2524 18.6364 44.1446 18.7913 44.1088L20.8699 43.6276C21.0677 43.5818 21.1302 43.3311 20.9771 43.1978L19.3677 41.797C19.2478 41.6927 19.185 41.5372 19.1987 41.3789L19.3834 39.2533C19.401 39.051 19.1818 38.9141 19.0077 39.0185L17.1783 40.1163C17.0419 40.1981 16.8747 40.2098 16.7283 40.1478ZM14.8124 39.2008C14.5319 39.082 14.235 39.3312 14.3033 39.6279L14.7821 41.7071C14.8088 41.8233 14.7784 41.9453 14.7002 42.0354L13.3014 43.6464C13.1018 43.8764 13.247 44.2358 13.5503 44.2625L15.6757 44.4497C15.7945 44.4602 15.9011 44.5268 15.9626 44.629L17.0625 46.4572C17.2195 46.7181 17.6062 46.6911 17.7254 46.4108L18.5602 44.4473C18.6069 44.3376 18.7032 44.2568 18.8193 44.2299L20.898 43.7487C21.1947 43.68 21.2884 43.3039 21.0587 43.104L19.4493 41.7033C19.3594 41.625 19.3123 41.5084 19.3226 41.3896L19.5073 39.2641C19.5336 38.9606 19.2049 38.7552 18.9438 38.9119L17.1143 40.0097C17.012 40.0711 16.8866 40.0798 16.7768 40.0333L14.8124 39.2008Z" fill="url(#paint95_linear_1464_5229)"/>
<path d="M15.6333 40.947C15.6085 40.8058 15.7458 40.6906 15.8806 40.7395L16.9467 41.1264C16.9962 41.1444 17.0511 41.1406 17.0977 41.1159L18.0996 40.5843C18.2263 40.5171 18.3782 40.6121 18.3734 40.7554L18.3348 41.8889C18.333 41.9416 18.3536 41.9926 18.3915 42.0293L19.2066 42.8179C19.3097 42.9176 19.2664 43.0915 19.1285 43.1311L18.0386 43.4447C17.9879 43.4593 17.9458 43.4947 17.9226 43.542L17.4245 44.5609C17.3615 44.6898 17.1828 44.7023 17.1025 44.5835L16.4674 43.6438C16.4379 43.6001 16.3912 43.571 16.339 43.5636L15.2161 43.4047C15.0741 43.3846 15.0069 43.2185 15.0951 43.1054L15.7925 42.211C15.825 42.1694 15.8383 42.1161 15.8292 42.0641L15.6333 40.947Z" fill="url(#paint96_linear_1464_5229)"/>
<path d="M18.5102 40.4416C18.1533 43.5167 16.0094 44.088 14.982 43.9893C13.0876 43.4438 15.7788 42.8937 17.0501 41.0796C18.0672 39.6283 18.4473 40.0495 18.5102 40.4416Z" fill="url(#paint97_linear_1464_5229)"/>
<path fill-rule="evenodd" clip-rule="evenodd" d="M14.6346 39.9029C14.6847 39.8912 14.7349 39.9223 14.7466 39.9725L14.8796 40.5411C14.8913 40.5913 14.8602 40.6414 14.81 40.6532C14.7599 40.6649 14.7097 40.6338 14.698 40.5836L14.565 40.015C14.5533 39.9648 14.5844 39.9147 14.6346 39.9029Z" fill="#93D6F6"/>
<ellipse cx="13.6101" cy="43.7009" rx="0.0932486" ry="0.0932486" transform="rotate(-40 13.6101 43.7009)" fill="#93D6F6"/>
<ellipse cx="14.834" cy="40.8064" rx="0.0932486" ry="0.0932486" transform="rotate(-40 14.834 40.8064)" fill="#93D6F6"/>
<path d="M15.2946 41.6795C15.3967 42.9017 15.941 43.1571 16.2004 43.132C16.8894 42.9382 16.6832 40.8432 16.4493 40.4393C16.2154 40.0354 15.1668 40.1518 15.2946 41.6795Z" fill="url(#paint98_linear_1464_5229)" fill-opacity="0.6"/>
<g style="mix-blend-mode:hard-light">
<path d="M30.1191 33.7484C30.2575 33.4771 30.6452 33.4771 30.7836 33.7484L31.7533 35.6488C31.8075 35.755 31.9092 35.8289 32.027 35.8477L34.1341 36.1827C34.4349 36.2305 34.5547 36.5992 34.3394 36.8146L32.8317 38.3242C32.7474 38.4086 32.7086 38.5281 32.7271 38.6459L33.0597 40.7534C33.1071 41.0543 32.7935 41.2821 32.5221 41.144L30.6205 40.1765C30.5142 40.1224 30.3885 40.1224 30.2822 40.1765L28.3806 41.144C28.1092 41.2821 27.7956 41.0543 27.843 40.7534L28.1755 38.6459C28.1941 38.5281 28.1553 38.4086 28.071 38.3242L26.5632 36.8146C26.348 36.5992 26.4678 36.2305 26.7686 36.1827L28.8757 35.8477C28.9934 35.8289 29.0951 35.755 29.1493 35.6488L30.1191 33.7484Z" fill="#CE97E8"/>
<path d="M45.9524 39.1854C46.2328 39.0666 46.5298 39.3157 46.4614 39.6125L45.9827 41.6917C45.956 41.8079 45.9864 41.9299 46.0646 42.0199L47.4633 43.631C47.663 43.861 47.5178 44.2204 47.2144 44.2471L45.0891 44.4343C44.9703 44.4448 44.8637 44.5114 44.8022 44.6136L43.7022 46.4418C43.5452 46.7027 43.1586 46.6757 43.0394 46.3954L42.2046 44.4319C42.1579 44.3222 42.0616 44.2414 41.9454 44.2145L39.8668 43.7333C39.5701 43.6646 39.4763 43.2885 39.7061 43.0886L41.3155 41.6879C41.4054 41.6096 41.4525 41.493 41.4422 41.3742L41.2575 39.2486C41.2311 38.9452 41.5599 38.7398 41.821 38.8965L43.6505 39.9943C43.7527 40.0557 43.8782 40.0644 43.9879 40.0179L45.9524 39.1854Z" fill="#CE97E8"/>
<path d="M14.8123 39.1973C14.5319 39.0784 14.2349 39.3276 14.3033 39.6244L14.782 41.7036C14.8087 41.8198 14.7783 41.9417 14.7001 42.0318L13.3013 43.6429C13.1017 43.8728 13.2469 44.2322 13.5503 44.2589L15.6756 44.4462C15.7944 44.4566 15.901 44.5233 15.9625 44.6254L17.0624 46.4536C17.2195 46.7146 17.6061 46.6875 17.7253 46.4072L18.5601 44.4438C18.6068 44.334 18.7031 44.2532 18.8193 44.2263L20.8979 43.7452C21.1946 43.6765 21.2883 43.3004 21.0586 43.1004L19.4492 41.6997C19.3593 41.6214 19.3122 41.5048 19.3225 41.3861L19.5072 39.2605C19.5335 38.9571 19.2048 38.7517 18.9437 38.9084L17.1142 40.0062C17.0119 40.0675 16.8865 40.0763 16.7767 40.0297L14.8123 39.1973Z" fill="#CE97E8"/>
</g>
<path fill-rule="evenodd" clip-rule="evenodd" d="M22.8565 36.3001L22.8565 39.7191H38.025L38.025 32.8444H31.0574C31.1224 32.6594 31.1898 32.4782 31.2595 32.3008C31.5722 31.5371 31.9065 30.8112 32.262 30.1225C32.6485 29.398 33.0348 28.6856 33.4211 27.9856L36.3947 22.6992C36.8229 21.9492 37.2019 21.1569 37.5326 20.3235L37.5341 20.3198L37.5355 20.316C37.876 19.4445 38.1387 18.5264 38.3264 17.5642C38.5322 16.5726 38.6318 15.5282 38.6318 14.4349C38.6318 12.6662 38.4076 11.0185 37.9401 9.50511C37.455 7.92217 36.6514 6.58316 35.4909 5.56192C34.2323 4.4544 32.6212 3.97266 30.8177 3.97266C28.651 3.97266 26.743 4.45972 25.3857 5.71158C24.1161 6.87047 23.355 8.47321 22.9936 10.3637L22.9926 10.369L22.9916 10.3743C22.6638 12.1577 22.5071 14.2522 22.5071 16.6416L22.5071 20.1342L29.4285 20.1342L26.5296 24.9491L26.5284 24.951C25.7295 26.2826 25.0556 27.5642 24.5115 28.7949C23.9614 30.039 23.543 31.2769 23.2621 32.5076L23.2603 32.5152L23.2587 32.5229C22.9902 33.758 22.8565 35.0177 22.8565 36.3001ZM30.2278 18.6687V14.5268C30.2278 13.1689 30.3152 12.2939 30.4387 11.809L30.4395 11.8059L30.4403 11.8027C30.5048 11.5445 30.5681 11.3798 30.6154 11.2842C30.6587 11.3873 30.7103 11.5472 30.7587 11.7803L30.7614 11.7936L30.7644 11.8068C30.8748 12.2941 30.9479 13.0827 30.9479 14.2326C30.9479 14.9724 30.9131 15.6095 30.8483 16.1495L30.8467 16.1628L30.8454 16.1761C30.7901 16.718 30.7093 17.1816 30.6089 17.5731C30.5059 17.975 30.3807 18.332 30.237 18.648L30.2326 18.6577L30.2278 18.6687Z" fill="url(#paint99_linear_1464_5229)"/>
<defs>
<filter id="filter0_d_1464_5229" x="48.6516" y="5.95898" width="2.92" height="4.50159" filterUnits="userSpaceOnUse" color-interpolation-filters="sRGB">
<feFlood flood-opacity="0" result="BackgroundImageFix"/>
<feColorMatrix in="SourceAlpha" type="matrix" values="0 0 0 0 0 0 0 0 0 0 0 0 0 0 0 0 0 0 127 0" result="hardAlpha"/>
<feOffset dy="0.294028"/>
<feGaussianBlur stdDeviation="0.0735069"/>
<feColorMatrix type="matrix" values="0 0 0 0 0.541667 0 0 0 0 0.336104 0 0 0 0 0.0947917 0 0 0 0.25 0"/>
<feBlend mode="normal" in2="BackgroundImageFix" result="effect1_dropShadow_1464_5229"/>
<feBlend mode="normal" in="SourceGraphic" in2="effect1_dropShadow_1464_5229" result="shape"/>
</filter>
<filter id="filter1_d_1464_5229" x="49.1438" y="14.0938" width="3.24813" height="3.19299" filterUnits="userSpaceOnUse" color-interpolation-filters="sRGB">
<feFlood flood-opacity="0" result="BackgroundImageFix"/>
<feColorMatrix in="SourceAlpha" type="matrix" values="0 0 0 0 0 0 0 0 0 0 0 0 0 0 0 0 0 0 127 0" result="hardAlpha"/>
<feOffset dy="0.294028"/>
<feGaussianBlur stdDeviation="0.0735069"/>
<feColorMatrix type="matrix" values="0 0 0 0 0.541667 0 0 0 0 0.336104 0 0 0 0 0.0947917 0 0 0 0.25 0"/>
<feBlend mode="normal" in2="BackgroundImageFix" result="effect1_dropShadow_1464_5229"/>
<feBlend mode="normal" in="SourceGraphic" in2="effect1_dropShadow_1464_5229" result="shape"/>
</filter>
<filter id="filter2_d_1464_5229" x="51.9822" y="17.1348" width="4.79651" height="4.67737" filterUnits="userSpaceOnUse" color-interpolation-filters="sRGB">
<feFlood flood-opacity="0" result="BackgroundImageFix"/>
<feColorMatrix in="SourceAlpha" type="matrix" values="0 0 0 0 0 0 0 0 0 0 0 0 0 0 0 0 0 0 127 0" result="hardAlpha"/>
<feOffset dx="0.294028" dy="0.294028"/>
<feGaussianBlur stdDeviation="0.0735069"/>
<feColorMatrix type="matrix" values="0 0 0 0 0.541667 0 0 0 0 0.336104 0 0 0 0 0.0947917 0 0 0 0.25 0"/>
<feBlend mode="normal" in2="BackgroundImageFix" result="effect1_dropShadow_1464_5229"/>
<feBlend mode="normal" in="SourceGraphic" in2="effect1_dropShadow_1464_5229" result="shape"/>
</filter>
<filter id="filter3_d_1464_5229" x="50.3728" y="21.7031" width="1.54769" height="5.08557" filterUnits="userSpaceOnUse" color-interpolation-filters="sRGB">
<feFlood flood-opacity="0" result="BackgroundImageFix"/>
<feColorMatrix in="SourceAlpha" type="matrix" values="0 0 0 0 0 0 0 0 0 0 0 0 0 0 0 0 0 0 127 0" result="hardAlpha"/>
<feOffset dy="0.294028"/>
<feGaussianBlur stdDeviation="0.0735069"/>
<feColorMatrix type="matrix" values="0 0 0 0 0.541667 0 0 0 0 0.336104 0 0 0 0 0.0947917 0 0 0 0.25 0"/>
<feBlend mode="normal" in2="BackgroundImageFix" result="effect1_dropShadow_1464_5229"/>
<feBlend mode="normal" in="SourceGraphic" in2="effect1_dropShadow_1464_5229" result="shape"/>
</filter>
<filter id="filter4_d_1464_5229" x="48.2363" y="26.4004" width="2.0787" height="5.43518" filterUnits="userSpaceOnUse" color-interpolation-filters="sRGB">
<feFlood flood-opacity="0" result="BackgroundImageFix"/>
<feColorMatrix in="SourceAlpha" type="matrix" values="0 0 0 0 0 0 0 0 0 0 0 0 0 0 0 0 0 0 127 0" result="hardAlpha"/>
<feOffset dy="0.294028"/>
<feGaussianBlur stdDeviation="0.0735069"/>
<feColorMatrix type="matrix" values="0 0 0 0 0.541667 0 0 0 0 0.336104 0 0 0 0 0.0947917 0 0 0 0.25 0"/>
<feBlend mode="normal" in2="BackgroundImageFix" result="effect1_dropShadow_1464_5229"/>
<feBlend mode="normal" in="SourceGraphic" in2="effect1_dropShadow_1464_5229" result="shape"/>
</filter>
<filter id="filter5_d_1464_5229" x="49.5383" y="28.5645" width="4.67273" height="2.48596" filterUnits="userSpaceOnUse" color-interpolation-filters="sRGB">
<feFlood flood-opacity="0" result="BackgroundImageFix"/>
<feColorMatrix in="SourceAlpha" type="matrix" values="0 0 0 0 0 0 0 0 0 0 0 0 0 0 0 0 0 0 127 0" result="hardAlpha"/>
<feOffset dx="0.294028" dy="0.294028"/>
<feGaussianBlur stdDeviation="0.0735069"/>
<feColorMatrix type="matrix" values="0 0 0 0 0.541667 0 0 0 0 0.336104 0 0 0 0 0.0947917 0 0 0 0.25 0"/>
<feBlend mode="normal" in2="BackgroundImageFix" result="effect1_dropShadow_1464_5229"/>
<feBlend mode="normal" in="SourceGraphic" in2="effect1_dropShadow_1464_5229" result="shape"/>
</filter>
<filter id="filter6_d_1464_5229" x="46.9609" y="33.1113" width="3.8951" height="1.90393" filterUnits="userSpaceOnUse" color-interpolation-filters="sRGB">
<feFlood flood-opacity="0" result="BackgroundImageFix"/>
<feColorMatrix in="SourceAlpha" type="matrix" values="0 0 0 0 0 0 0 0 0 0 0 0 0 0 0 0 0 0 127 0" result="hardAlpha"/>
<feOffset dy="0.294027"/>
<feGaussianBlur stdDeviation="0.0735068"/>
<feColorMatrix type="matrix" values="0 0 0 0 0.541667 0 0 0 0 0.336104 0 0 0 0 0.0947917 0 0 0 0.25 0"/>
<feBlend mode="normal" in2="BackgroundImageFix" result="effect1_dropShadow_1464_5229"/>
<feBlend mode="normal" in="SourceGraphic" in2="effect1_dropShadow_1464_5229" result="shape"/>
</filter>
<filter id="filter7_d_1464_5229" x="8.71773" y="5.57422" width="2.92025" height="4.50354" filterUnits="userSpaceOnUse" color-interpolation-filters="sRGB">
<feFlood flood-opacity="0" result="BackgroundImageFix"/>
<feColorMatrix in="SourceAlpha" type="matrix" values="0 0 0 0 0 0 0 0 0 0 0 0 0 0 0 0 0 0 127 0" result="hardAlpha"/>
<feOffset dy="0.294028"/>
<feGaussianBlur stdDeviation="0.0735069"/>
<feColorMatrix type="matrix" values="0 0 0 0 0.541667 0 0 0 0 0.336104 0 0 0 0 0.0947917 0 0 0 0.25 0"/>
<feBlend mode="normal" in2="BackgroundImageFix" result="effect1_dropShadow_1464_5229"/>
<feBlend mode="normal" in="SourceGraphic" in2="effect1_dropShadow_1464_5229" result="shape"/>
</filter>
<filter id="filter8_d_1464_5229" x="7.89766" y="13.707" width="3.24789" height="3.1969" filterUnits="userSpaceOnUse" color-interpolation-filters="sRGB">
<feFlood flood-opacity="0" result="BackgroundImageFix"/>
<feColorMatrix in="SourceAlpha" type="matrix" values="0 0 0 0 0 0 0 0 0 0 0 0 0 0 0 0 0 0 127 0" result="hardAlpha"/>
<feOffset dy="0.294028"/>
<feGaussianBlur stdDeviation="0.0735069"/>
<feColorMatrix type="matrix" values="0 0 0 0 0.541667 0 0 0 0 0.336104 0 0 0 0 0.0947917 0 0 0 0.25 0"/>
<feBlend mode="normal" in2="BackgroundImageFix" result="effect1_dropShadow_1464_5229"/>
<feBlend mode="normal" in="SourceGraphic" in2="effect1_dropShadow_1464_5229" result="shape"/>
</filter>
<filter id="filter9_d_1464_5229" x="3.95166" y="16.7461" width="4.79651" height="4.67737" filterUnits="userSpaceOnUse" color-interpolation-filters="sRGB">
<feFlood flood-opacity="0" result="BackgroundImageFix"/>
<feColorMatrix in="SourceAlpha" type="matrix" values="0 0 0 0 0 0 0 0 0 0 0 0 0 0 0 0 0 0 127 0" result="hardAlpha"/>
<feOffset dx="0.294028" dy="0.294028"/>
<feGaussianBlur stdDeviation="0.0735069"/>
<feColorMatrix type="matrix" values="0 0 0 0 0.541667 0 0 0 0 0.336104 0 0 0 0 0.0947917 0 0 0 0.25 0"/>
<feBlend mode="normal" in2="BackgroundImageFix" result="effect1_dropShadow_1464_5229"/>
<feBlend mode="normal" in="SourceGraphic" in2="effect1_dropShadow_1464_5229" result="shape"/>
</filter>
<filter id="filter10_d_1464_5229" x="8.36959" y="21.3145" width="1.54769" height="5.08362" filterUnits="userSpaceOnUse" color-interpolation-filters="sRGB">
<feFlood flood-opacity="0" result="BackgroundImageFix"/>
<feColorMatrix in="SourceAlpha" type="matrix" values="0 0 0 0 0 0 0 0 0 0 0 0 0 0 0 0 0 0 127 0" result="hardAlpha"/>
<feOffset dy="0.294028"/>
<feGaussianBlur stdDeviation="0.0735069"/>
<feColorMatrix type="matrix" values="0 0 0 0 0.541667 0 0 0 0 0.336104 0 0 0 0 0.0947917 0 0 0 0.25 0"/>
<feBlend mode="normal" in2="BackgroundImageFix" result="effect1_dropShadow_1464_5229"/>
<feBlend mode="normal" in="SourceGraphic" in2="effect1_dropShadow_1464_5229" result="shape"/>
</filter>
<filter id="filter11_d_1464_5229" x="9.97481" y="26.0098" width="2.0787" height="5.43518" filterUnits="userSpaceOnUse" color-interpolation-filters="sRGB">
<feFlood flood-opacity="0" result="BackgroundImageFix"/>
<feColorMatrix in="SourceAlpha" type="matrix" values="0 0 0 0 0 0 0 0 0 0 0 0 0 0 0 0 0 0 127 0" result="hardAlpha"/>
<feOffset dy="0.294028"/>
<feGaussianBlur stdDeviation="0.0735069"/>
<feColorMatrix type="matrix" values="0 0 0 0 0.541667 0 0 0 0 0.336104 0 0 0 0 0.0947917 0 0 0 0.25 0"/>
<feBlend mode="normal" in2="BackgroundImageFix" result="effect1_dropShadow_1464_5229"/>
<feBlend mode="normal" in="SourceGraphic" in2="effect1_dropShadow_1464_5229" result="shape"/>
</filter>
<filter id="filter12_d_1464_5229" x="6.51953" y="28.1758" width="4.67273" height="2.48596" filterUnits="userSpaceOnUse" color-interpolation-filters="sRGB">
<feFlood flood-opacity="0" result="BackgroundImageFix"/>
<feColorMatrix in="SourceAlpha" type="matrix" values="0 0 0 0 0 0 0 0 0 0 0 0 0 0 0 0 0 0 127 0" result="hardAlpha"/>
<feOffset dx="0.294028" dy="0.294028"/>
<feGaussianBlur stdDeviation="0.0735069"/>
<feColorMatrix type="matrix" values="0 0 0 0 0.541667 0 0 0 0 0.336104 0 0 0 0 0.0947917 0 0 0 0.25 0"/>
<feBlend mode="normal" in2="BackgroundImageFix" result="effect1_dropShadow_1464_5229"/>
<feBlend mode="normal" in="SourceGraphic" in2="effect1_dropShadow_1464_5229" result="shape"/>
</filter>
<filter id="filter13_d_1464_5229" x="9.4338" y="32.7246" width="3.8951" height="1.90393" filterUnits="userSpaceOnUse" color-interpolation-filters="sRGB">
<feFlood flood-opacity="0" result="BackgroundImageFix"/>
<feColorMatrix in="SourceAlpha" type="matrix" values="0 0 0 0 0 0 0 0 0 0 0 0 0 0 0 0 0 0 127 0" result="hardAlpha"/>
<feOffset dy="0.294027"/>
<feGaussianBlur stdDeviation="0.0735068"/>
<feColorMatrix type="matrix" values="0 0 0 0 0.541667 0 0 0 0 0.336104 0 0 0 0 0.0947917 0 0 0 0.25 0"/>
<feBlend mode="normal" in2="BackgroundImageFix" result="effect1_dropShadow_1464_5229"/>
<feBlend mode="normal" in="SourceGraphic" in2="effect1_dropShadow_1464_5229" result="shape"/>
</filter>
<filter id="filter14_i_1464_5229" x="26.4534" y="32.9233" width="7.99512" height="8.26228" filterUnits="userSpaceOnUse" color-interpolation-filters="sRGB">
<feFlood flood-opacity="0" result="BackgroundImageFix"/>
<feBlend mode="normal" in="SourceGraphic" in2="BackgroundImageFix" result="shape"/>
<feColorMatrix in="SourceAlpha" type="matrix" values="0 0 0 0 0 0 0 0 0 0 0 0 0 0 0 0 0 0 127 0" result="hardAlpha"/>
<feOffset dy="-0.621658"/>
<feGaussianBlur stdDeviation="0.777072"/>
<feComposite in2="hardAlpha" operator="arithmetic" k2="-1" k3="1"/>
<feColorMatrix type="matrix" values="0 0 0 0 0.595833 0 0 0 0 0.83025 0 0 0 0 1 0 0 0 1 0"/>
<feBlend mode="normal" in2="shape" result="effect1_innerShadow_1464_5229"/>
</filter>
<filter id="filter15_i_1464_5229" x="39.5776" y="38.224" width="7.97754" height="8.40095" filterUnits="userSpaceOnUse" color-interpolation-filters="sRGB">
<feFlood flood-opacity="0" result="BackgroundImageFix"/>
<feBlend mode="normal" in="SourceGraphic" in2="BackgroundImageFix" result="shape"/>
<feColorMatrix in="SourceAlpha" type="matrix" values="0 0 0 0 0 0 0 0 0 0 0 0 0 0 0 0 0 0 127 0" result="hardAlpha"/>
<feOffset dy="-0.621658"/>
<feGaussianBlur stdDeviation="0.777072"/>
<feComposite in2="hardAlpha" operator="arithmetic" k2="-1" k3="1"/>
<feColorMatrix type="matrix" values="0 0 0 0 0.595833 0 0 0 0 0.83025 0 0 0 0 1 0 0 0 1 0"/>
<feBlend mode="normal" in2="shape" result="effect1_innerShadow_1464_5229"/>
</filter>
<filter id="filter16_i_1464_5229" x="13.2095" y="38.2358" width="7.97729" height="8.40291" filterUnits="userSpaceOnUse" color-interpolation-filters="sRGB">
<feFlood flood-opacity="0" result="BackgroundImageFix"/>
<feBlend mode="normal" in="SourceGraphic" in2="BackgroundImageFix" result="shape"/>
<feColorMatrix in="SourceAlpha" type="matrix" values="0 0 0 0 0 0 0 0 0 0 0 0 0 0 0 0 0 0 127 0" result="hardAlpha"/>
<feOffset dy="-0.621658"/>
<feGaussianBlur stdDeviation="0.777072"/>
<feComposite in2="hardAlpha" operator="arithmetic" k2="-1" k3="1"/>
<feColorMatrix type="matrix" values="0 0 0 0 0.595833 0 0 0 0 0.83025 0 0 0 0 1 0 0 0 1 0"/>
<feBlend mode="normal" in2="shape" result="effect1_innerShadow_1464_5229"/>
</filter>
<linearGradient id="paint0_linear_1464_5229" x1="48.4402" y1="31.9734" x2="48.9348" y2="33.7251" gradientUnits="userSpaceOnUse">
<stop stop-color="#D2AB68"/>
<stop offset="1" stop-color="#B67D3F"/>
</linearGradient>
<linearGradient id="paint1_linear_1464_5229" x1="52.0516" y1="9.84191" x2="53.4618" y2="14.8361" gradientUnits="userSpaceOnUse">
<stop stop-color="#D2AB68"/>
<stop offset="1" stop-color="#B67D3F"/>
</linearGradient>
<linearGradient id="paint2_linear_1464_5229" x1="49.5477" y1="7.4603" x2="50.5281" y2="10.9324" gradientUnits="userSpaceOnUse">
<stop stop-color="#D2AB68"/>
<stop offset="1" stop-color="#B67D3F"/>
</linearGradient>
<linearGradient id="paint3_linear_1464_5229" x1="52.5315" y1="21.6813" x2="51.2967" y2="21.7119" gradientUnits="userSpaceOnUse">
<stop stop-color="#D2AB68"/>
<stop offset="1" stop-color="#B67D3F"/>
</linearGradient>
<linearGradient id="paint4_linear_1464_5229" x1="49.4426" y1="9.5117" x2="52.3598" y2="6.83738" gradientUnits="userSpaceOnUse">
<stop stop-color="#D2AB68"/>
<stop offset="1" stop-color="#B67D3F"/>
</linearGradient>
<linearGradient id="paint5_linear_1464_5229" x1="52.1037" y1="6.23664" x2="51.661" y2="10.0943" gradientUnits="userSpaceOnUse">
<stop stop-color="#F7E6B3"/>
<stop offset="1" stop-color="#F7E6B3" stop-opacity="0"/>
</linearGradient>
<linearGradient id="paint6_linear_1464_5229" x1="49.4073" y1="20.3646" x2="51.1281" y2="26.4589" gradientUnits="userSpaceOnUse">
<stop stop-color="#D2AB68"/>
<stop offset="1" stop-color="#B67D3F"/>
</linearGradient>
<linearGradient id="paint7_linear_1464_5229" x1="49.9898" y1="21.2202" x2="47.7496" y2="23.7735" gradientUnits="userSpaceOnUse">
<stop stop-color="#F7E6B3"/>
<stop offset="1" stop-color="#F7E6B3" stop-opacity="0"/>
</linearGradient>
<linearGradient id="paint8_linear_1464_5229" x1="52.8878" y1="16.4918" x2="53.8028" y2="19.7323" gradientUnits="userSpaceOnUse">
<stop stop-color="#D2AB68"/>
<stop offset="1" stop-color="#B67D3F"/>
</linearGradient>
<linearGradient id="paint9_linear_1464_5229" x1="52.6726" y1="18.0842" x2="52.9139" y2="19.9821" gradientUnits="userSpaceOnUse">
<stop stop-color="#C18E42"/>
<stop offset="1" stop-color="#D2AB68"/>
</linearGradient>
<linearGradient id="paint10_linear_1464_5229" x1="53.0046" y1="11.4264" x2="54.1616" y2="15.5238" gradientUnits="userSpaceOnUse">
<stop stop-color="#D2AB68"/>
<stop offset="1" stop-color="#8E573C"/>
</linearGradient>
<linearGradient id="paint11_linear_1464_5229" x1="50.5924" y1="12.0771" x2="51.7041" y2="16.0138" gradientUnits="userSpaceOnUse">
<stop stop-color="#D2AB68"/>
<stop offset="1" stop-color="#B67D3F"/>
</linearGradient>
<linearGradient id="paint12_linear_1464_5229" x1="53.0482" y1="23.9209" x2="53.4557" y2="25.364" gradientUnits="userSpaceOnUse">
<stop stop-color="#D2AB68"/>
<stop offset="1" stop-color="#B67D3F"/>
</linearGradient>
<linearGradient id="paint13_linear_1464_5229" x1="53.2239" y1="21.5714" x2="54.1843" y2="24.9725" gradientUnits="userSpaceOnUse">
<stop stop-color="#C28766"/>
<stop offset="1" stop-color="#8E573C"/>
</linearGradient>
<linearGradient id="paint14_linear_1464_5229" x1="47.7159" y1="26.827" x2="48.9712" y2="31.2725" gradientUnits="userSpaceOnUse">
<stop stop-color="#D2AB68"/>
<stop offset="1" stop-color="#B67D3F"/>
</linearGradient>
<linearGradient id="paint15_linear_1464_5229" x1="50.72" y1="26.99" x2="51.514" y2="29.802" gradientUnits="userSpaceOnUse">
<stop stop-color="#D2AB68"/>
<stop offset="1" stop-color="#B67D3F"/>
</linearGradient>
<linearGradient id="paint16_linear_1464_5229" x1="50.4875" y1="26.7416" x2="51.4218" y2="30.0505" gradientUnits="userSpaceOnUse">
<stop stop-color="#FADA81"/>
<stop offset="1" stop-color="#B67D3F"/>
</linearGradient>
<linearGradient id="paint17_linear_1464_5229" x1="48.0287" y1="33.9989" x2="48.4144" y2="35.3647" gradientUnits="userSpaceOnUse">
<stop stop-color="#D2AB68"/>
<stop offset="1" stop-color="#B67D3F"/>
</linearGradient>
<linearGradient id="paint18_linear_1464_5229" x1="49.041" y1="1.38444" x2="50.4249" y2="6.28525" gradientUnits="userSpaceOnUse">
<stop stop-color="#FCF1D5"/>
<stop offset="1" stop-color="#EBCE6A"/>
</linearGradient>
<linearGradient id="paint19_linear_1464_5229" x1="48.6242" y1="1.50162" x2="50.008" y2="6.40243" gradientUnits="userSpaceOnUse">
<stop stop-color="#D2AB68"/>
<stop offset="1" stop-color="#B67D3F"/>
</linearGradient>
<linearGradient id="paint20_linear_1464_5229" x1="49.3291" y1="5.8109" x2="50.5844" y2="10.2564" gradientUnits="userSpaceOnUse">
<stop stop-color="#D2AB68"/>
<stop offset="1" stop-color="#B67D3F"/>
</linearGradient>
<linearGradient id="paint21_linear_1464_5229" x1="49.8939" y1="6.3955" x2="48.5219" y2="9.69088" gradientUnits="userSpaceOnUse">
<stop stop-color="#F7E6B3"/>
<stop offset="1" stop-color="#F7E6B3" stop-opacity="0"/>
</linearGradient>
<linearGradient id="paint22_linear_1464_5229" x1="52.6829" y1="10.4984" x2="51.9782" y2="14.8142" gradientUnits="userSpaceOnUse">
<stop stop-color="#F7E6B3"/>
<stop offset="1" stop-color="#F7E6B3" stop-opacity="0"/>
</linearGradient>
<linearGradient id="paint23_linear_1464_5229" x1="53.7591" y1="11.8763" x2="53.7806" y2="15.7745" gradientUnits="userSpaceOnUse">
<stop stop-color="#F7E6B3"/>
<stop offset="1" stop-color="#F7E6B3" stop-opacity="0"/>
</linearGradient>
<linearGradient id="paint24_linear_1464_5229" x1="51.0078" y1="12.6316" x2="50.0822" y2="14.8754" gradientUnits="userSpaceOnUse">
<stop stop-color="#FFDD78"/>
<stop offset="1" stop-color="#FFF1C8" stop-opacity="0.38"/>
</linearGradient>
<linearGradient id="paint25_linear_1464_5229" x1="50.3294" y1="13.7997" x2="51.3048" y2="17.2544" gradientUnits="userSpaceOnUse">
<stop stop-color="#D2AB68"/>
<stop offset="1" stop-color="#B67D3F"/>
</linearGradient>
<linearGradient id="paint26_linear_1464_5229" x1="50.312" y1="13.7469" x2="51.8005" y2="17.1435" gradientUnits="userSpaceOnUse">
<stop stop-color="#FFDA92"/>
<stop offset="1" stop-color="#DCBA84"/>
</linearGradient>
<linearGradient id="paint27_linear_1464_5229" x1="55.4003" y1="17.3994" x2="52.5651" y2="20.7735" gradientUnits="userSpaceOnUse">
<stop stop-color="#F7E6B3"/>
<stop offset="1" stop-color="#BC8647"/>
</linearGradient>
<linearGradient id="paint28_linear_1464_5229" x1="53.7914" y1="17.8887" x2="54.5668" y2="20.6348" gradientUnits="userSpaceOnUse">
<stop stop-color="#D2AB68"/>
<stop offset="1" stop-color="#8E573C"/>
</linearGradient>
<linearGradient id="paint29_linear_1464_5229" x1="54.3087" y1="21.7578" x2="54.7244" y2="24.7117" gradientUnits="userSpaceOnUse">
<stop stop-color="#F7E6B3"/>
<stop offset="1" stop-color="#F7E6B3" stop-opacity="0"/>
</linearGradient>
<linearGradient id="paint30_linear_1464_5229" x1="50.6283" y1="21.9573" x2="51.8004" y2="26.1082" gradientUnits="userSpaceOnUse">
<stop stop-color="#D2AB68"/>
<stop offset="1" stop-color="#B67D3F"/>
</linearGradient>
<linearGradient id="paint31_linear_1464_5229" x1="51.5411" y1="21.6564" x2="51.0663" y2="26.1374" gradientUnits="userSpaceOnUse">
<stop stop-color="#E0C087"/>
<stop offset="0.28125" stop-color="#FFE49E"/>
<stop offset="1" stop-color="#753C1D"/>
</linearGradient>
<linearGradient id="paint32_linear_1464_5229" x1="53.7799" y1="24.2459" x2="54.343" y2="25.4853" gradientUnits="userSpaceOnUse">
<stop stop-color="#B18253"/>
<stop offset="1" stop-color="#F7E6B3" stop-opacity="0"/>
</linearGradient>
<linearGradient id="paint33_linear_1464_5229" x1="48.8104" y1="26.7823" x2="50.0052" y2="31.0136" gradientUnits="userSpaceOnUse">
<stop stop-color="#D2AB68"/>
<stop offset="1" stop-color="#B67D3F"/>
</linearGradient>
<linearGradient id="paint34_linear_1464_5229" x1="49.4301" y1="27.3089" x2="49.0354" y2="31.2853" gradientUnits="userSpaceOnUse">
<stop stop-color="#F7E6B3"/>
<stop offset="1" stop-color="#F7E6B3" stop-opacity="0"/>
</linearGradient>
<linearGradient id="paint35_linear_1464_5229" x1="51.4885" y1="28.8917" x2="51.9177" y2="30.4115" gradientUnits="userSpaceOnUse">
<stop stop-color="#D2AB68"/>
<stop offset="1" stop-color="#B67D3F"/>
</linearGradient>
<linearGradient id="paint36_linear_1464_5229" x1="51.9359" y1="28.7871" x2="50.5274" y2="30.2541" gradientUnits="userSpaceOnUse">
<stop stop-color="#FADA81"/>
<stop offset="1" stop-color="#9A5E33"/>
</linearGradient>
<linearGradient id="paint37_linear_1464_5229" x1="48.6493" y1="32.9198" x2="49.0995" y2="34.5142" gradientUnits="userSpaceOnUse">
<stop stop-color="#FADA81"/>
<stop offset="1" stop-color="#B67D3F"/>
</linearGradient>
<linearGradient id="paint38_linear_1464_5229" x1="48.3975" y1="33.4522" x2="48.9069" y2="35.2561" gradientUnits="userSpaceOnUse">
<stop stop-color="#D2AB68"/>
<stop offset="1" stop-color="#B67D3F"/>
</linearGradient>
<linearGradient id="paint39_linear_1464_5229" x1="11.8493" y1="31.5847" x2="11.3547" y2="33.3364" gradientUnits="userSpaceOnUse">
<stop stop-color="#D2AB68"/>
<stop offset="1" stop-color="#B67D3F"/>
</linearGradient>
<linearGradient id="paint40_linear_1464_5229" x1="8.23795" y1="9.45519" x2="6.82773" y2="14.4494" gradientUnits="userSpaceOnUse">
<stop stop-color="#D2AB68"/>
<stop offset="1" stop-color="#B67D3F"/>
</linearGradient>
<linearGradient id="paint41_linear_1464_5229" x1="10.7416" y1="7.06968" x2="9.76117" y2="10.5418" gradientUnits="userSpaceOnUse">
<stop stop-color="#D2AB68"/>
<stop offset="1" stop-color="#B67D3F"/>
</linearGradient>
<linearGradient id="paint42_linear_1464_5229" x1="7.75785" y1="21.2927" x2="8.99259" y2="21.3232" gradientUnits="userSpaceOnUse">
<stop stop-color="#D2AB68"/>
<stop offset="1" stop-color="#B67D3F"/>
</linearGradient>
<linearGradient id="paint43_linear_1464_5229" x1="10.8469" y1="9.12498" x2="7.92975" y2="6.45066" gradientUnits="userSpaceOnUse">
<stop stop-color="#D2AB68"/>
<stop offset="1" stop-color="#B67D3F"/>
</linearGradient>
<linearGradient id="paint44_linear_1464_5229" x1="8.18614" y1="5.84993" x2="8.62875" y2="9.70762" gradientUnits="userSpaceOnUse">
<stop stop-color="#F7E6B3"/>
<stop offset="1" stop-color="#F7E6B3" stop-opacity="0"/>
</linearGradient>
<linearGradient id="paint45_linear_1464_5229" x1="10.8825" y1="19.9779" x2="9.16169" y2="26.0721" gradientUnits="userSpaceOnUse">
<stop stop-color="#D2AB68"/>
<stop offset="1" stop-color="#B67D3F"/>
</linearGradient>
<linearGradient id="paint46_linear_1464_5229" x1="10.3" y1="20.8335" x2="12.5402" y2="23.3868" gradientUnits="userSpaceOnUse">
<stop stop-color="#F7E6B3"/>
<stop offset="1" stop-color="#F7E6B3" stop-opacity="0"/>
</linearGradient>
<linearGradient id="paint47_linear_1464_5229" x1="7.4018" y1="16.1012" x2="6.48679" y2="19.3416" gradientUnits="userSpaceOnUse">
<stop stop-color="#D2AB68"/>
<stop offset="1" stop-color="#B67D3F"/>
</linearGradient>
<linearGradient id="paint48_linear_1464_5229" x1="7.61715" y1="17.6975" x2="7.37586" y2="19.5954" gradientUnits="userSpaceOnUse">
<stop stop-color="#C18E42"/>
<stop offset="1" stop-color="#D2AB68"/>
</linearGradient>
<linearGradient id="paint49_linear_1464_5229" x1="7.28497" y1="11.0397" x2="6.12799" y2="15.1371" gradientUnits="userSpaceOnUse">
<stop stop-color="#D2AB68"/>
<stop offset="1" stop-color="#8E573C"/>
</linearGradient>
<linearGradient id="paint50_linear_1464_5229" x1="9.69711" y1="11.6904" x2="8.58547" y2="15.6271" gradientUnits="userSpaceOnUse">
<stop stop-color="#D2AB68"/>
<stop offset="1" stop-color="#B67D3F"/>
</linearGradient>
<linearGradient id="paint51_linear_1464_5229" x1="7.24134" y1="23.5322" x2="6.83383" y2="24.9754" gradientUnits="userSpaceOnUse">
<stop stop-color="#D2AB68"/>
<stop offset="1" stop-color="#B67D3F"/>
</linearGradient>
<linearGradient id="paint52_linear_1464_5229" x1="7.06585" y1="21.1846" x2="6.10547" y2="24.5857" gradientUnits="userSpaceOnUse">
<stop stop-color="#C28766"/>
<stop offset="1" stop-color="#8E573C"/>
</linearGradient>
<linearGradient id="paint53_linear_1464_5229" x1="12.5737" y1="26.4402" x2="11.3184" y2="30.8858" gradientUnits="userSpaceOnUse">
<stop stop-color="#D2AB68"/>
<stop offset="1" stop-color="#B67D3F"/>
</linearGradient>
<linearGradient id="paint54_linear_1464_5229" x1="9.56931" y1="26.6033" x2="8.7753" y2="29.4153" gradientUnits="userSpaceOnUse">
<stop stop-color="#D2AB68"/>
<stop offset="1" stop-color="#B67D3F"/>
</linearGradient>
<linearGradient id="paint55_linear_1464_5229" x1="9.8023" y1="26.3529" x2="8.86796" y2="29.6618" gradientUnits="userSpaceOnUse">
<stop stop-color="#FADA81"/>
<stop offset="1" stop-color="#B67D3F"/>
</linearGradient>
<linearGradient id="paint56_linear_1464_5229" x1="12.2608" y1="33.6122" x2="11.8752" y2="34.978" gradientUnits="userSpaceOnUse">
<stop stop-color="#D2AB68"/>
<stop offset="1" stop-color="#B67D3F"/>
</linearGradient>
<linearGradient id="paint57_linear_1464_5229" x1="11.2483" y1="0.995768" x2="9.86443" y2="5.89658" gradientUnits="userSpaceOnUse">
<stop stop-color="#FCF1D5"/>
<stop offset="1" stop-color="#EBCE6A"/>
</linearGradient>
<linearGradient id="paint58_linear_1464_5229" x1="11.6651" y1="1.11295" x2="10.2813" y2="6.01376" gradientUnits="userSpaceOnUse">
<stop stop-color="#D2AB68"/>
<stop offset="1" stop-color="#B67D3F"/>
</linearGradient>
<linearGradient id="paint59_linear_1464_5229" x1="10.9604" y1="5.42614" x2="9.70512" y2="9.87168" gradientUnits="userSpaceOnUse">
<stop stop-color="#D2AB68"/>
<stop offset="1" stop-color="#B67D3F"/>
</linearGradient>
<linearGradient id="paint60_linear_1464_5229" x1="10.3953" y1="6.01266" x2="11.7675" y2="9.3077" gradientUnits="userSpaceOnUse">
<stop stop-color="#F7E6B3"/>
<stop offset="1" stop-color="#F7E6B3" stop-opacity="0"/>
</linearGradient>
<linearGradient id="paint61_linear_1464_5229" x1="7.60714" y1="10.1078" x2="8.31183" y2="14.4235" gradientUnits="userSpaceOnUse">
<stop stop-color="#F7E6B3"/>
<stop offset="1" stop-color="#F7E6B3" stop-opacity="0"/>
</linearGradient>
<linearGradient id="paint62_linear_1464_5229" x1="6.53016" y1="11.4876" x2="6.50869" y2="15.3858" gradientUnits="userSpaceOnUse">
<stop stop-color="#F7E6B3"/>
<stop offset="1" stop-color="#F7E6B3" stop-opacity="0"/>
</linearGradient>
<linearGradient id="paint63_linear_1464_5229" x1="9.28204" y1="12.2409" x2="10.2076" y2="14.4848" gradientUnits="userSpaceOnUse">
<stop stop-color="#FFDD78"/>
<stop offset="1" stop-color="#FFF1C8" stop-opacity="0.38"/>
</linearGradient>
<linearGradient id="paint64_linear_1464_5229" x1="9.95994" y1="13.4169" x2="8.98446" y2="16.8716" gradientUnits="userSpaceOnUse">
<stop stop-color="#D2AB68"/>
<stop offset="1" stop-color="#B67D3F"/>
</linearGradient>
<linearGradient id="paint65_linear_1464_5229" x1="9.97754" y1="13.3602" x2="8.48909" y2="16.7567" gradientUnits="userSpaceOnUse">
<stop stop-color="#FFDA92"/>
<stop offset="1" stop-color="#DCBA84"/>
</linearGradient>
<linearGradient id="paint66_linear_1464_5229" x1="4.88897" y1="17.0108" x2="7.72419" y2="20.3848" gradientUnits="userSpaceOnUse">
<stop stop-color="#F7E6B3"/>
<stop offset="1" stop-color="#BC8647"/>
</linearGradient>
<linearGradient id="paint67_linear_1464_5229" x1="6.49789" y1="17.4981" x2="5.72248" y2="20.2442" gradientUnits="userSpaceOnUse">
<stop stop-color="#D2AB68"/>
<stop offset="1" stop-color="#8E573C"/>
</linearGradient>
<linearGradient id="paint68_linear_1464_5229" x1="5.98088" y1="21.3711" x2="5.56519" y2="24.325" gradientUnits="userSpaceOnUse">
<stop stop-color="#F7E6B3"/>
<stop offset="1" stop-color="#F7E6B3" stop-opacity="0"/>
</linearGradient>
<linearGradient id="paint69_linear_1464_5229" x1="9.66172" y1="21.5686" x2="8.48959" y2="25.7196" gradientUnits="userSpaceOnUse">
<stop stop-color="#D2AB68"/>
<stop offset="1" stop-color="#B67D3F"/>
</linearGradient>
<linearGradient id="paint70_linear_1464_5229" x1="8.74899" y1="21.2658" x2="9.22376" y2="25.7468" gradientUnits="userSpaceOnUse">
<stop stop-color="#E0C087"/>
<stop offset="0.28125" stop-color="#FFE49E"/>
<stop offset="1" stop-color="#753C1D"/>
</linearGradient>
<linearGradient id="paint71_linear_1464_5229" x1="6.5097" y1="23.8573" x2="5.94653" y2="25.0966" gradientUnits="userSpaceOnUse">
<stop stop-color="#B18253"/>
<stop offset="1" stop-color="#F7E6B3" stop-opacity="0"/>
</linearGradient>
<linearGradient id="paint72_linear_1464_5229" x1="11.4794" y1="26.3916" x2="10.2846" y2="30.6229" gradientUnits="userSpaceOnUse">
<stop stop-color="#D2AB68"/>
<stop offset="1" stop-color="#B67D3F"/>
</linearGradient>
<linearGradient id="paint73_linear_1464_5229" x1="10.8596" y1="26.9182" x2="11.2544" y2="30.8947" gradientUnits="userSpaceOnUse">
<stop stop-color="#F7E6B3"/>
<stop offset="1" stop-color="#F7E6B3" stop-opacity="0"/>
</linearGradient>
<linearGradient id="paint74_linear_1464_5229" x1="8.80101" y1="28.503" x2="8.37185" y2="30.0229" gradientUnits="userSpaceOnUse">
<stop stop-color="#D2AB68"/>
<stop offset="1" stop-color="#B67D3F"/>
</linearGradient>
<linearGradient id="paint75_linear_1464_5229" x1="8.35369" y1="28.3984" x2="9.76188" y2="29.8655" gradientUnits="userSpaceOnUse">
<stop stop-color="#FADA81"/>
<stop offset="1" stop-color="#9A5E33"/>
</linearGradient>
<linearGradient id="paint76_linear_1464_5229" x1="11.6405" y1="32.533" x2="11.1903" y2="34.1275" gradientUnits="userSpaceOnUse">
<stop stop-color="#FADA81"/>
<stop offset="1" stop-color="#B67D3F"/>
</linearGradient>
<linearGradient id="paint77_linear_1464_5229" x1="11.892" y1="33.0635" x2="11.3826" y2="34.8675" gradientUnits="userSpaceOnUse">
<stop stop-color="#D2AB68"/>
<stop offset="1" stop-color="#B67D3F"/>
</linearGradient>
<linearGradient id="paint78_linear_1464_5229" x1="30.4509" y1="33.0977" x2="32.5335" y2="41.1481" gradientUnits="userSpaceOnUse">
<stop stop-color="#708FBE" stop-opacity="0"/>
<stop offset="1" stop-color="#72DDFF" stop-opacity="0.63"/>
</linearGradient>
<linearGradient id="paint79_linear_1464_5229" x1="30.4509" y1="33.0973" x2="32.5335" y2="41.1478" gradientUnits="userSpaceOnUse">
<stop stop-color="#708FBE" stop-opacity="0"/>
<stop offset="1" stop-color="#72DDFF" stop-opacity="0.63"/>
</linearGradient>
<radialGradient id="paint80_radial_1464_5229" cx="0" cy="0" r="1" gradientUnits="userSpaceOnUse" gradientTransform="translate(29.363 36.5475) rotate(52.6712) scale(5.43346)">
<stop offset="0.738765" stop-color="#9CB6DD" stop-opacity="0"/>
<stop offset="0.89825" stop-color="#C6F1FF" stop-opacity="0.37"/>
<stop offset="1" stop-color="#EFFBFF" stop-opacity="0.7"/>
</radialGradient>
<linearGradient id="paint81_linear_1464_5229" x1="33.0619" y1="39.3139" x2="28.7725" y2="35.4285" gradientUnits="userSpaceOnUse">
<stop stop-color="#D8F6FF" stop-opacity="0.63"/>
<stop offset="0.218803" stop-color="#A0D2FF" stop-opacity="0"/>
<stop offset="0.491108" stop-color="#8DC8FF" stop-opacity="0.56"/>
<stop offset="0.733041" stop-color="#9ADBF8"/>
<stop offset="1" stop-color="white" stop-opacity="0"/>
<stop offset="1" stop-color="#BAEAFF" stop-opacity="0"/>
</linearGradient>
<linearGradient id="paint82_linear_1464_5229" x1="30.4508" y1="35.3359" x2="30.3886" y2="39.47" gradientUnits="userSpaceOnUse">
<stop stop-color="#9BE1FF"/>
<stop offset="0.277442" stop-color="#9BE1FF" stop-opacity="0.51"/>
<stop offset="1" stop-color="#CDDEE6" stop-opacity="0.15"/>
</linearGradient>
<linearGradient id="paint83_linear_1464_5229" x1="30.2506" y1="36.9127" x2="30.2199" y2="38.3819" gradientUnits="userSpaceOnUse">
<stop stop-color="#C4C4C4" stop-opacity="0"/>
<stop offset="0.731853" stop-color="#DBF6FF" stop-opacity="0.46"/>
</linearGradient>
<linearGradient id="paint84_linear_1464_5229" x1="29.8387" y1="36.0889" x2="30.6643" y2="36.8681" gradientUnits="userSpaceOnUse">
<stop offset="0.223958" stop-color="#DBF6FF" stop-opacity="0.35"/>
<stop offset="1" stop-color="#C4C4C4" stop-opacity="0"/>
</linearGradient>
<linearGradient id="paint85_linear_1464_5229" x1="46.6255" y1="38.9028" x2="43.046" y2="46.4084" gradientUnits="userSpaceOnUse">
<stop stop-color="#708FBE" stop-opacity="0"/>
<stop offset="1" stop-color="#72DDFF" stop-opacity="0.63"/>
</linearGradient>
<linearGradient id="paint86_linear_1464_5229" x1="46.6254" y1="38.9025" x2="43.046" y2="46.4081" gradientUnits="userSpaceOnUse">
<stop stop-color="#708FBE" stop-opacity="0"/>
<stop offset="1" stop-color="#72DDFF" stop-opacity="0.63"/>
</linearGradient>
<radialGradient id="paint87_radial_1464_5229" cx="0" cy="0" r="1" gradientUnits="userSpaceOnUse" gradientTransform="translate(43.5743 40.8462) rotate(92.6712) scale(5.43346 5.43346)">
<stop offset="0.738765" stop-color="#9CB6DD" stop-opacity="0"/>
<stop offset="0.89825" stop-color="#C6F1FF" stop-opacity="0.37"/>
<stop offset="1" stop-color="#EFFBFF" stop-opacity="0.7"/>
</radialGradient>
<linearGradient id="paint88_linear_1464_5229" x1="44.6296" y1="45.3429" x2="43.8412" y2="39.6094" gradientUnits="userSpaceOnUse">
<stop stop-color="#D8F6FF" stop-opacity="0.63"/>
<stop offset="0.218803" stop-color="#A0D2FF" stop-opacity="0"/>
<stop offset="0.491108" stop-color="#8DC8FF" stop-opacity="0.56"/>
<stop offset="0.733041" stop-color="#9ADBF8"/>
<stop offset="1" stop-color="white" stop-opacity="0"/>
<stop offset="1" stop-color="#BAEAFF" stop-opacity="0"/>
</linearGradient>
<linearGradient id="paint89_linear_1464_5229" x1="45.187" y1="40.6185" x2="42.482" y2="43.7454" gradientUnits="userSpaceOnUse">
<stop stop-color="#9BE1FF"/>
<stop offset="0.277442" stop-color="#9BE1FF" stop-opacity="0.51"/>
<stop offset="1" stop-color="#CDDEE6" stop-opacity="0.15"/>
</linearGradient>
<linearGradient id="paint90_linear_1464_5229" x1="44.0199" y1="41.6951" x2="43.0519" y2="42.8008" gradientUnits="userSpaceOnUse">
<stop stop-color="#C4C4C4" stop-opacity="0"/>
<stop offset="0.731853" stop-color="#DBF6FF" stop-opacity="0.46"/>
</linearGradient>
<linearGradient id="paint91_linear_1464_5229" x1="44.2324" y1="40.8034" x2="44.364" y2="41.931" gradientUnits="userSpaceOnUse">
<stop offset="0.223958" stop-color="#DBF6FF" stop-opacity="0.35"/>
<stop offset="1" stop-color="#C4C4C4" stop-opacity="0"/>
</linearGradient>
<linearGradient id="paint92_linear_1464_5229" x1="14.1391" y1="38.9156" x2="20.9092" y2="43.744" gradientUnits="userSpaceOnUse">
<stop stop-color="#708FBE" stop-opacity="0"/>
<stop offset="1" stop-color="#72DDFF" stop-opacity="0.63"/>
</linearGradient>
<linearGradient id="paint93_linear_1464_5229" x1="14.1393" y1="38.9156" x2="20.9094" y2="43.744" gradientUnits="userSpaceOnUse">
<stop stop-color="#708FBE" stop-opacity="0"/>
<stop offset="1" stop-color="#72DDFF" stop-opacity="0.63"/>
</linearGradient>
<radialGradient id="paint94_radial_1464_5229" cx="0" cy="0" r="1" gradientUnits="userSpaceOnUse" gradientTransform="translate(15.5237 42.2579) rotate(12.6712) scale(5.43346 5.43346)">
<stop offset="0.738765" stop-color="#9CB6DD" stop-opacity="0"/>
<stop offset="0.89825" stop-color="#C6F1FF" stop-opacity="0.37"/>
<stop offset="1" stop-color="#EFFBFF" stop-opacity="0.7"/>
</radialGradient>
<linearGradient id="paint95_linear_1464_5229" x1="20.1354" y1="41.9995" x2="14.352" y2="41.7803" gradientUnits="userSpaceOnUse">
<stop stop-color="#D8F6FF" stop-opacity="0.63"/>
<stop offset="0.218803" stop-color="#A0D2FF" stop-opacity="0"/>
<stop offset="0.491108" stop-color="#8DC8FF" stop-opacity="0.56"/>
<stop offset="0.733041" stop-color="#9ADBF8"/>
<stop offset="1" stop-color="white" stop-opacity="0"/>
<stop offset="1" stop-color="#BAEAFF" stop-opacity="0"/>
</linearGradient>
<linearGradient id="paint96_linear_1464_5229" x1="15.5776" y1="40.6295" x2="18.1873" y2="43.8363" gradientUnits="userSpaceOnUse">
<stop stop-color="#9BE1FF"/>
<stop offset="0.277442" stop-color="#9BE1FF" stop-opacity="0.51"/>
<stop offset="1" stop-color="#CDDEE6" stop-opacity="0.15"/>
</linearGradient>
<linearGradient id="paint97_linear_1464_5229" x1="16.4379" y1="41.967" x2="17.3587" y2="43.1122" gradientUnits="userSpaceOnUse">
<stop stop-color="#C4C4C4" stop-opacity="0"/>
<stop offset="0.731853" stop-color="#DBF6FF" stop-opacity="0.46"/>
</linearGradient>
<linearGradient id="paint98_linear_1464_5229" x1="15.5938" y1="41.6034" x2="16.7271" y2="41.6696" gradientUnits="userSpaceOnUse">
<stop offset="0.223958" stop-color="#DBF6FF" stop-opacity="0.35"/>
<stop offset="1" stop-color="#C4C4C4" stop-opacity="0"/>
</linearGradient>
<linearGradient id="paint99_linear_1464_5229" x1="24.162" y1="-1.6541" x2="37.0705" y2="41.0431" gradientUnits="userSpaceOnUse">
<stop stop-color="white"/>
<stop offset="1" stop-color="white" stop-opacity="0"/>
</linearGradient>
</defs>
</svg>
