<svg width="61" height="49" viewBox="0 0 61 49" fill="none" xmlns="http://www.w3.org/2000/svg">
<g style="mix-blend-mode:screen">
<path d="M49.2441 31.7465C49.1156 31.7828 47.9662 32.9556 47.4076 33.5374L46.9237 34.2813C47.6275 34.1114 49.1311 33.6811 49.5145 33.3184C49.8978 32.9557 50.2974 31.8925 50.4492 31.4062L49.2441 31.7465Z" fill="url(#paint0_linear_1464_5846)"/>
<path d="M53.3875 12.0132C53.6433 11.3627 53.4496 10.4921 53.338 9.48268C53.2067 9.42723 52.3308 10.114 52.0372 13.5801L52.0911 14.6926C51.9896 15.3574 52.3472 14.6781 52.7042 14.2014C53.1591 12.9452 53.0677 12.8264 53.3875 12.0132Z" fill="url(#paint1_linear_1464_5846)"/>
<path d="M50.7509 9.22959C50.5833 9.04559 49.8709 8.26362 48.5769 7.67478L48.5769 7.67479C48.6374 7.88905 48.8114 8.505 49.7821 9.79231C49.9614 9.91518 50.8927 10.3462 51.4277 10.3975C51.5068 10.514 51.4496 10.3046 51.4551 10.1874C51.3066 9.59316 50.9185 9.41358 50.7509 9.22959Z" fill="url(#paint2_linear_1464_5846)"/>
<path fill-rule="evenodd" clip-rule="evenodd" d="M52.1684 22.0092C53.0259 15.8489 51.7534 9.90493 50.4283 6.24381L50.2943 6.28162C51.5995 9.88743 52.5732 15.8716 51.7274 21.9479C50.8825 28.018 48.065 34.2127 41.4784 38.3736L41.7162 38.75C48.4393 34.5029 51.3101 28.1757 52.1684 22.0092Z" fill="url(#paint3_linear_1464_5846)"/>
<path d="M51.3256 7.67892L52.7815 5.35938L52.9403 5.92176C53.1769 7.27182 52.4869 7.90039 52.2737 8.88592C52.103 9.67434 51.6225 10.13 51.4479 10.1601L51.256 9.17328L51.3256 7.67892Z" fill="url(#paint4_linear_1464_5846)"/>
<path fill-rule="evenodd" clip-rule="evenodd" d="M52.7558 5.40188C52.4519 6.57168 52.0705 7.97256 51.8433 8.28591C51.6365 8.57114 51.5041 9.35028 51.4284 10.0628L51.4476 10.162C51.6223 10.132 52.1028 9.67629 52.2734 8.88787C52.3454 8.55523 52.4717 8.26326 52.5983 7.97048C52.8469 7.39583 53.0968 6.81809 52.94 5.92372L52.7812 5.36133L52.7558 5.40188Z" fill="url(#paint5_linear_1464_5846)"/>
<path d="M49.5339 23.2494C49.492 22.9373 49.6678 21.1296 49.761 20.2648L49.9822 20.4336C50.951 22.3287 50.6533 23.4248 50.6543 24.3499C50.6552 25.2749 51.3191 26.9091 50.8046 26.4183C50.2901 25.9274 49.5862 23.6394 49.5339 23.2494Z" fill="url(#paint6_linear_1464_5846)"/>
<path fill-rule="evenodd" clip-rule="evenodd" d="M49.748 20.3863C49.9505 21.4051 50.2091 22.9013 50.2164 23.7213C50.2233 24.4889 50.4976 25.6041 50.7691 26.3819C50.781 26.3949 50.7928 26.4071 50.8046 26.4183C51.1032 26.7032 51.0048 26.2721 50.8695 25.6792C50.7717 25.2508 50.6547 24.7379 50.6543 24.3499C50.6541 24.1827 50.6637 24.0099 50.6738 23.8278C50.7195 23.0025 50.7759 21.9862 49.9822 20.4336L49.761 20.2648C49.7568 20.3035 49.7525 20.3441 49.748 20.3863Z" fill="url(#paint7_linear_1464_5846)"/>
<path d="M52.8845 17.7074C53.2101 17.2221 54.0225 16.4125 54.3879 16.0684C54.4239 16.81 54.1479 17.0614 54.0493 18.0435C53.9704 18.8292 52.8526 19.779 52.3035 20.1557C52.3615 19.5418 52.5588 18.1926 52.8845 17.7074Z" fill="url(#paint8_linear_1464_5846)"/>
<path fill-rule="evenodd" clip-rule="evenodd" d="M52.9175 17.6582C52.9059 17.6746 52.8948 17.6908 52.8842 17.7066C52.5585 18.1918 52.3612 19.541 52.3033 20.1549C52.4977 20.0215 52.7636 19.8161 53.0293 19.5717C53.1142 18.8862 53.0254 18.1664 52.9175 17.6582Z" fill="url(#paint9_linear_1464_5846)"/>
<path d="M53.6395 12.0859C53.8025 11.7622 54.4896 11.1711 54.8127 10.916C54.7443 11.6293 54.8956 12.5408 54.5176 13.6596C54.3613 14.1222 53.0455 15.4439 52.3544 16.0343L52.3865 15.5336C53.0853 14.5267 53.4356 12.4904 53.6395 12.0859Z" fill="url(#paint10_linear_1464_5846)"/>
<path d="M50.6656 14.6609C50.1478 13.9744 50.139 12.7277 50.1992 12.1902C51.0937 13.4123 51.5641 13.3373 52.0329 14.9977L52.0607 15.9152C51.8114 15.7832 51.1833 15.3475 50.6656 14.6609Z" fill="url(#paint11_linear_1464_5846)"/>
<path d="M51.6613 25.0494C52.5823 23.8871 54.4399 23.5226 55.2285 23.5505C53.4752 25.636 53.1487 24.8896 52.3482 25.4337C51.7077 25.869 51.2468 26.0049 51.1768 25.9958L51.6613 25.0494Z" fill="url(#paint12_linear_1464_5846)"/>
<path d="M53.2176 22.4696C53.4598 22.2624 55.1975 21.2551 56.0361 20.7773C55.1177 22.3379 54.3537 23.4211 53.7104 23.8052C53.1957 24.1124 51.9374 25.2407 51.3726 25.7665C51.3909 25.6264 51.4537 25.2752 51.5585 24.9911C51.6896 24.636 52.9148 22.7286 53.2176 22.4696Z" fill="url(#paint13_linear_1464_5846)"/>
<path d="M48.2198 26.6867C48.7151 27.7035 48.8906 29.3696 48.9165 30.0755L48.4842 31.412C48.215 30.6977 47.6809 29.1406 47.6978 28.6269C47.7147 28.1132 48.0528 27.1194 48.2198 26.6867Z" fill="url(#paint14_linear_1464_5846)"/>
<path d="M51.3449 27.3072C51.5047 27.0539 52.2721 26.631 52.6357 26.4512C52.6011 26.9429 52.3852 28.1239 51.7987 28.914C51.2121 29.7042 50.0886 30.1969 49.6002 30.3445C49.5585 30.231 49.5387 29.9628 49.793 29.7985C50.1109 29.593 51.1452 27.6239 51.3449 27.3072Z" fill="url(#paint15_linear_1464_5846)"/>
<path fill-rule="evenodd" clip-rule="evenodd" d="M49.6748 30.3208C50.8166 29.3233 51.997 27.5595 52.6329 26.4855C52.6338 26.4737 52.6347 26.4623 52.6355 26.4512C52.2718 26.631 51.5045 27.0539 51.3447 27.3072C51.2948 27.3864 51.1927 27.5688 51.0626 27.8012C50.6726 28.4982 50.0311 29.6444 49.7927 29.7985C49.5384 29.9628 49.5582 30.231 49.5999 30.3445C49.6234 30.3374 49.6484 30.3295 49.6748 30.3208Z" fill="url(#paint16_linear_1464_5846)"/>
<path d="M48.4004 35.1086C48.1745 34.9642 47.1886 34.7086 46.7239 34.5989L46.7438 34.3619C46.9452 34.3243 47.501 34.2175 48.113 34.0909C48.725 33.9644 49.4798 34.6303 49.7807 34.9791C49.4147 35.0824 48.6262 35.253 48.4004 35.1086Z" fill="url(#paint17_linear_1464_5846)"/>
<path d="M50.5015 3.22754C50.3926 2.84191 49.2059 1.91627 48.6262 1.50165L48.6322 3.26381C48.7078 3.53162 48.9588 4.1952 49.3578 4.70711C49.7568 5.21902 50.2569 6.08214 50.3616 6.41884L50.5223 6.37347C50.7932 5.28491 50.6376 3.70959 50.5015 3.22754Z" fill="url(#paint18_linear_1464_5846)"/>
<path fill-rule="evenodd" clip-rule="evenodd" d="M50.3851 6.29604C50.344 5.39145 49.3276 2.94138 48.6847 1.54318C48.6646 1.52864 48.6451 1.5146 48.6262 1.5011L48.6323 3.26326C48.7079 3.53106 48.9589 4.19465 49.3579 4.70656C49.7569 5.21847 50.2378 6.11593 50.3425 6.45263L50.3851 6.29604Z" fill="url(#paint19_linear_1464_5846)"/>
<g filter="url(#filter0_d_1464_5846)">
<path d="M50.8577 8.01458C50.8 7.89208 50.2504 6.74027 48.8038 5.96323C48.7645 6.30203 48.9645 7.26532 49.1767 7.85311C49.3889 8.44089 50.6888 9.49843 51.4249 10.0231C51.1868 9.14576 50.9154 8.13707 50.8577 8.01458Z" fill="url(#paint20_linear_1464_5846)"/>
<path fill-rule="evenodd" clip-rule="evenodd" d="M48.7992 6.03269C48.7998 6.00732 48.8014 5.98409 48.8038 5.96322C50.2504 6.74027 50.8 7.89207 50.8577 8.01457C50.9107 8.12703 51.1437 8.98635 51.3658 9.80528C51.3856 9.87839 51.4053 9.95119 51.4249 10.0231C51.3694 9.9836 51.3108 9.94108 51.2497 9.89597C50.4306 8.82211 49.383 7.06572 48.7992 6.03269Z" fill="url(#paint21_linear_1464_5846)"/>
</g>
<path fill-rule="evenodd" clip-rule="evenodd" d="M53.342 9.52344C53.2703 9.65939 53.1955 9.82429 53.1375 10.0036C52.9831 10.4809 52.0916 14.4917 52.1439 14.8817C52.1473 14.9071 52.1519 14.9288 52.1576 14.9471C52.2285 14.8884 52.3378 14.7281 52.4619 14.5463C52.5387 14.4336 52.6213 14.3126 52.7037 14.2024C52.9413 13.5465 53.0299 13.2007 53.1059 12.9042C53.1754 12.6329 53.2343 12.4028 53.3871 12.0143C53.5853 11.3418 53.5092 10.7829 53.4134 10.0804C53.3895 9.90503 53.3644 9.7207 53.342 9.52344Z" fill="url(#paint22_linear_1464_5846)"/>
<path fill-rule="evenodd" clip-rule="evenodd" d="M52.3648 15.8715C52.9364 15.3401 53.5205 14.5356 53.9146 13.3669C54.3464 12.0865 54.6289 11.384 54.804 11.0247C54.8064 10.988 54.8093 10.9518 54.8127 10.916C54.4896 11.1711 53.8025 11.7622 53.6395 12.0859C53.5742 12.2153 53.494 12.5118 53.3922 12.8882C53.1758 13.6881 52.8617 14.8489 52.3865 15.5336L52.3648 15.8715Z" fill="url(#paint23_linear_1464_5846)"/>
<path fill-rule="evenodd" clip-rule="evenodd" d="M50.2062 12.2008C50.497 12.597 50.7429 12.8562 50.9585 13.0834C51.4026 13.5514 51.7181 13.8839 52.0329 14.9987L52.0606 15.9162C52.0497 15.9104 52.038 15.904 52.0256 15.8971C51.2168 14.8874 50.5099 13.1211 50.2062 12.2008Z" fill="url(#paint24_linear_1464_5846)"/>
<g filter="url(#filter1_d_1464_5846)">
<path d="M52.2372 16.8486C52.12 16.8431 52.1355 16.8113 51.8093 16.767C50.6235 16.606 49.5504 15.1577 49.2909 14.095L50.3754 14.4538C52.0034 15.0582 52.3002 16.2525 52.2372 16.8486Z" fill="url(#paint25_linear_1464_5846)"/>
<path fill-rule="evenodd" clip-rule="evenodd" d="M49.3031 14.1448C49.2988 14.1288 49.2948 14.1128 49.2909 14.0969L50.3754 14.4558C52.0034 15.0602 52.3001 16.2545 52.2371 16.8506C52.2327 16.8504 52.2285 16.8501 52.2244 16.8498C51.7195 16.0332 50.1551 14.7713 49.3031 14.1448Z" fill="url(#paint26_linear_1464_5846)"/>
</g>
<g filter="url(#filter2_d_1464_5846)">
<path d="M53.6085 18.4279C53.8628 18.2636 55.5341 17.4986 56.3379 17.1367C55.4164 19.7102 54.0011 20.0231 53.6063 20.3659C52.7906 20.8564 52.1674 21.3119 51.9825 21.3738L52.1334 20.7818C52.5191 20.0656 53.3542 18.5923 53.6085 18.4279Z" fill="url(#paint27_linear_1464_5846)"/>
<path fill-rule="evenodd" clip-rule="evenodd" d="M56.3232 17.1758C55.5809 19.2187 54.5267 19.8184 53.9393 20.1526C53.7973 20.2334 53.6825 20.2986 53.6061 20.365C53.2342 20.5887 52.9023 20.8051 52.6337 20.9802C52.3611 21.1579 52.1537 21.2931 52.0359 21.3503C52.6077 20.1506 54.9487 18.2074 56.3232 17.1758Z" fill="url(#paint28_linear_1464_5846)"/>
</g>
<path fill-rule="evenodd" clip-rule="evenodd" d="M51.4808 25.2384C52.5031 24.1514 54.6783 22.0613 56.0283 20.7832C55.1869 21.2627 53.4588 22.2646 53.2173 22.4712C52.9145 22.7302 51.6892 24.6376 51.5582 24.9927C51.5291 25.0714 51.5033 25.1553 51.4808 25.2384Z" fill="url(#paint29_linear_1464_5846)"/>
<g filter="url(#filter3_d_1464_5846)">
<path d="M51.5871 24.3757C51.9515 23.2087 51.6986 22.1081 51.5265 21.7037L51.2417 22.3335C50.0874 23.8161 50.5715 25.6263 50.9579 26.3462C51.0158 26.1756 51.2226 25.5427 51.5871 24.3757Z" fill="url(#paint30_linear_1464_5846)"/>
<path fill-rule="evenodd" clip-rule="evenodd" d="M51.5311 21.7169C51.6034 22.428 51.4587 23.6304 50.7732 25.5901C50.8364 25.8716 50.8924 26.1134 50.9424 26.3191C50.9476 26.3291 50.9527 26.3388 50.9579 26.3484C51.0157 26.1778 51.2226 25.545 51.587 24.3779C51.9482 23.2214 51.703 22.1301 51.5311 21.7169Z" fill="url(#paint31_linear_1464_5846)"/>
</g>
<path fill-rule="evenodd" clip-rule="evenodd" d="M51.2087 25.9944C52.0115 25.0141 54.0924 24.0186 55.2102 23.5723C54.03 24.9708 53.5006 25.0782 53.0324 25.1732C52.8113 25.218 52.6039 25.2601 52.348 25.434C51.771 25.8262 51.3397 25.9754 51.2087 25.9944Z" fill="url(#paint32_linear_1464_5846)"/>
<path d="M50.4121 6.28962C50.8458 7.38162 51.8483 10.5973 52.2075 14.0815C52.4653 16.5821 52.6527 17.5413 52.1487 21.9631C52.0295 23.0088 51.5709 25.6309 50.6897 27.7534C50.2523 29.1396 48.6495 32.6322 45.7386 35.5129C44.904 36.3462 42.9309 38.1448 41.7153 38.6731" stroke="#FADA81" stroke-width="0.11131"/>
<g filter="url(#filter4_d_1464_5846)">
<path d="M50.0513 27.8468C50.0279 27.0727 50.1993 26.5616 50.1628 26.3984C49.1502 27.5229 48.5463 28.7633 48.4118 29.0037C48.3041 29.1961 48.5276 30.677 48.6528 31.3935L49.9707 29.1997C50.1263 28.3172 50.0791 28.7643 50.0513 27.8468Z" fill="url(#paint33_linear_1464_5846)"/>
<path fill-rule="evenodd" clip-rule="evenodd" d="M50.0566 26.5185C50.0915 26.4783 50.1269 26.4383 50.1628 26.3984C50.1773 26.4632 50.159 26.5828 50.1332 26.7519C50.0939 27.0088 50.0372 27.3799 50.0513 27.8468C50.0653 28.3102 50.0843 28.4255 50.0796 28.5398C50.0751 28.6518 50.0477 28.7629 49.9707 29.1997L48.6838 31.3419C48.6392 30.1476 49.5064 27.8008 50.0566 26.5185Z" fill="url(#paint34_linear_1464_5846)"/>
</g>
<g filter="url(#filter5_d_1464_5846)">
<path d="M51.8176 28.8804C52.3784 28.4907 53.3514 28.5436 53.7678 28.6188C53.8283 28.8331 52.7651 29.8466 52.2259 30.3265C52.0691 30.3515 51.6148 30.4355 51.0517 30.5713C50.4886 30.7072 49.8084 30.4694 49.5387 30.3335C50.0647 30.0115 51.2568 29.2701 51.8176 28.8804Z" fill="url(#paint35_linear_1464_5846)"/>
<path fill-rule="evenodd" clip-rule="evenodd" d="M49.7297 30.4173C49.654 30.3878 49.5892 30.3589 49.5387 30.3334C50.0647 30.0114 51.2568 29.27 51.8176 28.8803C52.3784 28.4906 53.3514 28.5436 53.7678 28.6188C53.7695 28.6247 53.7703 28.6311 53.7703 28.6382C53.2513 29.102 52.042 29.8017 49.7297 30.4173Z" fill="url(#paint36_linear_1464_5846)"/>
</g>
<g filter="url(#filter6_d_1464_5846)">
<path d="M47.9553 33.1237C48.5519 33.0246 50.0399 33.5085 50.7093 33.7629C49.3533 34.6952 49.3353 34.3243 48.4707 34.5395C47.7791 34.7117 47.2741 34.1931 47.1081 33.9123C47.1419 33.6907 47.3587 33.2227 47.9553 33.1237Z" fill="url(#paint37_linear_1464_5846)"/>
<path fill-rule="evenodd" clip-rule="evenodd" d="M47.1216 33.8496C48.819 33.524 50.0683 33.628 50.6992 33.771C49.7641 34.4126 49.469 34.4305 49.0867 34.4537C48.9189 34.4639 48.7341 34.4751 48.471 34.5406C48.4141 34.5548 48.3584 34.5642 48.3041 34.5696C48.1785 34.5611 48.0552 34.5521 47.935 34.5426C47.5221 34.4398 47.2277 34.1151 47.1083 33.9133C47.1113 33.8938 47.1157 33.8725 47.1216 33.8496Z" fill="url(#paint38_linear_1464_5846)"/>
</g>
</g>
<g style="mix-blend-mode:screen">
<path d="M11.0459 31.3598C11.1745 31.3961 12.3238 32.5689 12.8824 33.1507L13.3663 33.8946C12.6625 33.7247 11.1589 33.2944 10.7756 32.9317C10.3922 32.569 9.99267 31.5058 9.84082 31.0195L11.0459 31.3598Z" fill="url(#paint39_linear_1464_5846)"/>
<path d="M6.90228 11.6246C6.64646 10.974 6.84024 10.1034 6.95176 9.09401C7.08307 9.03856 7.95904 9.72536 8.25262 13.1914L8.19871 14.304C8.30017 14.9687 7.94258 14.2894 7.58562 13.8127C7.13069 12.5565 7.22206 12.4377 6.90228 11.6246Z" fill="url(#paint40_linear_1464_5846)"/>
<path d="M9.5389 8.84092C9.70652 8.65692 10.4189 7.87494 11.7129 7.28611L11.7129 7.28612C11.6524 7.50038 11.4784 8.11633 10.5077 9.40364C10.3284 9.52651 9.3971 9.9575 8.86212 10.0088C8.78297 10.1253 8.84017 9.91591 8.83472 9.7987C8.98323 9.20449 9.37128 9.02491 9.5389 8.84092Z" fill="url(#paint41_linear_1464_5846)"/>
<path fill-rule="evenodd" clip-rule="evenodd" d="M8.12138 21.6206C7.26389 15.4602 8.53639 9.51626 9.86154 5.85514L9.99545 5.89295C8.69031 9.49876 7.71658 15.4829 8.56237 21.5592C9.4073 27.6293 12.2248 33.824 18.8114 37.9849L18.5736 38.3613C11.8505 34.1142 8.97972 27.7871 8.12138 21.6206Z" fill="url(#paint42_linear_1464_5846)"/>
<path d="M8.96443 7.29025L7.50854 4.9707L7.34975 5.53309C7.11311 6.88314 7.8031 7.51171 8.01638 8.49725C8.18701 9.28567 8.6675 9.74135 8.84215 9.77139L9.03403 8.78461L8.96443 7.29025Z" fill="url(#paint43_linear_1464_5846)"/>
<path fill-rule="evenodd" clip-rule="evenodd" d="M7.53375 5.01321C7.83767 6.18301 8.21909 7.58389 8.44627 7.89724C8.65305 8.18247 8.78546 8.96161 8.8612 9.67414L8.8419 9.77334C8.66725 9.7433 8.18677 9.28762 8.01614 8.4992C7.94415 8.16656 7.81785 7.87458 7.69121 7.58181C7.44264 7.00716 7.19274 6.42942 7.3495 5.53505L7.5083 4.97266L7.53375 5.01321Z" fill="url(#paint44_linear_1464_5846)"/>
<path d="M10.7557 22.8607C10.7975 22.5487 10.6217 20.7409 10.5286 19.8761L10.3074 20.045C9.33854 21.9401 9.63626 23.0362 9.63529 23.9612C9.63433 24.8862 8.97046 26.5205 9.48497 26.0296C9.99948 25.5387 10.7034 23.2508 10.7557 22.8607Z" fill="url(#paint45_linear_1464_5846)"/>
<path fill-rule="evenodd" clip-rule="evenodd" d="M10.5416 19.9977C10.3391 21.0164 10.0805 22.5126 10.0731 23.3327C10.0662 24.1003 9.79196 25.2155 9.5205 25.9932C9.50856 26.0063 9.49672 26.0184 9.48497 26.0296C9.1863 26.3145 9.28472 25.8834 9.42004 25.2905C9.51783 24.8621 9.63489 24.3493 9.63529 23.9612C9.63547 23.794 9.62589 23.6212 9.61579 23.4392C9.57001 22.6139 9.51364 21.5975 10.3074 20.045L10.5286 19.8761C10.5327 19.9148 10.5371 19.9554 10.5416 19.9977Z" fill="url(#paint46_linear_1464_5846)"/>
<path d="M7.40556 17.3187C7.07992 16.8335 6.26757 16.0239 5.9021 15.6797C5.86617 16.4214 6.14216 16.6728 6.24076 17.6548C6.31964 18.4405 7.43745 19.3903 7.9865 19.7671C7.92854 19.1531 7.7312 17.8039 7.40556 17.3187Z" fill="url(#paint47_linear_1464_5846)"/>
<path fill-rule="evenodd" clip-rule="evenodd" d="M7.37207 17.2695C7.38366 17.286 7.39477 17.3021 7.40536 17.3179C7.731 17.8031 7.92834 19.1523 7.9863 19.7663C7.79182 19.6328 7.52598 19.4275 7.26022 19.183C7.17539 18.4975 7.26412 17.7777 7.37207 17.2695Z" fill="url(#paint48_linear_1464_5846)"/>
<path d="M6.65058 11.6991C6.4875 11.3755 5.80044 10.7844 5.47729 10.5293C5.54576 11.2426 5.3944 12.1541 5.77246 13.2729C5.92876 13.7354 7.24451 15.0572 7.93565 15.6476L7.90352 15.1469C7.20473 14.14 6.85441 12.1037 6.65058 11.6991Z" fill="url(#paint49_linear_1464_5846)"/>
<path d="M9.62447 14.2723C10.1422 13.5857 10.1511 12.339 10.0908 11.8015C9.19632 13.0237 8.72593 12.9487 8.25709 14.609L8.22935 15.5265C8.47867 15.3945 9.10675 14.9588 9.62447 14.2723Z" fill="url(#paint50_linear_1464_5846)"/>
<path d="M8.62871 24.6626C7.70774 23.5004 5.85018 23.1359 5.06157 23.1638C6.81487 25.2492 7.1413 24.5029 7.94187 25.047C8.58232 25.4823 9.04322 25.6182 9.11327 25.6091L8.62871 24.6626Z" fill="url(#paint51_linear_1464_5846)"/>
<path d="M7.0722 22.0809C6.82999 21.8737 5.09225 20.8664 4.25366 20.3887C5.17205 21.9492 5.93606 23.0324 6.57942 23.4165C7.0941 23.7237 8.35237 24.8521 8.91717 25.3778C8.8989 25.2377 8.83614 24.8865 8.73129 24.6024C8.60023 24.2474 7.37498 22.3399 7.0722 22.0809Z" fill="url(#paint52_linear_1464_5846)"/>
<path d="M12.07 26.298C11.5747 27.3148 11.3992 28.9809 11.3733 29.6868L11.8056 31.0234C12.0747 30.309 12.6089 28.7519 12.592 28.2382C12.5751 27.7245 12.237 26.7307 12.07 26.298Z" fill="url(#paint53_linear_1464_5846)"/>
<path d="M8.94486 26.9186C8.78506 26.6652 8.01774 26.2423 7.65405 26.0625C7.6887 26.5542 7.90463 27.7352 8.49114 28.5254C9.07765 29.3156 10.2012 29.8082 10.6896 29.9558C10.7313 29.8423 10.7511 29.5741 10.4968 29.4098C10.1789 29.2044 9.1446 27.2352 8.94486 26.9186Z" fill="url(#paint54_linear_1464_5846)"/>
<path fill-rule="evenodd" clip-rule="evenodd" d="M10.6148 29.9321C9.47294 28.9347 8.29254 27.1708 7.65668 26.0968C7.65571 26.085 7.65483 26.0736 7.65405 26.0625C8.01774 26.2423 8.78506 26.6652 8.94486 26.9186C8.99479 26.9977 9.09689 27.1802 9.22692 27.4125C9.61699 28.1095 10.2584 29.2557 10.4968 29.4098C10.7511 29.5741 10.7313 29.8423 10.6896 29.9558C10.6661 29.9487 10.6411 29.9408 10.6148 29.9321Z" fill="url(#paint55_linear_1464_5846)"/>
<path d="M11.8897 34.7199C12.1155 34.5755 13.1014 34.3199 13.5661 34.2102L13.5463 33.9733C13.3448 33.9357 12.789 33.8288 12.177 33.7023C11.565 33.5757 10.8103 34.2416 10.5094 34.5904C10.8754 34.6938 11.6638 34.8644 11.8897 34.7199Z" fill="url(#paint56_linear_1464_5846)"/>
<path d="M9.7881 2.83887C9.89699 2.45323 11.0837 1.52759 11.6634 1.11298L11.6574 2.87514C11.5818 3.14294 11.3308 3.80653 10.9318 4.31844C10.5328 4.83035 10.0326 5.69347 9.92793 6.03017L9.76725 5.9848C9.49631 4.89624 9.65198 3.32092 9.7881 2.83887Z" fill="url(#paint57_linear_1464_5846)"/>
<path fill-rule="evenodd" clip-rule="evenodd" d="M9.9045 5.90737C9.94552 5.00277 10.962 2.5527 11.6048 1.15451C11.6249 1.13996 11.6444 1.12593 11.6633 1.11243L11.6573 2.87459C11.5817 3.14239 11.3307 3.80598 10.9317 4.31789C10.5327 4.8298 10.0517 5.72726 9.94703 6.06396L9.9045 5.90737Z" fill="url(#paint58_linear_1464_5846)"/>
<g filter="url(#filter7_d_1464_5846)">
<path d="M9.43209 7.6259C9.48981 7.50341 10.0394 6.3516 11.486 5.57455C11.5253 5.91335 11.3253 6.87665 11.1131 7.46443C10.9009 8.05222 9.60104 9.10976 8.86494 9.63444C9.10304 8.75709 9.37437 7.7484 9.43209 7.6259Z" fill="url(#paint59_linear_1464_5846)"/>
<path fill-rule="evenodd" clip-rule="evenodd" d="M11.4906 5.64207C11.49 5.6167 11.4884 5.59346 11.486 5.5726C10.0394 6.34964 9.4898 7.50145 9.43208 7.62395C9.37909 7.7364 9.14608 8.59573 8.92402 9.41465C8.90419 9.48777 8.88445 9.56056 8.86494 9.63248C8.92036 9.59297 8.97897 9.55045 9.04008 9.50534C9.8592 8.43148 10.9067 6.6751 11.4906 5.64207Z" fill="url(#paint60_linear_1464_5846)"/>
</g>
<path fill-rule="evenodd" clip-rule="evenodd" d="M6.94751 9.13477C7.01928 9.27072 7.09406 9.43562 7.15204 9.61489C7.30642 10.0922 8.19798 14.103 8.14568 14.4931C8.14227 14.5185 8.13764 14.5402 8.13196 14.5584C8.06109 14.4998 7.95172 14.3394 7.82768 14.1576C7.7508 14.0449 7.66829 13.9239 7.58581 13.8138C7.34824 13.1578 7.25965 12.812 7.18369 12.5155C7.11419 12.2442 7.05526 12.0142 6.90247 11.6256C6.70421 10.9532 6.78039 10.3942 6.87612 9.69174C6.90002 9.51636 6.92514 9.33203 6.94751 9.13477Z" fill="url(#paint61_linear_1464_5846)"/>
<path fill-rule="evenodd" clip-rule="evenodd" d="M7.92472 15.4829C7.35311 14.9515 6.76907 14.147 6.37497 12.9783C5.9432 11.6978 5.66069 10.9953 5.48554 10.6361C5.48312 10.5993 5.48024 10.5631 5.47681 10.5273C5.79995 10.7824 6.48702 11.3736 6.65009 11.6972C6.71531 11.8266 6.79553 12.1231 6.89736 12.4995C7.11378 13.2994 7.42783 14.4602 7.90303 15.145L7.92472 15.4829Z" fill="url(#paint62_linear_1464_5846)"/>
<path fill-rule="evenodd" clip-rule="evenodd" d="M10.0834 11.8121C9.79253 12.2083 9.54662 12.4675 9.33102 12.6947C8.88695 13.1628 8.57147 13.4953 8.25668 14.6101L8.22894 15.5275C8.23988 15.5217 8.25156 15.5153 8.26392 15.5084C9.07274 14.4988 9.77961 12.7324 10.0834 11.8121Z" fill="url(#paint63_linear_1464_5846)"/>
<g filter="url(#filter8_d_1464_5846)">
<path d="M8.05239 16.4599C8.16959 16.4545 8.15409 16.4226 8.48025 16.3783C9.66609 16.2173 10.7391 14.769 10.9986 13.7063L9.91417 14.0651C8.28615 14.6695 7.98939 15.8638 8.05239 16.4599Z" fill="url(#paint64_linear_1464_5846)"/>
<path fill-rule="evenodd" clip-rule="evenodd" d="M10.9865 13.7542C10.9907 13.7382 10.9948 13.7222 10.9987 13.7064L9.91419 14.0652C8.28618 14.6696 7.98942 15.8639 8.05242 16.46C8.05684 16.4598 8.06108 16.4595 8.06515 16.4593C8.57003 15.6426 10.1344 14.3807 10.9865 13.7542Z" fill="url(#paint65_linear_1464_5846)"/>
</g>
<g filter="url(#filter9_d_1464_5846)">
<path d="M6.68129 18.0392C6.42697 17.8749 4.75573 17.11 3.9519 16.748C4.87343 19.3215 6.28869 19.6344 6.68346 19.9772C7.49916 20.4678 8.12235 20.9233 8.30729 20.9851L8.15638 20.3931C7.77065 19.677 6.93561 18.2036 6.68129 18.0392Z" fill="url(#paint66_linear_1464_5846)"/>
<path fill-rule="evenodd" clip-rule="evenodd" d="M3.96631 16.7871C4.70865 18.83 5.76283 19.4297 6.35027 19.7639C6.49228 19.8447 6.60702 19.91 6.68347 19.9764C7.05536 20.2 7.38723 20.4164 7.65581 20.5915C7.92843 20.7692 8.13582 20.9044 8.25364 20.9616C7.68185 19.7619 5.34087 17.8187 3.96631 16.7871Z" fill="url(#paint67_linear_1464_5846)"/>
</g>
<path fill-rule="evenodd" clip-rule="evenodd" d="M8.80879 24.8497C7.78642 23.7628 5.61126 21.6727 4.26123 20.3945C5.10263 20.874 6.83078 21.876 7.07228 22.0825C7.37505 22.3415 8.60031 24.2489 8.73137 24.604C8.76042 24.6827 8.78625 24.7666 8.80879 24.8497Z" fill="url(#paint68_linear_1464_5846)"/>
<g filter="url(#filter10_d_1464_5846)">
<path d="M8.70273 23.987C8.33828 22.82 8.59123 21.7194 8.76326 21.315L9.04806 21.9448C10.2024 23.4274 9.71826 25.2377 9.33187 25.9575C9.27401 25.7869 9.06718 25.1541 8.70273 23.987Z" fill="url(#paint69_linear_1464_5846)"/>
<path fill-rule="evenodd" clip-rule="evenodd" d="M8.75867 21.3283C8.6864 22.0393 8.83108 23.2418 9.51664 25.2015C9.4534 25.4829 9.3974 25.7247 9.34736 25.9305C9.3422 25.9404 9.33706 25.9501 9.33193 25.9597C9.27407 25.7891 9.06723 25.1563 8.70278 23.9893C8.3416 22.8327 8.5868 21.7414 8.75867 21.3283Z" fill="url(#paint70_linear_1464_5846)"/>
</g>
<path fill-rule="evenodd" clip-rule="evenodd" d="M9.08086 25.6057C8.27807 24.6254 6.19717 23.6299 5.07935 23.1836C6.25957 24.5821 6.78894 24.6895 7.25716 24.7845C7.47824 24.8293 7.68568 24.8714 7.94156 25.0453C8.5186 25.4375 8.94987 25.5867 9.08086 25.6057Z" fill="url(#paint71_linear_1464_5846)"/>
<path d="M9.87793 5.90094C9.44428 6.99295 8.44179 10.2087 8.08255 13.6928C7.82471 16.1935 7.63736 17.1526 8.14133 21.5744C8.26051 22.6202 8.71915 25.2422 9.60029 27.3647C10.0378 28.7509 11.6405 32.2435 14.5514 35.1242C15.386 35.9575 17.3591 37.7561 18.5747 38.2844" stroke="#FADA81" stroke-width="0.11131"/>
<g filter="url(#filter11_d_1464_5846)">
<path d="M10.2385 27.4581C10.2619 26.684 10.0905 26.173 10.127 26.0098C11.1396 27.1342 11.7435 28.3747 11.878 28.6151C11.9857 28.8074 11.7622 30.2884 11.637 31.0048L10.3191 28.811C10.1635 27.9285 10.2107 28.3756 10.2385 27.4581Z" fill="url(#paint72_linear_1464_5846)"/>
<path fill-rule="evenodd" clip-rule="evenodd" d="M10.2332 26.1298C10.1983 26.0897 10.1629 26.0496 10.127 26.0098C10.1125 26.0745 10.1308 26.1941 10.1566 26.3632C10.1959 26.6201 10.2526 26.9913 10.2385 27.4581C10.2244 27.9215 10.2055 28.0368 10.2101 28.1511C10.2147 28.2632 10.2421 28.3742 10.3191 28.811L11.606 30.9532C11.6506 29.7589 10.7834 27.4121 10.2332 26.1298Z" fill="url(#paint73_linear_1464_5846)"/>
</g>
<g filter="url(#filter12_d_1464_5846)">
<path d="M8.47198 28.4917C7.91117 28.102 6.93815 28.155 6.52174 28.2302C6.46124 28.4444 7.52446 29.4579 8.06364 29.9378C8.22043 29.9628 8.6748 30.0468 9.23788 30.1827C9.80096 30.3185 10.4811 30.0807 10.7508 29.9448C10.2249 29.6228 9.03279 28.8814 8.47198 28.4917Z" fill="url(#paint74_linear_1464_5846)"/>
<path fill-rule="evenodd" clip-rule="evenodd" d="M10.5599 30.0287C10.6356 29.9992 10.7004 29.9702 10.7508 29.9448C10.2249 29.6228 9.03279 28.8814 8.47198 28.4917C7.91117 28.102 6.93815 28.155 6.52174 28.2302C6.52008 28.236 6.51926 28.2425 6.51926 28.2496C7.03828 28.7133 8.24751 29.413 10.5599 30.0287Z" fill="url(#paint75_linear_1464_5846)"/>
</g>
<g filter="url(#filter13_d_1464_5846)">
<path d="M12.3343 32.733C11.7377 32.634 10.2497 33.1179 9.58028 33.3723C10.9363 34.3046 10.9543 33.9337 11.8188 34.1489C12.5104 34.3211 13.0154 33.8025 13.1815 33.5216C13.1477 33.3001 12.9309 32.8321 12.3343 32.733Z" fill="url(#paint76_linear_1464_5846)"/>
<path fill-rule="evenodd" clip-rule="evenodd" d="M13.1679 33.457C11.4706 33.1315 10.2212 33.2354 9.59036 33.3784C10.5255 34.02 10.8205 34.0379 11.2028 34.0611C11.3707 34.0713 11.5554 34.0825 11.8185 34.148C11.8755 34.1622 11.9312 34.1717 11.9855 34.177C12.1111 34.1685 12.2344 34.1595 12.3545 34.15C12.7675 34.0472 13.0619 33.7226 13.1812 33.5207C13.1782 33.5013 13.1739 33.4799 13.1679 33.457Z" fill="url(#paint77_linear_1464_5846)"/>
</g>
</g>
<g filter="url(#filter14_i_1464_5846)">
<path d="M30.1189 33.7507C30.2574 33.4794 30.645 33.4794 30.7834 33.7507L31.7532 35.6512C31.8074 35.7574 31.9091 35.8313 32.0268 35.85L34.1339 36.185C34.4347 36.2328 34.5545 36.6015 34.3393 36.817L32.8315 38.3265C32.7473 38.4109 32.7084 38.5305 32.727 38.6483L33.0595 40.7558C33.107 41.0566 32.7934 41.2844 32.5219 41.1463L30.6203 40.1788C30.514 40.1248 30.3883 40.1248 30.282 40.1788L28.3804 41.1463C28.109 41.2844 27.7954 41.0566 27.8429 40.7558L28.1754 38.6483C28.1939 38.5305 28.1551 38.4109 28.0708 38.3265L26.5631 36.817C26.3478 36.6015 26.4676 36.2328 26.7684 36.185L28.8755 35.85C28.9933 35.8313 29.095 35.7574 29.1492 35.6512L30.1189 33.7507Z" fill="#43628F"/>
</g>
<path d="M30.1189 33.7507C30.2574 33.4794 30.645 33.4794 30.7834 33.7507L31.7532 35.6512C31.8074 35.7574 31.9091 35.8313 32.0268 35.85L34.1339 36.185C34.4347 36.2328 34.5545 36.6015 34.3393 36.817L32.8315 38.3265C32.7473 38.4109 32.7084 38.5305 32.727 38.6483L33.0595 40.7558C33.107 41.0566 32.7934 41.2844 32.5219 41.1463L30.6203 40.1788C30.514 40.1248 30.3883 40.1248 30.282 40.1788L28.3804 41.1463C28.109 41.2844 27.7954 41.0566 27.8429 40.7558L28.1754 38.6483C28.1939 38.5305 28.1551 38.4109 28.0708 38.3265L26.5631 36.817C26.3478 36.6015 26.4676 36.2328 26.7684 36.185L28.8755 35.85C28.9933 35.8313 29.095 35.7574 29.1492 35.6512L30.1189 33.7507Z" fill="url(#paint78_linear_1464_5846)"/>
<path d="M30.119 33.7503C30.2574 33.4791 30.645 33.4791 30.7834 33.7503L31.7532 35.6508C31.8074 35.757 31.9091 35.8309 32.0269 35.8496L34.134 36.1846C34.4348 36.2325 34.5545 36.6011 34.3393 36.8166L32.8315 38.3262C32.7473 38.4105 32.7084 38.5301 32.727 38.6479L33.0595 40.7554C33.107 41.0562 32.7934 41.2841 32.5219 41.146L30.6203 40.1785C30.5141 40.1244 30.3883 40.1244 30.2821 40.1785L28.3805 41.146C28.109 41.2841 27.7954 41.0562 27.8429 40.7554L28.1754 38.6479C28.194 38.5301 28.1551 38.4105 28.0709 38.3262L26.5631 36.8166C26.3479 36.6011 26.4676 36.2325 26.7684 36.1846L28.8755 35.8496C28.9933 35.8309 29.095 35.757 29.1492 35.6508L30.119 33.7503Z" fill="url(#paint79_linear_1464_5846)"/>
<path d="M30.119 33.7503C30.2574 33.4791 30.645 33.4791 30.7834 33.7503L31.7532 35.6508C31.8074 35.757 31.9091 35.8309 32.0269 35.8496L34.134 36.1846C34.4348 36.2325 34.5545 36.6011 34.3393 36.8166L32.8315 38.3262C32.7473 38.4105 32.7084 38.5301 32.727 38.6479L33.0595 40.7554C33.107 41.0562 32.7934 41.2841 32.5219 41.146L30.6203 40.1785C30.5141 40.1244 30.3883 40.1244 30.2821 40.1785L28.3805 41.146C28.109 41.2841 27.7954 41.0562 27.8429 40.7554L28.1754 38.6479C28.194 38.5301 28.1551 38.4105 28.0709 38.3262L26.5631 36.8166C26.3479 36.6011 26.4676 36.2325 26.7684 36.1846L28.8755 35.8496C28.9933 35.8309 29.095 35.757 29.1492 35.6508L30.119 33.7503Z" fill="url(#paint80_radial_1464_5846)"/>
<path fill-rule="evenodd" clip-rule="evenodd" d="M31.6424 35.7073L30.6727 33.8068C30.5804 33.626 30.322 33.626 30.2297 33.8068L29.26 35.7073C29.1877 35.8489 29.0521 35.9474 28.8951 35.9724L26.7879 36.3074C26.5874 36.3393 26.5076 36.5851 26.6511 36.7287L28.1588 38.2383C28.2712 38.3508 28.323 38.5102 28.2982 38.6673L27.9657 40.7748C27.9341 40.9753 28.1431 41.1272 28.3241 41.0351L30.2257 40.0677C30.3674 39.9956 30.535 39.9956 30.6767 40.0677L32.5783 41.0351C32.7593 41.1272 32.9684 40.9753 32.9367 40.7748L32.6042 38.6673C32.5794 38.5102 32.6312 38.3508 32.7436 38.2383L34.2513 36.7287C34.3948 36.5851 34.315 36.3393 34.1145 36.3074L32.0073 35.9724C31.8503 35.9474 31.7147 35.8489 31.6424 35.7073ZM30.7834 33.7503C30.645 33.4791 30.2574 33.4791 30.119 33.7503L29.1492 35.6508C29.095 35.757 28.9933 35.8309 28.8755 35.8496L26.7684 36.1846C26.4676 36.2325 26.3479 36.6011 26.5631 36.8166L28.0709 38.3262C28.1551 38.4105 28.194 38.5301 28.1754 38.6479L27.8429 40.7554C27.7954 41.0562 28.109 41.2841 28.3805 41.146L30.2821 40.1785C30.3883 40.1244 30.5141 40.1244 30.6203 40.1785L32.5219 41.146C32.7934 41.2841 33.107 41.0562 33.0595 40.7554L32.727 38.6479C32.7084 38.5301 32.7473 38.4105 32.8315 38.3262L34.3393 36.8166C34.5545 36.6011 34.4348 36.2325 34.134 36.1846L32.0269 35.8496C31.9091 35.8309 31.8074 35.757 31.7532 35.6508L30.7834 33.7503Z" fill="url(#paint81_linear_1464_5846)"/>
<path d="M30.2896 35.6169C30.3614 35.4928 30.5406 35.4928 30.6124 35.6169L31.1804 36.5986C31.2068 36.6442 31.2513 36.6765 31.3029 36.6875L32.412 36.9244C32.5523 36.9543 32.6076 37.1248 32.5118 37.2314L31.7537 38.0749C31.7184 38.1142 31.7014 38.1665 31.7069 38.2189L31.8244 39.347C31.8393 39.4896 31.6943 39.5949 31.5632 39.5367L30.5267 39.0764C30.4785 39.055 30.4235 39.055 30.3753 39.0764L29.3388 39.5367C29.2077 39.5949 29.0627 39.4896 29.0776 39.347L29.1951 38.2189C29.2006 38.1665 29.1836 38.1142 29.1483 38.0749L28.3902 37.2314C28.2944 37.1248 28.3497 36.9543 28.49 36.9244L29.5991 36.6875C29.6507 36.6765 29.6952 36.6442 29.7216 36.5986L30.2896 35.6169Z" fill="url(#paint82_linear_1464_5846)"/>
<path d="M32.8189 37.0763C30.5688 39.2026 28.5592 38.2621 27.8357 37.5261C26.7351 35.8905 29.1503 37.199 31.2903 36.6265C33.0023 36.1685 33.0227 36.7356 32.8189 37.0763Z" fill="url(#paint83_linear_1464_5846)"/>
<path fill-rule="evenodd" clip-rule="evenodd" d="M30.1962 34.1741C30.2421 34.1973 30.2605 34.2534 30.2373 34.2994L29.9736 34.8205C29.9504 34.8664 29.8943 34.8848 29.8483 34.8616C29.8024 34.8383 29.784 34.7822 29.8072 34.7363L30.0709 34.2152C30.0941 34.1692 30.1502 34.1508 30.1962 34.1741Z" fill="#93D6F6"/>
<circle cx="26.97" cy="36.4253" r="0.0932487" fill="#93D6F6"/>
<circle cx="29.7673" cy="34.9956" r="0.0932487" fill="#93D6F6"/>
<path d="M29.5605 35.9587C28.8532 36.9607 29.106 37.5062 29.3208 37.6537C29.9731 37.9481 31.1618 36.2107 31.2423 35.751C31.3227 35.2912 30.4447 34.7064 29.5605 35.9587Z" fill="url(#paint84_linear_1464_5846)" fill-opacity="0.6"/>
<g filter="url(#filter15_i_1464_5846)">
<path d="M45.9522 39.186C46.2326 39.0672 46.5295 39.3163 46.4612 39.6131L45.9825 41.6923C45.9557 41.8085 45.9862 41.9305 46.0643 42.0205L47.4631 43.6316C47.6628 43.8616 47.5176 44.221 47.2142 44.2477L45.0889 44.4349C44.9701 44.4454 44.8635 44.512 44.802 44.6142L43.702 46.4424C43.545 46.7033 43.1583 46.6763 43.0392 46.396L42.2043 44.4325C42.1577 44.3228 42.0614 44.242 41.9452 44.2151L39.8666 43.7339C39.5699 43.6652 39.4761 43.2891 39.7058 43.0892L41.3152 41.6885C41.4052 41.6102 41.4523 41.4936 41.442 41.3748L41.2573 39.2492C41.2309 38.9458 41.5596 38.7404 41.8208 38.8971L43.6503 39.9949C43.7525 40.0563 43.8779 40.065 43.9877 40.0185L45.9522 39.186Z" fill="#43628F"/>
</g>
<path d="M45.9522 39.186C46.2326 39.0672 46.5295 39.3163 46.4612 39.6131L45.9825 41.6923C45.9557 41.8085 45.9862 41.9305 46.0643 42.0205L47.4631 43.6316C47.6628 43.8616 47.5176 44.221 47.2142 44.2477L45.0889 44.4349C44.9701 44.4454 44.8635 44.512 44.802 44.6142L43.702 46.4424C43.545 46.7033 43.1583 46.6763 43.0392 46.396L42.2043 44.4325C42.1577 44.3228 42.0614 44.242 41.9452 44.2151L39.8666 43.7339C39.5699 43.6652 39.4761 43.2891 39.7058 43.0892L41.3152 41.6885C41.4052 41.6102 41.4523 41.4936 41.442 41.3748L41.2573 39.2492C41.2309 38.9458 41.5596 38.7404 41.8208 38.8971L43.6503 39.9949C43.7525 40.0563 43.8779 40.065 43.9877 40.0185L45.9522 39.186Z" fill="url(#paint85_linear_1464_5846)"/>
<path d="M45.9522 39.1857C46.2326 39.0669 46.5295 39.3161 46.4612 39.6128L45.9825 41.692C45.9557 41.8082 45.9862 41.9302 46.0643 42.0203L47.4631 43.6313C47.6628 43.8613 47.5176 44.2207 47.2142 44.2474L45.0889 44.4346C44.9701 44.4451 44.8635 44.5117 44.802 44.6139L43.702 46.4421C43.545 46.703 43.1583 46.676 43.0392 46.3957L42.2043 44.4322C42.1577 44.3225 42.0614 44.2417 41.9452 44.2148L39.8666 43.7336C39.5699 43.6649 39.4761 43.2888 39.7058 43.0889L41.3152 41.6882C41.4052 41.6099 41.4523 41.4933 41.442 41.3745L41.2573 39.249C41.2309 38.9455 41.5596 38.7401 41.8208 38.8968L43.6503 39.9946C43.7525 40.056 43.8779 40.0647 43.9877 40.0182L45.9522 39.1857Z" fill="url(#paint86_linear_1464_5846)"/>
<path d="M45.9522 39.1857C46.2326 39.0669 46.5295 39.3161 46.4612 39.6128L45.9825 41.692C45.9557 41.8082 45.9862 41.9302 46.0643 42.0203L47.4631 43.6313C47.6628 43.8613 47.5176 44.2207 47.2142 44.2474L45.0889 44.4346C44.9701 44.4451 44.8635 44.5117 44.802 44.6139L43.702 46.4421C43.545 46.703 43.1583 46.676 43.0392 46.3957L42.2043 44.4322C42.1577 44.3225 42.0614 44.2417 41.9452 44.2148L39.8666 43.7336C39.5699 43.6649 39.4761 43.2888 39.7058 43.0889L41.3152 41.6882C41.4052 41.6099 41.4523 41.4933 41.442 41.3745L41.2573 39.249C41.2309 38.9455 41.5596 38.7401 41.8208 38.8968L43.6503 39.9946C43.7525 40.056 43.8779 40.0647 43.9877 40.0182L45.9522 39.1857Z" fill="url(#paint87_radial_1464_5846)"/>
<path fill-rule="evenodd" clip-rule="evenodd" d="M45.8613 41.6641L46.34 39.585C46.3856 39.3871 46.1876 39.221 46.0007 39.3002L44.0362 40.1327C43.8898 40.1947 43.7226 40.183 43.5863 40.1012L41.7568 39.0034C41.5827 38.899 41.3636 39.0359 41.3811 39.2382L41.5658 41.3638C41.5796 41.5221 41.5168 41.6776 41.3969 41.782L39.7875 43.1827C39.6343 43.316 39.6968 43.5667 39.8946 43.6125L41.9732 44.0937C42.1281 44.1295 42.2565 44.2373 42.3188 44.3836L43.1536 46.3471C43.233 46.5339 43.4908 46.5519 43.5955 46.378L44.6954 44.5498C44.7774 44.4136 44.9196 44.3247 45.0779 44.3108L47.2033 44.1236C47.4055 44.1057 47.5024 43.8661 47.3692 43.7128L45.9704 42.1018C45.8662 41.9817 45.8257 41.8191 45.8613 41.6641ZM46.4612 39.6128C46.5295 39.3161 46.2326 39.0669 45.9522 39.1857L43.9877 40.0182C43.8779 40.0647 43.7525 40.056 43.6503 39.9946L41.8208 38.8968C41.5596 38.7401 41.2309 38.9455 41.2573 39.249L41.442 41.3745C41.4523 41.4933 41.4052 41.6099 41.3152 41.6882L39.7058 43.0889C39.4761 43.2888 39.5699 43.6649 39.8666 43.7336L41.9452 44.2148C42.0614 44.2417 42.1577 44.3225 42.2043 44.4322L43.0392 46.3957C43.1583 46.676 43.545 46.703 43.702 46.4421L44.802 44.6139C44.8635 44.5117 44.9701 44.4451 45.0889 44.4346L47.2142 44.2474C47.5176 44.2207 47.6628 43.8613 47.4631 43.6313L46.0643 42.0203C45.9862 41.9302 45.9557 41.8082 45.9825 41.692L46.4612 39.6128Z" fill="url(#paint88_linear_1464_5846)"/>
<path d="M44.8837 40.7265C45.0185 40.6776 45.1558 40.7928 45.131 40.9341L44.9351 42.0511C44.926 42.1031 44.9393 42.1565 44.9717 42.198L45.6692 43.0924C45.7574 43.2055 45.6902 43.3716 45.5482 43.3917L44.4253 43.5506C44.3731 43.558 44.3264 43.5871 44.2969 43.6308L43.6618 44.5705C43.5815 44.6893 43.4027 44.6768 43.3397 44.548L42.8416 43.5291C42.8185 43.4817 42.7763 43.4463 42.7257 43.4318L41.6358 43.1181C41.4979 43.0785 41.4546 42.9046 41.5576 42.8049L42.3727 42.0163C42.4106 41.9796 42.4313 41.9286 42.4295 41.8759L42.3909 40.7424C42.3861 40.5991 42.538 40.5041 42.6647 40.5714L43.6666 41.1029C43.7132 41.1276 43.768 41.1314 43.8176 41.1134L44.8837 40.7265Z" fill="url(#paint89_linear_1464_5846)"/>
<path d="M45.8817 43.4692C42.7913 43.6517 41.8564 41.6395 41.7753 40.6106C41.9835 38.6502 42.9926 41.205 44.9999 42.1421C46.6058 42.8917 46.2569 43.3392 45.8817 43.4692Z" fill="url(#paint90_linear_1464_5846)"/>
<path fill-rule="evenodd" clip-rule="evenodd" d="M45.7393 39.559C45.7595 39.6064 45.7376 39.6612 45.6902 39.6814L45.1533 39.9112C45.106 39.9314 45.0512 39.9095 45.0309 39.8621C45.0106 39.8148 45.0326 39.76 45.0799 39.7397L45.6169 39.51C45.6642 39.4897 45.719 39.5117 45.7393 39.559Z" fill="#93D6F6"/>
<circle cx="41.8208" cy="39.2114" r="0.0932487" transform="rotate(40 41.8208 39.2114)" fill="#93D6F6"/>
<circle cx="44.8826" cy="39.9126" r="0.0932487" transform="rotate(40 44.8826 39.9126)" fill="#93D6F6"/>
<path d="M44.1055 40.518C42.9196 40.8309 42.7626 41.4112 42.8323 41.6623C43.1428 42.3072 45.1702 41.7404 45.5273 41.4399C45.8845 41.1394 45.5878 40.127 44.1055 40.518Z" fill="url(#paint91_linear_1464_5846)" fill-opacity="0.6"/>
<g filter="url(#filter16_i_1464_5846)">
<path d="M14.3031 39.626C14.2348 39.3292 14.5317 39.08 14.8122 39.1989L16.7766 40.0313C16.8864 40.0779 17.0118 40.0691 17.1141 40.0078L18.9436 38.91C19.2047 38.7533 19.5334 38.9587 19.5071 39.2621L19.3224 41.3877C19.3121 41.5064 19.3592 41.623 19.4491 41.7013L21.0585 43.102C21.2882 43.302 21.1945 43.6781 20.8977 43.7468L18.8191 44.2279C18.703 44.2548 18.6067 44.3356 18.56 44.4454L17.7252 46.4088C17.606 46.6891 17.2193 46.7162 17.0623 46.4552L15.9624 44.627C15.9009 44.5249 15.7943 44.4582 15.6755 44.4478L13.5501 44.2605C13.2468 44.2338 13.1015 43.8744 13.3012 43.6445L14.7 42.0334C14.7782 41.9433 14.8086 41.8214 14.7818 41.7052L14.3031 39.626Z" fill="#43628F"/>
</g>
<path d="M14.3031 39.626C14.2348 39.3292 14.5317 39.08 14.8122 39.1989L16.7766 40.0313C16.8864 40.0779 17.0118 40.0691 17.1141 40.0078L18.9436 38.91C19.2047 38.7533 19.5334 38.9587 19.5071 39.2621L19.3224 41.3877C19.3121 41.5064 19.3592 41.623 19.4491 41.7013L21.0585 43.102C21.2882 43.302 21.1945 43.6781 20.8977 43.7468L18.8191 44.2279C18.703 44.2548 18.6067 44.3356 18.56 44.4454L17.7252 46.4088C17.606 46.6891 17.2193 46.7162 17.0623 46.4552L15.9624 44.627C15.9009 44.5249 15.7943 44.4582 15.6755 44.4478L13.5501 44.2605C13.2468 44.2338 13.1015 43.8744 13.3012 43.6445L14.7 42.0334C14.7782 41.9433 14.8086 41.8214 14.7818 41.7052L14.3031 39.626Z" fill="url(#paint92_linear_1464_5846)"/>
<path d="M14.3033 39.626C14.235 39.3292 14.532 39.08 14.8124 39.1989L16.7768 40.0314C16.8866 40.0779 17.012 40.0691 17.1143 40.0078L18.9438 38.91C19.2049 38.7533 19.5336 38.9587 19.5073 39.2621L19.3226 41.3877C19.3123 41.5065 19.3594 41.623 19.4493 41.7013L21.0587 43.102C21.2884 43.302 21.1947 43.6781 20.898 43.7468L18.8194 44.2279C18.7032 44.2548 18.6069 44.3357 18.5602 44.4454L17.7254 46.4089C17.6062 46.6891 17.2195 46.7162 17.0625 46.4552L15.9626 44.627C15.9011 44.5249 15.7945 44.4582 15.6757 44.4478L13.5503 44.2606C13.247 44.2338 13.1018 43.8744 13.3014 43.6445L14.7002 42.0334C14.7784 41.9434 14.8088 41.8214 14.7821 41.7052L14.3033 39.626Z" fill="url(#paint93_linear_1464_5846)"/>
<path d="M14.3033 39.626C14.235 39.3292 14.532 39.08 14.8124 39.1989L16.7768 40.0314C16.8866 40.0779 17.012 40.0691 17.1143 40.0078L18.9438 38.91C19.2049 38.7533 19.5336 38.9587 19.5073 39.2621L19.3226 41.3877C19.3123 41.5065 19.3594 41.623 19.4493 41.7013L21.0587 43.102C21.2884 43.302 21.1947 43.6781 20.898 43.7468L18.8194 44.2279C18.7032 44.2548 18.6069 44.3357 18.5602 44.4454L17.7254 46.4089C17.6062 46.6891 17.2195 46.7162 17.0625 46.4552L15.9626 44.627C15.9011 44.5249 15.7945 44.4582 15.6757 44.4478L13.5503 44.2606C13.247 44.2338 13.1018 43.8744 13.3014 43.6445L14.7002 42.0334C14.7784 41.9434 14.8088 41.8214 14.7821 41.7052L14.3033 39.626Z" fill="url(#paint94_radial_1464_5846)"/>
<path fill-rule="evenodd" clip-rule="evenodd" d="M16.7283 40.1458L14.7639 39.3133C14.5769 39.2341 14.379 39.4002 14.4245 39.5981L14.9032 41.6773C14.9389 41.8322 14.8983 41.9949 14.7941 42.1149L13.3953 43.726C13.2622 43.8793 13.359 44.1189 13.5613 44.1367L15.6866 44.3239C15.845 44.3379 15.9871 44.4267 16.0691 44.5629L17.1691 46.3911C17.2737 46.5651 17.5315 46.5471 17.611 46.3602L18.4458 44.3967C18.508 44.2504 18.6364 44.1427 18.7913 44.1068L20.8699 43.6256C21.0677 43.5798 21.1302 43.3291 20.9771 43.1958L19.3677 41.7951C19.2478 41.6907 19.185 41.5353 19.1987 41.3769L19.3834 39.2513C19.401 39.0491 19.1818 38.9121 19.0077 39.0166L17.1783 40.1144C17.0419 40.1962 16.8747 40.2079 16.7283 40.1458ZM14.8124 39.1989C14.532 39.08 14.235 39.3292 14.3033 39.626L14.7821 41.7052C14.8088 41.8214 14.7784 41.9434 14.7002 42.0334L13.3014 43.6445C13.1018 43.8744 13.247 44.2338 13.5503 44.2606L15.6757 44.4478C15.7945 44.4582 15.9011 44.5249 15.9626 44.627L17.0625 46.4552C17.2195 46.7162 17.6062 46.6891 17.7254 46.4089L18.5602 44.4454C18.6069 44.3357 18.7032 44.2548 18.8194 44.2279L20.898 43.7468C21.1947 43.6781 21.2884 43.302 21.0587 43.102L19.4493 41.7013C19.3594 41.623 19.3123 41.5065 19.3226 41.3877L19.5073 39.2621C19.5336 38.9587 19.2049 38.7533 18.9438 38.91L17.1143 40.0078C17.012 40.0691 16.8866 40.0779 16.7768 40.0314L14.8124 39.1989Z" fill="url(#paint95_linear_1464_5846)"/>
<path d="M15.6333 40.9451C15.6085 40.8038 15.7458 40.6886 15.8806 40.7375L16.9467 41.1245C16.9962 41.1425 17.0511 41.1386 17.0977 41.1139L18.0996 40.5824C18.2263 40.5152 18.3782 40.6101 18.3734 40.7535L18.3348 41.8869C18.333 41.9396 18.3536 41.9906 18.3915 42.0273L19.2066 42.8159C19.3097 42.9156 19.2664 43.0895 19.1285 43.1292L18.0386 43.4428C17.9879 43.4574 17.9458 43.4927 17.9226 43.5401L17.4245 44.559C17.3616 44.6878 17.1828 44.7003 17.1025 44.5815L16.4674 43.6418C16.4379 43.5982 16.3912 43.569 16.339 43.5616L15.2161 43.4027C15.0741 43.3827 15.0069 43.2165 15.0951 43.1034L15.7925 42.2091C15.825 42.1675 15.8383 42.1141 15.8292 42.0622L15.6333 40.9451Z" fill="url(#paint96_linear_1464_5846)"/>
<path d="M18.5102 40.4396C18.1533 43.5148 16.0094 44.0861 14.982 43.9873C13.0876 43.4418 15.7788 42.8917 17.0501 41.0776C18.0672 39.6263 18.4473 40.0476 18.5102 40.4396Z" fill="url(#paint97_linear_1464_5846)"/>
<path fill-rule="evenodd" clip-rule="evenodd" d="M14.6343 39.901C14.6845 39.8892 14.7347 39.9204 14.7464 39.9705L14.8794 40.5392C14.8911 40.5893 14.8599 40.6395 14.8098 40.6512C14.7597 40.6629 14.7095 40.6318 14.6978 40.5817L14.5648 40.013C14.5531 39.9629 14.5842 39.9127 14.6343 39.901Z" fill="#93D6F6"/>
<circle cx="13.6101" cy="43.699" r="0.0932487" transform="rotate(-40 13.6101 43.699)" fill="#93D6F6"/>
<circle cx="14.834" cy="40.8064" r="0.0932487" transform="rotate(-40 14.834 40.8064)" fill="#93D6F6"/>
<path d="M15.2946 41.6756C15.3967 42.8978 15.941 43.1532 16.2004 43.1281C16.8894 42.9343 16.6832 40.8393 16.4493 40.4354C16.2154 40.0315 15.1668 40.1479 15.2946 41.6756Z" fill="url(#paint98_linear_1464_5846)" fill-opacity="0.6"/>
<g style="mix-blend-mode:hard-light">
<path d="M30.1191 33.7503C30.2575 33.4791 30.6452 33.4791 30.7836 33.7503L31.7533 35.6508C31.8075 35.757 31.9093 35.8309 32.027 35.8496L34.1341 36.1846C34.4349 36.2325 34.5547 36.6011 34.3395 36.8166L32.8317 38.3262C32.7474 38.4105 32.7086 38.5301 32.7272 38.6479L33.0597 40.7554C33.1071 41.0562 32.7935 41.2841 32.5221 41.146L30.6205 40.1785C30.5142 40.1244 30.3885 40.1244 30.2822 40.1785L28.3806 41.146C28.1092 41.2841 27.7956 41.0562 27.843 40.7554L28.1755 38.6479C28.1941 38.5301 28.1553 38.4105 28.071 38.3262L26.5632 36.8166C26.348 36.6011 26.4678 36.2325 26.7686 36.1846L28.8757 35.8496C28.9934 35.8309 29.0952 35.757 29.1494 35.6508L30.1191 33.7503Z" fill="#C6C6C6"/>
<path d="M45.9524 39.1874C46.2328 39.0685 46.5298 39.3177 46.4614 39.6145L45.9827 41.6937C45.956 41.8099 45.9864 41.9319 46.0646 42.0219L47.4634 43.633C47.663 43.8629 47.5178 44.2223 47.2144 44.2491L45.0891 44.4363C44.9703 44.4467 44.8637 44.5134 44.8022 44.6155L43.7023 46.4437C43.5452 46.7047 43.1586 46.6776 43.0394 46.3974L42.2046 44.4339C42.1579 44.3242 42.0616 44.2433 41.9454 44.2164L39.8668 43.7353C39.5701 43.6666 39.4763 43.2905 39.7061 43.0905L41.3155 41.6898C41.4054 41.6115 41.4525 41.495 41.4422 41.3762L41.2575 39.2506C41.2311 38.9472 41.5599 38.7418 41.821 38.8985L43.6505 39.9963C43.7528 40.0576 43.8782 40.0664 43.988 40.0199L45.9524 39.1874Z" fill="#C6C6C6"/>
<path d="M14.8123 39.1992C14.5319 39.0804 14.2349 39.3295 14.3033 39.6263L14.782 41.7055C14.8087 41.8217 14.7783 41.9437 14.7001 42.0337L13.3013 43.6448C13.1017 43.8748 13.2469 44.2342 13.5503 44.2609L15.6756 44.4481C15.7944 44.4586 15.901 44.5252 15.9625 44.6274L17.0624 46.4556C17.2195 46.7165 17.6061 46.6895 17.7253 46.4092L18.5601 44.4457C18.6068 44.336 18.7031 44.2552 18.8193 44.2283L20.8979 43.7471C21.1946 43.6784 21.2884 43.3023 21.0586 43.1024L19.4492 41.7017C19.3593 41.6234 19.3122 41.5068 19.3225 41.388L19.5072 39.2624C19.5336 38.959 19.2048 38.7536 18.9437 38.9103L17.1142 40.0081C17.0119 40.0695 16.8865 40.0782 16.7767 40.0317L14.8123 39.1992Z" fill="#C6C6C6"/>
</g>
<path fill-rule="evenodd" clip-rule="evenodd" d="M23.5194 36.8131L23.5233 36.8191L23.5271 36.825C24.8764 38.8825 27.1935 39.7191 29.9618 39.7191C32.8973 39.7191 35.3206 38.8039 36.7827 36.646C38.1287 34.6767 38.6974 31.9616 38.6974 28.7082C38.6974 27.3113 38.5888 26.029 38.3599 24.8709C38.1244 23.6665 37.7185 22.5778 37.1123 21.6382C36.9174 21.3361 36.7002 21.0564 36.4618 20.7994C36.9914 20.2626 37.4178 19.6138 37.7388 18.8673L37.7399 18.8648L37.741 18.8623C38.3593 17.4099 38.6428 15.7457 38.6428 13.9097C38.6428 10.9345 38.053 8.42708 36.6223 6.64254C35.1206 4.76955 32.8381 3.97266 30.1256 3.97266C27.3894 3.97266 25.0773 4.73897 23.6778 6.66119C22.3971 8.42032 21.8814 10.9228 21.8814 13.9097L21.8814 16.4019H29.5781V13.9461C29.5781 12.966 29.6364 12.2524 29.7301 11.7685C29.8173 11.3622 29.9209 11.2349 29.9318 11.2214C29.9324 11.2206 29.9327 11.2202 29.9327 11.2202L29.9422 11.2118L29.9534 11.2015L29.954 11.2011C29.9554 11.2003 29.963 11.196 29.9797 11.1904C30.0139 11.1788 30.0925 11.1597 30.2348 11.1597C30.4201 11.1597 30.4926 11.2028 30.5304 11.2308L30.5392 11.2373C30.545 11.2448 30.555 11.2587 30.5683 11.2812C30.6096 11.3506 30.669 11.4785 30.7283 11.6906C30.8432 12.101 30.9279 12.814 30.9279 13.9097C30.9279 15.0894 30.8397 15.9617 30.6955 16.5677L30.6934 16.5761L30.6915 16.5846C30.5692 17.1264 30.395 17.3312 30.3026 17.4066C30.2327 17.4616 30.0082 17.588 29.4339 17.588H26.5958L26.5958 24.2836L29.4703 24.2836C30.0343 24.2836 30.2269 24.4225 30.2858 24.478C30.3858 24.5723 30.5861 24.8551 30.715 25.5693L30.7157 25.5729C30.8506 26.3098 30.9279 27.3383 30.9279 28.69C30.9279 29.8356 30.869 30.7503 30.7627 31.4518L30.7613 31.4612L30.76 31.4706C30.6733 32.097 30.5244 32.3883 30.438 32.5017C30.435 32.5038 30.4294 32.5069 30.4182 32.5114C30.3871 32.5238 30.2998 32.5503 30.1256 32.5503C29.9171 32.5503 29.7999 32.5237 29.7469 32.5058C29.7406 32.5036 29.7354 32.5017 29.7312 32.5001C29.6952 32.4492 29.5909 32.2677 29.5272 31.8138C29.4434 31.2171 29.396 30.4072 29.396 29.3635V25.6516L21.845 25.6516L21.845 29.236C21.845 32.3651 22.3322 34.9647 23.5194 36.8131ZM36.8968 25.1587C36.6905 24.103 36.3447 23.1989 35.8593 22.4466C35.3739 21.6942 34.7065 21.1239 33.857 20.7356V20.7356C34.4052 20.9862 34.8776 21.3126 35.2742 21.7148C35.4921 21.9358 35.6871 22.1797 35.8593 22.4466C36.3447 23.1989 36.6905 24.103 36.8968 25.1587ZM29.4339 19.0791V19.0791Z" fill="url(#paint99_linear_1464_5846)"/>
<defs>
<filter id="filter0_d_1464_5846" x="48.6518" y="5.96289" width="2.92" height="4.50159" filterUnits="userSpaceOnUse" color-interpolation-filters="sRGB">
<feFlood flood-opacity="0" result="BackgroundImageFix"/>
<feColorMatrix in="SourceAlpha" type="matrix" values="0 0 0 0 0 0 0 0 0 0 0 0 0 0 0 0 0 0 127 0" result="hardAlpha"/>
<feOffset dy="0.294028"/>
<feGaussianBlur stdDeviation="0.0735069"/>
<feColorMatrix type="matrix" values="0 0 0 0 0.541667 0 0 0 0 0.336104 0 0 0 0 0.0947917 0 0 0 0.25 0"/>
<feBlend mode="normal" in2="BackgroundImageFix" result="effect1_dropShadow_1464_5846"/>
<feBlend mode="normal" in="SourceGraphic" in2="effect1_dropShadow_1464_5846" result="shape"/>
</filter>
<filter id="filter1_d_1464_5846" x="49.144" y="14.0957" width="3.24789" height="3.19495" filterUnits="userSpaceOnUse" color-interpolation-filters="sRGB">
<feFlood flood-opacity="0" result="BackgroundImageFix"/>
<feColorMatrix in="SourceAlpha" type="matrix" values="0 0 0 0 0 0 0 0 0 0 0 0 0 0 0 0 0 0 127 0" result="hardAlpha"/>
<feOffset dy="0.294028"/>
<feGaussianBlur stdDeviation="0.0735069"/>
<feColorMatrix type="matrix" values="0 0 0 0 0.541667 0 0 0 0 0.336104 0 0 0 0 0.0947917 0 0 0 0.25 0"/>
<feBlend mode="normal" in2="BackgroundImageFix" result="effect1_dropShadow_1464_5846"/>
<feBlend mode="normal" in="SourceGraphic" in2="effect1_dropShadow_1464_5846" result="shape"/>
</filter>
<filter id="filter2_d_1464_5846" x="51.9824" y="17.1367" width="4.79651" height="4.67737" filterUnits="userSpaceOnUse" color-interpolation-filters="sRGB">
<feFlood flood-opacity="0" result="BackgroundImageFix"/>
<feColorMatrix in="SourceAlpha" type="matrix" values="0 0 0 0 0 0 0 0 0 0 0 0 0 0 0 0 0 0 127 0" result="hardAlpha"/>
<feOffset dx="0.294028" dy="0.294028"/>
<feGaussianBlur stdDeviation="0.0735069"/>
<feColorMatrix type="matrix" values="0 0 0 0 0.541667 0 0 0 0 0.336104 0 0 0 0 0.0947917 0 0 0 0.25 0"/>
<feBlend mode="normal" in2="BackgroundImageFix" result="effect1_dropShadow_1464_5846"/>
<feBlend mode="normal" in="SourceGraphic" in2="effect1_dropShadow_1464_5846" result="shape"/>
</filter>
<filter id="filter3_d_1464_5846" x="50.3728" y="21.7031" width="1.54769" height="5.08557" filterUnits="userSpaceOnUse" color-interpolation-filters="sRGB">
<feFlood flood-opacity="0" result="BackgroundImageFix"/>
<feColorMatrix in="SourceAlpha" type="matrix" values="0 0 0 0 0 0 0 0 0 0 0 0 0 0 0 0 0 0 127 0" result="hardAlpha"/>
<feOffset dy="0.294028"/>
<feGaussianBlur stdDeviation="0.0735069"/>
<feColorMatrix type="matrix" values="0 0 0 0 0.541667 0 0 0 0 0.336104 0 0 0 0 0.0947917 0 0 0 0.25 0"/>
<feBlend mode="normal" in2="BackgroundImageFix" result="effect1_dropShadow_1464_5846"/>
<feBlend mode="normal" in="SourceGraphic" in2="effect1_dropShadow_1464_5846" result="shape"/>
</filter>
<filter id="filter4_d_1464_5846" x="48.2363" y="26.3984" width="2.0787" height="5.43518" filterUnits="userSpaceOnUse" color-interpolation-filters="sRGB">
<feFlood flood-opacity="0" result="BackgroundImageFix"/>
<feColorMatrix in="SourceAlpha" type="matrix" values="0 0 0 0 0 0 0 0 0 0 0 0 0 0 0 0 0 0 127 0" result="hardAlpha"/>
<feOffset dy="0.294028"/>
<feGaussianBlur stdDeviation="0.0735069"/>
<feColorMatrix type="matrix" values="0 0 0 0 0.541667 0 0 0 0 0.336104 0 0 0 0 0.0947917 0 0 0 0.25 0"/>
<feBlend mode="normal" in2="BackgroundImageFix" result="effect1_dropShadow_1464_5846"/>
<feBlend mode="normal" in="SourceGraphic" in2="effect1_dropShadow_1464_5846" result="shape"/>
</filter>
<filter id="filter5_d_1464_5846" x="49.5388" y="28.5664" width="4.67249" height="2.48596" filterUnits="userSpaceOnUse" color-interpolation-filters="sRGB">
<feFlood flood-opacity="0" result="BackgroundImageFix"/>
<feColorMatrix in="SourceAlpha" type="matrix" values="0 0 0 0 0 0 0 0 0 0 0 0 0 0 0 0 0 0 127 0" result="hardAlpha"/>
<feOffset dx="0.294028" dy="0.294028"/>
<feGaussianBlur stdDeviation="0.0735069"/>
<feColorMatrix type="matrix" values="0 0 0 0 0.541667 0 0 0 0 0.336104 0 0 0 0 0.0947917 0 0 0 0.25 0"/>
<feBlend mode="normal" in2="BackgroundImageFix" result="effect1_dropShadow_1464_5846"/>
<feBlend mode="normal" in="SourceGraphic" in2="effect1_dropShadow_1464_5846" result="shape"/>
</filter>
<filter id="filter6_d_1464_5846" x="46.9611" y="33.1113" width="3.8951" height="1.90393" filterUnits="userSpaceOnUse" color-interpolation-filters="sRGB">
<feFlood flood-opacity="0" result="BackgroundImageFix"/>
<feColorMatrix in="SourceAlpha" type="matrix" values="0 0 0 0 0 0 0 0 0 0 0 0 0 0 0 0 0 0 127 0" result="hardAlpha"/>
<feOffset dy="0.294027"/>
<feGaussianBlur stdDeviation="0.0735068"/>
<feColorMatrix type="matrix" values="0 0 0 0 0.541667 0 0 0 0 0.336104 0 0 0 0 0.0947917 0 0 0 0.25 0"/>
<feBlend mode="normal" in2="BackgroundImageFix" result="effect1_dropShadow_1464_5846"/>
<feBlend mode="normal" in="SourceGraphic" in2="effect1_dropShadow_1464_5846" result="shape"/>
</filter>
<filter id="filter7_d_1464_5846" x="8.71798" y="5.57227" width="2.92" height="4.50354" filterUnits="userSpaceOnUse" color-interpolation-filters="sRGB">
<feFlood flood-opacity="0" result="BackgroundImageFix"/>
<feColorMatrix in="SourceAlpha" type="matrix" values="0 0 0 0 0 0 0 0 0 0 0 0 0 0 0 0 0 0 127 0" result="hardAlpha"/>
<feOffset dy="0.294028"/>
<feGaussianBlur stdDeviation="0.0735069"/>
<feColorMatrix type="matrix" values="0 0 0 0 0.541667 0 0 0 0 0.336104 0 0 0 0 0.0947917 0 0 0 0.25 0"/>
<feBlend mode="normal" in2="BackgroundImageFix" result="effect1_dropShadow_1464_5846"/>
<feBlend mode="normal" in="SourceGraphic" in2="effect1_dropShadow_1464_5846" result="shape"/>
</filter>
<filter id="filter8_d_1464_5846" x="7.89766" y="13.707" width="3.24813" height="3.19495" filterUnits="userSpaceOnUse" color-interpolation-filters="sRGB">
<feFlood flood-opacity="0" result="BackgroundImageFix"/>
<feColorMatrix in="SourceAlpha" type="matrix" values="0 0 0 0 0 0 0 0 0 0 0 0 0 0 0 0 0 0 127 0" result="hardAlpha"/>
<feOffset dy="0.294028"/>
<feGaussianBlur stdDeviation="0.0735069"/>
<feColorMatrix type="matrix" values="0 0 0 0 0.541667 0 0 0 0 0.336104 0 0 0 0 0.0947917 0 0 0 0.25 0"/>
<feBlend mode="normal" in2="BackgroundImageFix" result="effect1_dropShadow_1464_5846"/>
<feBlend mode="normal" in="SourceGraphic" in2="effect1_dropShadow_1464_5846" result="shape"/>
</filter>
<filter id="filter9_d_1464_5846" x="3.9519" y="16.748" width="4.79651" height="4.67737" filterUnits="userSpaceOnUse" color-interpolation-filters="sRGB">
<feFlood flood-opacity="0" result="BackgroundImageFix"/>
<feColorMatrix in="SourceAlpha" type="matrix" values="0 0 0 0 0 0 0 0 0 0 0 0 0 0 0 0 0 0 127 0" result="hardAlpha"/>
<feOffset dx="0.294028" dy="0.294028"/>
<feGaussianBlur stdDeviation="0.0735069"/>
<feColorMatrix type="matrix" values="0 0 0 0 0.541667 0 0 0 0 0.336104 0 0 0 0 0.0947917 0 0 0 0.25 0"/>
<feBlend mode="normal" in2="BackgroundImageFix" result="effect1_dropShadow_1464_5846"/>
<feBlend mode="normal" in="SourceGraphic" in2="effect1_dropShadow_1464_5846" result="shape"/>
</filter>
<filter id="filter10_d_1464_5846" x="8.36934" y="21.3145" width="1.54769" height="5.08557" filterUnits="userSpaceOnUse" color-interpolation-filters="sRGB">
<feFlood flood-opacity="0" result="BackgroundImageFix"/>
<feColorMatrix in="SourceAlpha" type="matrix" values="0 0 0 0 0 0 0 0 0 0 0 0 0 0 0 0 0 0 127 0" result="hardAlpha"/>
<feOffset dy="0.294028"/>
<feGaussianBlur stdDeviation="0.0735069"/>
<feColorMatrix type="matrix" values="0 0 0 0 0.541667 0 0 0 0 0.336104 0 0 0 0 0.0947917 0 0 0 0.25 0"/>
<feBlend mode="normal" in2="BackgroundImageFix" result="effect1_dropShadow_1464_5846"/>
<feBlend mode="normal" in="SourceGraphic" in2="effect1_dropShadow_1464_5846" result="shape"/>
</filter>
<filter id="filter11_d_1464_5846" x="9.97481" y="26.0098" width="2.0787" height="5.43518" filterUnits="userSpaceOnUse" color-interpolation-filters="sRGB">
<feFlood flood-opacity="0" result="BackgroundImageFix"/>
<feColorMatrix in="SourceAlpha" type="matrix" values="0 0 0 0 0 0 0 0 0 0 0 0 0 0 0 0 0 0 127 0" result="hardAlpha"/>
<feOffset dy="0.294028"/>
<feGaussianBlur stdDeviation="0.0735069"/>
<feColorMatrix type="matrix" values="0 0 0 0 0.541667 0 0 0 0 0.336104 0 0 0 0 0.0947917 0 0 0 0.25 0"/>
<feBlend mode="normal" in2="BackgroundImageFix" result="effect1_dropShadow_1464_5846"/>
<feBlend mode="normal" in="SourceGraphic" in2="effect1_dropShadow_1464_5846" result="shape"/>
</filter>
<filter id="filter12_d_1464_5846" x="6.51929" y="28.1777" width="4.67249" height="2.48596" filterUnits="userSpaceOnUse" color-interpolation-filters="sRGB">
<feFlood flood-opacity="0" result="BackgroundImageFix"/>
<feColorMatrix in="SourceAlpha" type="matrix" values="0 0 0 0 0 0 0 0 0 0 0 0 0 0 0 0 0 0 127 0" result="hardAlpha"/>
<feOffset dx="0.294028" dy="0.294028"/>
<feGaussianBlur stdDeviation="0.0735069"/>
<feColorMatrix type="matrix" values="0 0 0 0 0.541667 0 0 0 0 0.336104 0 0 0 0 0.0947917 0 0 0 0.25 0"/>
<feBlend mode="normal" in2="BackgroundImageFix" result="effect1_dropShadow_1464_5846"/>
<feBlend mode="normal" in="SourceGraphic" in2="effect1_dropShadow_1464_5846" result="shape"/>
</filter>
<filter id="filter13_d_1464_5846" x="9.43331" y="32.7207" width="3.8951" height="1.90393" filterUnits="userSpaceOnUse" color-interpolation-filters="sRGB">
<feFlood flood-opacity="0" result="BackgroundImageFix"/>
<feColorMatrix in="SourceAlpha" type="matrix" values="0 0 0 0 0 0 0 0 0 0 0 0 0 0 0 0 0 0 127 0" result="hardAlpha"/>
<feOffset dy="0.294027"/>
<feGaussianBlur stdDeviation="0.0735068"/>
<feColorMatrix type="matrix" values="0 0 0 0 0.541667 0 0 0 0 0.336104 0 0 0 0 0.0947917 0 0 0 0.25 0"/>
<feBlend mode="normal" in2="BackgroundImageFix" result="effect1_dropShadow_1464_5846"/>
<feBlend mode="normal" in="SourceGraphic" in2="effect1_dropShadow_1464_5846" result="shape"/>
</filter>
<filter id="filter14_i_1464_5846" x="26.4536" y="32.9252" width="7.99512" height="8.26228" filterUnits="userSpaceOnUse" color-interpolation-filters="sRGB">
<feFlood flood-opacity="0" result="BackgroundImageFix"/>
<feBlend mode="normal" in="SourceGraphic" in2="BackgroundImageFix" result="shape"/>
<feColorMatrix in="SourceAlpha" type="matrix" values="0 0 0 0 0 0 0 0 0 0 0 0 0 0 0 0 0 0 127 0" result="hardAlpha"/>
<feOffset dy="-0.621658"/>
<feGaussianBlur stdDeviation="0.777072"/>
<feComposite in2="hardAlpha" operator="arithmetic" k2="-1" k3="1"/>
<feColorMatrix type="matrix" values="0 0 0 0 0.595833 0 0 0 0 0.83025 0 0 0 0 1 0 0 0 1 0"/>
<feBlend mode="normal" in2="shape" result="effect1_innerShadow_1464_5846"/>
</filter>
<filter id="filter15_i_1464_5846" x="39.5774" y="38.2221" width="7.97754" height="8.40095" filterUnits="userSpaceOnUse" color-interpolation-filters="sRGB">
<feFlood flood-opacity="0" result="BackgroundImageFix"/>
<feBlend mode="normal" in="SourceGraphic" in2="BackgroundImageFix" result="shape"/>
<feColorMatrix in="SourceAlpha" type="matrix" values="0 0 0 0 0 0 0 0 0 0 0 0 0 0 0 0 0 0 127 0" result="hardAlpha"/>
<feOffset dy="-0.621658"/>
<feGaussianBlur stdDeviation="0.777072"/>
<feComposite in2="hardAlpha" operator="arithmetic" k2="-1" k3="1"/>
<feColorMatrix type="matrix" values="0 0 0 0 0.595833 0 0 0 0 0.83025 0 0 0 0 1 0 0 0 1 0"/>
<feBlend mode="normal" in2="shape" result="effect1_innerShadow_1464_5846"/>
</filter>
<filter id="filter16_i_1464_5846" x="13.2095" y="38.2338" width="7.97729" height="8.40291" filterUnits="userSpaceOnUse" color-interpolation-filters="sRGB">
<feFlood flood-opacity="0" result="BackgroundImageFix"/>
<feBlend mode="normal" in="SourceGraphic" in2="BackgroundImageFix" result="shape"/>
<feColorMatrix in="SourceAlpha" type="matrix" values="0 0 0 0 0 0 0 0 0 0 0 0 0 0 0 0 0 0 127 0" result="hardAlpha"/>
<feOffset dy="-0.621658"/>
<feGaussianBlur stdDeviation="0.777072"/>
<feComposite in2="hardAlpha" operator="arithmetic" k2="-1" k3="1"/>
<feColorMatrix type="matrix" values="0 0 0 0 0.595833 0 0 0 0 0.83025 0 0 0 0 1 0 0 0 1 0"/>
<feBlend mode="normal" in2="shape" result="effect1_innerShadow_1464_5846"/>
</filter>
<linearGradient id="paint0_linear_1464_5846" x1="48.4407" y1="31.9734" x2="48.9353" y2="33.7251" gradientUnits="userSpaceOnUse">
<stop stop-color="#D2AB68"/>
<stop offset="1" stop-color="#B67D3F"/>
</linearGradient>
<linearGradient id="paint1_linear_1464_5846" x1="52.0518" y1="9.84191" x2="53.4621" y2="14.8361" gradientUnits="userSpaceOnUse">
<stop stop-color="#D2AB68"/>
<stop offset="1" stop-color="#B67D3F"/>
</linearGradient>
<linearGradient id="paint2_linear_1464_5846" x1="49.5482" y1="7.45835" x2="50.5286" y2="10.9305" gradientUnits="userSpaceOnUse">
<stop stop-color="#D2AB68"/>
<stop offset="1" stop-color="#B67D3F"/>
</linearGradient>
<linearGradient id="paint3_linear_1464_5846" x1="52.5319" y1="21.6813" x2="51.2972" y2="21.7119" gradientUnits="userSpaceOnUse">
<stop stop-color="#D2AB68"/>
<stop offset="1" stop-color="#B67D3F"/>
</linearGradient>
<linearGradient id="paint4_linear_1464_5846" x1="49.4431" y1="9.5117" x2="52.3603" y2="6.83737" gradientUnits="userSpaceOnUse">
<stop stop-color="#D2AB68"/>
<stop offset="1" stop-color="#B67D3F"/>
</linearGradient>
<linearGradient id="paint5_linear_1464_5846" x1="52.1037" y1="6.2386" x2="51.661" y2="10.0963" gradientUnits="userSpaceOnUse">
<stop stop-color="#F7E6B3"/>
<stop offset="1" stop-color="#F7E6B3" stop-opacity="0"/>
</linearGradient>
<linearGradient id="paint6_linear_1464_5846" x1="49.4073" y1="20.3646" x2="51.1281" y2="26.4589" gradientUnits="userSpaceOnUse">
<stop stop-color="#D2AB68"/>
<stop offset="1" stop-color="#B67D3F"/>
</linearGradient>
<linearGradient id="paint7_linear_1464_5846" x1="49.9896" y1="21.2202" x2="47.7494" y2="23.7745" gradientUnits="userSpaceOnUse">
<stop stop-color="#F7E6B3"/>
<stop offset="1" stop-color="#F7E6B3" stop-opacity="0"/>
</linearGradient>
<linearGradient id="paint8_linear_1464_5846" x1="52.8882" y1="16.4918" x2="53.8032" y2="19.7323" gradientUnits="userSpaceOnUse">
<stop stop-color="#D2AB68"/>
<stop offset="1" stop-color="#B67D3F"/>
</linearGradient>
<linearGradient id="paint9_linear_1464_5846" x1="52.6728" y1="18.0843" x2="52.9142" y2="19.9825" gradientUnits="userSpaceOnUse">
<stop stop-color="#C18E42"/>
<stop offset="1" stop-color="#D2AB68"/>
</linearGradient>
<linearGradient id="paint10_linear_1464_5846" x1="53.0051" y1="11.4264" x2="54.162" y2="15.5239" gradientUnits="userSpaceOnUse">
<stop stop-color="#D2AB68"/>
<stop offset="1" stop-color="#8E573C"/>
</linearGradient>
<linearGradient id="paint11_linear_1464_5846" x1="50.5929" y1="12.079" x2="51.7046" y2="16.0157" gradientUnits="userSpaceOnUse">
<stop stop-color="#D2AB68"/>
<stop offset="1" stop-color="#B67D3F"/>
</linearGradient>
<linearGradient id="paint12_linear_1464_5846" x1="53.0487" y1="23.9209" x2="53.4562" y2="25.364" gradientUnits="userSpaceOnUse">
<stop stop-color="#D2AB68"/>
<stop offset="1" stop-color="#B67D3F"/>
</linearGradient>
<linearGradient id="paint13_linear_1464_5846" x1="53.2242" y1="21.5714" x2="54.1846" y2="24.9725" gradientUnits="userSpaceOnUse">
<stop stop-color="#C28766"/>
<stop offset="1" stop-color="#8E573C"/>
</linearGradient>
<linearGradient id="paint14_linear_1464_5846" x1="47.7161" y1="26.8289" x2="48.9714" y2="31.2745" gradientUnits="userSpaceOnUse">
<stop stop-color="#D2AB68"/>
<stop offset="1" stop-color="#B67D3F"/>
</linearGradient>
<linearGradient id="paint15_linear_1464_5846" x1="50.7205" y1="26.992" x2="51.5145" y2="29.8039" gradientUnits="userSpaceOnUse">
<stop stop-color="#D2AB68"/>
<stop offset="1" stop-color="#B67D3F"/>
</linearGradient>
<linearGradient id="paint16_linear_1464_5846" x1="50.4875" y1="26.7396" x2="51.4218" y2="30.0485" gradientUnits="userSpaceOnUse">
<stop stop-color="#FADA81"/>
<stop offset="1" stop-color="#B67D3F"/>
</linearGradient>
<linearGradient id="paint17_linear_1464_5846" x1="48.0292" y1="33.9989" x2="48.4149" y2="35.3647" gradientUnits="userSpaceOnUse">
<stop stop-color="#D2AB68"/>
<stop offset="1" stop-color="#B67D3F"/>
</linearGradient>
<linearGradient id="paint18_linear_1464_5846" x1="49.0413" y1="1.38444" x2="50.4251" y2="6.28525" gradientUnits="userSpaceOnUse">
<stop stop-color="#FCF1D5"/>
<stop offset="1" stop-color="#EBCE6A"/>
</linearGradient>
<linearGradient id="paint19_linear_1464_5846" x1="48.6244" y1="1.50162" x2="50.0083" y2="6.40243" gradientUnits="userSpaceOnUse">
<stop stop-color="#D2AB68"/>
<stop offset="1" stop-color="#B67D3F"/>
</linearGradient>
<linearGradient id="paint20_linear_1464_5846" x1="49.3294" y1="5.81481" x2="50.5847" y2="10.2604" gradientUnits="userSpaceOnUse">
<stop stop-color="#D2AB68"/>
<stop offset="1" stop-color="#B67D3F"/>
</linearGradient>
<linearGradient id="paint21_linear_1464_5846" x1="49.8942" y1="6.39938" x2="48.522" y2="9.69442" gradientUnits="userSpaceOnUse">
<stop stop-color="#F7E6B3"/>
<stop offset="1" stop-color="#F7E6B3" stop-opacity="0"/>
</linearGradient>
<linearGradient id="paint22_linear_1464_5846" x1="52.6828" y1="10.4985" x2="51.9775" y2="14.8146" gradientUnits="userSpaceOnUse">
<stop stop-color="#F7E6B3"/>
<stop offset="1" stop-color="#F7E6B3" stop-opacity="0"/>
</linearGradient>
<linearGradient id="paint23_linear_1464_5846" x1="53.7596" y1="11.8744" x2="53.781" y2="15.7731" gradientUnits="userSpaceOnUse">
<stop stop-color="#F7E6B3"/>
<stop offset="1" stop-color="#F7E6B3" stop-opacity="0"/>
</linearGradient>
<linearGradient id="paint24_linear_1464_5846" x1="51.0078" y1="12.6316" x2="50.0822" y2="14.8754" gradientUnits="userSpaceOnUse">
<stop stop-color="#FFDD78"/>
<stop offset="1" stop-color="#FFF1C8" stop-opacity="0.38"/>
</linearGradient>
<linearGradient id="paint25_linear_1464_5846" x1="50.3296" y1="13.8017" x2="51.3051" y2="17.2564" gradientUnits="userSpaceOnUse">
<stop stop-color="#D2AB68"/>
<stop offset="1" stop-color="#B67D3F"/>
</linearGradient>
<linearGradient id="paint26_linear_1464_5846" x1="50.312" y1="13.7508" x2="51.8005" y2="17.1474" gradientUnits="userSpaceOnUse">
<stop stop-color="#FFDA92"/>
<stop offset="1" stop-color="#DCBA84"/>
</linearGradient>
<linearGradient id="paint27_linear_1464_5846" x1="55.4006" y1="17.4014" x2="52.5654" y2="20.7755" gradientUnits="userSpaceOnUse">
<stop stop-color="#F7E6B3"/>
<stop offset="1" stop-color="#BC8647"/>
</linearGradient>
<linearGradient id="paint28_linear_1464_5846" x1="53.792" y1="17.8905" x2="54.5671" y2="20.6355" gradientUnits="userSpaceOnUse">
<stop stop-color="#D2AB68"/>
<stop offset="1" stop-color="#8E573C"/>
</linearGradient>
<linearGradient id="paint29_linear_1464_5846" x1="54.3068" y1="21.7609" x2="54.7221" y2="24.7122" gradientUnits="userSpaceOnUse">
<stop stop-color="#F7E6B3"/>
<stop offset="1" stop-color="#F7E6B3" stop-opacity="0"/>
</linearGradient>
<linearGradient id="paint30_linear_1464_5846" x1="50.6283" y1="21.9573" x2="51.8004" y2="26.1082" gradientUnits="userSpaceOnUse">
<stop stop-color="#D2AB68"/>
<stop offset="1" stop-color="#B67D3F"/>
</linearGradient>
<linearGradient id="paint31_linear_1464_5846" x1="51.5411" y1="21.6564" x2="51.0663" y2="26.1374" gradientUnits="userSpaceOnUse">
<stop stop-color="#E0C087"/>
<stop offset="0.28125" stop-color="#FFE49E"/>
<stop offset="1" stop-color="#753C1D"/>
</linearGradient>
<linearGradient id="paint32_linear_1464_5846" x1="53.7801" y1="24.2459" x2="54.3433" y2="25.4853" gradientUnits="userSpaceOnUse">
<stop stop-color="#B18253"/>
<stop offset="1" stop-color="#F7E6B3" stop-opacity="0"/>
</linearGradient>
<linearGradient id="paint33_linear_1464_5846" x1="48.8104" y1="26.7803" x2="50.0052" y2="31.0116" gradientUnits="userSpaceOnUse">
<stop stop-color="#D2AB68"/>
<stop offset="1" stop-color="#B67D3F"/>
</linearGradient>
<linearGradient id="paint34_linear_1464_5846" x1="49.4301" y1="27.3069" x2="49.0354" y2="31.2834" gradientUnits="userSpaceOnUse">
<stop stop-color="#F7E6B3"/>
<stop offset="1" stop-color="#F7E6B3" stop-opacity="0"/>
</linearGradient>
<linearGradient id="paint35_linear_1464_5846" x1="51.4888" y1="28.8937" x2="51.9179" y2="30.4135" gradientUnits="userSpaceOnUse">
<stop stop-color="#D2AB68"/>
<stop offset="1" stop-color="#B67D3F"/>
</linearGradient>
<linearGradient id="paint36_linear_1464_5846" x1="51.9363" y1="28.789" x2="50.529" y2="30.2563" gradientUnits="userSpaceOnUse">
<stop stop-color="#FADA81"/>
<stop offset="1" stop-color="#9A5E33"/>
</linearGradient>
<linearGradient id="paint37_linear_1464_5846" x1="48.6495" y1="32.9198" x2="49.0997" y2="34.5142" gradientUnits="userSpaceOnUse">
<stop stop-color="#FADA81"/>
<stop offset="1" stop-color="#B67D3F"/>
</linearGradient>
<linearGradient id="paint38_linear_1464_5846" x1="48.3978" y1="33.4522" x2="48.9072" y2="35.2561" gradientUnits="userSpaceOnUse">
<stop stop-color="#D2AB68"/>
<stop offset="1" stop-color="#B67D3F"/>
</linearGradient>
<linearGradient id="paint39_linear_1464_5846" x1="11.8493" y1="31.5867" x2="11.3547" y2="33.3384" gradientUnits="userSpaceOnUse">
<stop stop-color="#D2AB68"/>
<stop offset="1" stop-color="#B67D3F"/>
</linearGradient>
<linearGradient id="paint40_linear_1464_5846" x1="8.23795" y1="9.45323" x2="6.82773" y2="14.4474" gradientUnits="userSpaceOnUse">
<stop stop-color="#D2AB68"/>
<stop offset="1" stop-color="#B67D3F"/>
</linearGradient>
<linearGradient id="paint41_linear_1464_5846" x1="10.7416" y1="7.06968" x2="9.76117" y2="10.5418" gradientUnits="userSpaceOnUse">
<stop stop-color="#D2AB68"/>
<stop offset="1" stop-color="#B67D3F"/>
</linearGradient>
<linearGradient id="paint42_linear_1464_5846" x1="7.75785" y1="21.2927" x2="8.99259" y2="21.3232" gradientUnits="userSpaceOnUse">
<stop stop-color="#D2AB68"/>
<stop offset="1" stop-color="#B67D3F"/>
</linearGradient>
<linearGradient id="paint43_linear_1464_5846" x1="10.8469" y1="9.12303" x2="7.92975" y2="6.4487" gradientUnits="userSpaceOnUse">
<stop stop-color="#D2AB68"/>
<stop offset="1" stop-color="#B67D3F"/>
</linearGradient>
<linearGradient id="paint44_linear_1464_5846" x1="8.18589" y1="5.84993" x2="8.6285" y2="9.70762" gradientUnits="userSpaceOnUse">
<stop stop-color="#F7E6B3"/>
<stop offset="1" stop-color="#F7E6B3" stop-opacity="0"/>
</linearGradient>
<linearGradient id="paint45_linear_1464_5846" x1="10.8823" y1="19.976" x2="9.16145" y2="26.0702" gradientUnits="userSpaceOnUse">
<stop stop-color="#D2AB68"/>
<stop offset="1" stop-color="#B67D3F"/>
</linearGradient>
<linearGradient id="paint46_linear_1464_5846" x1="10.2999" y1="20.8315" x2="12.5402" y2="23.3859" gradientUnits="userSpaceOnUse">
<stop stop-color="#F7E6B3"/>
<stop offset="1" stop-color="#F7E6B3" stop-opacity="0"/>
</linearGradient>
<linearGradient id="paint47_linear_1464_5846" x1="7.4018" y1="16.1032" x2="6.48679" y2="19.3436" gradientUnits="userSpaceOnUse">
<stop stop-color="#D2AB68"/>
<stop offset="1" stop-color="#B67D3F"/>
</linearGradient>
<linearGradient id="paint48_linear_1464_5846" x1="7.61676" y1="17.6956" x2="7.37538" y2="19.5938" gradientUnits="userSpaceOnUse">
<stop stop-color="#C18E42"/>
<stop offset="1" stop-color="#D2AB68"/>
</linearGradient>
<linearGradient id="paint49_linear_1464_5846" x1="7.28497" y1="11.0397" x2="6.12799" y2="15.1371" gradientUnits="userSpaceOnUse">
<stop stop-color="#D2AB68"/>
<stop offset="1" stop-color="#8E573C"/>
</linearGradient>
<linearGradient id="paint50_linear_1464_5846" x1="9.69711" y1="11.6904" x2="8.58547" y2="15.6271" gradientUnits="userSpaceOnUse">
<stop stop-color="#D2AB68"/>
<stop offset="1" stop-color="#B67D3F"/>
</linearGradient>
<linearGradient id="paint51_linear_1464_5846" x1="7.24134" y1="23.5342" x2="6.83383" y2="24.9773" gradientUnits="userSpaceOnUse">
<stop stop-color="#D2AB68"/>
<stop offset="1" stop-color="#B67D3F"/>
</linearGradient>
<linearGradient id="paint52_linear_1464_5846" x1="7.0656" y1="21.1827" x2="6.10522" y2="24.5838" gradientUnits="userSpaceOnUse">
<stop stop-color="#C28766"/>
<stop offset="1" stop-color="#8E573C"/>
</linearGradient>
<linearGradient id="paint53_linear_1464_5846" x1="12.5737" y1="26.4402" x2="11.3184" y2="30.8858" gradientUnits="userSpaceOnUse">
<stop stop-color="#D2AB68"/>
<stop offset="1" stop-color="#B67D3F"/>
</linearGradient>
<linearGradient id="paint54_linear_1464_5846" x1="9.56931" y1="26.6033" x2="8.7753" y2="29.4153" gradientUnits="userSpaceOnUse">
<stop stop-color="#D2AB68"/>
<stop offset="1" stop-color="#B67D3F"/>
</linearGradient>
<linearGradient id="paint55_linear_1464_5846" x1="9.80206" y1="26.351" x2="8.86772" y2="29.6599" gradientUnits="userSpaceOnUse">
<stop stop-color="#FADA81"/>
<stop offset="1" stop-color="#B67D3F"/>
</linearGradient>
<linearGradient id="paint56_linear_1464_5846" x1="12.2608" y1="33.6103" x2="11.8752" y2="34.9761" gradientUnits="userSpaceOnUse">
<stop stop-color="#D2AB68"/>
<stop offset="1" stop-color="#B67D3F"/>
</linearGradient>
<linearGradient id="paint57_linear_1464_5846" x1="11.2483" y1="0.995768" x2="9.86443" y2="5.89658" gradientUnits="userSpaceOnUse">
<stop stop-color="#FCF1D5"/>
<stop offset="1" stop-color="#EBCE6A"/>
</linearGradient>
<linearGradient id="paint58_linear_1464_5846" x1="11.6651" y1="1.11295" x2="10.2813" y2="6.01376" gradientUnits="userSpaceOnUse">
<stop stop-color="#D2AB68"/>
<stop offset="1" stop-color="#B67D3F"/>
</linearGradient>
<linearGradient id="paint59_linear_1464_5846" x1="10.9604" y1="5.42614" x2="9.70512" y2="9.87168" gradientUnits="userSpaceOnUse">
<stop stop-color="#D2AB68"/>
<stop offset="1" stop-color="#B67D3F"/>
</linearGradient>
<linearGradient id="paint60_linear_1464_5846" x1="10.3956" y1="6.00876" x2="11.7677" y2="9.30379" gradientUnits="userSpaceOnUse">
<stop stop-color="#F7E6B3"/>
<stop offset="1" stop-color="#F7E6B3" stop-opacity="0"/>
</linearGradient>
<linearGradient id="paint61_linear_1464_5846" x1="7.60673" y1="10.1098" x2="8.31202" y2="14.4259" gradientUnits="userSpaceOnUse">
<stop stop-color="#F7E6B3"/>
<stop offset="1" stop-color="#F7E6B3" stop-opacity="0"/>
</linearGradient>
<linearGradient id="paint62_linear_1464_5846" x1="6.52995" y1="11.4858" x2="6.50855" y2="15.3844" gradientUnits="userSpaceOnUse">
<stop stop-color="#F7E6B3"/>
<stop offset="1" stop-color="#F7E6B3" stop-opacity="0"/>
</linearGradient>
<linearGradient id="paint63_linear_1464_5846" x1="9.2818" y1="12.2429" x2="10.2074" y2="14.4868" gradientUnits="userSpaceOnUse">
<stop stop-color="#FFDD78"/>
<stop offset="1" stop-color="#FFF1C8" stop-opacity="0.38"/>
</linearGradient>
<linearGradient id="paint64_linear_1464_5846" x1="9.95994" y1="13.413" x2="8.98446" y2="16.8677" gradientUnits="userSpaceOnUse">
<stop stop-color="#D2AB68"/>
<stop offset="1" stop-color="#B67D3F"/>
</linearGradient>
<linearGradient id="paint65_linear_1464_5846" x1="9.97754" y1="13.3602" x2="8.48909" y2="16.7567" gradientUnits="userSpaceOnUse">
<stop stop-color="#FFDA92"/>
<stop offset="1" stop-color="#DCBA84"/>
</linearGradient>
<linearGradient id="paint66_linear_1464_5846" x1="4.88922" y1="17.0127" x2="7.72444" y2="20.3868" gradientUnits="userSpaceOnUse">
<stop stop-color="#F7E6B3"/>
<stop offset="1" stop-color="#BC8647"/>
</linearGradient>
<linearGradient id="paint67_linear_1464_5846" x1="6.49753" y1="17.5019" x2="5.72242" y2="20.2468" gradientUnits="userSpaceOnUse">
<stop stop-color="#D2AB68"/>
<stop offset="1" stop-color="#8E573C"/>
</linearGradient>
<linearGradient id="paint68_linear_1464_5846" x1="5.98278" y1="21.3722" x2="5.56745" y2="24.3236" gradientUnits="userSpaceOnUse">
<stop stop-color="#F7E6B3"/>
<stop offset="1" stop-color="#F7E6B3" stop-opacity="0"/>
</linearGradient>
<linearGradient id="paint69_linear_1464_5846" x1="9.66148" y1="21.5686" x2="8.48935" y2="25.7196" gradientUnits="userSpaceOnUse">
<stop stop-color="#D2AB68"/>
<stop offset="1" stop-color="#B67D3F"/>
</linearGradient>
<linearGradient id="paint70_linear_1464_5846" x1="8.74874" y1="21.2678" x2="9.22352" y2="25.7487" gradientUnits="userSpaceOnUse">
<stop stop-color="#E0C087"/>
<stop offset="0.28125" stop-color="#FFE49E"/>
<stop offset="1" stop-color="#753C1D"/>
</linearGradient>
<linearGradient id="paint71_linear_1464_5846" x1="6.50945" y1="23.8573" x2="5.94629" y2="25.0966" gradientUnits="userSpaceOnUse">
<stop stop-color="#B18253"/>
<stop offset="1" stop-color="#F7E6B3" stop-opacity="0"/>
</linearGradient>
<linearGradient id="paint72_linear_1464_5846" x1="11.4794" y1="26.3916" x2="10.2846" y2="30.6229" gradientUnits="userSpaceOnUse">
<stop stop-color="#D2AB68"/>
<stop offset="1" stop-color="#B67D3F"/>
</linearGradient>
<linearGradient id="paint73_linear_1464_5846" x1="10.8596" y1="26.9182" x2="11.2544" y2="30.8947" gradientUnits="userSpaceOnUse">
<stop stop-color="#F7E6B3"/>
<stop offset="1" stop-color="#F7E6B3" stop-opacity="0"/>
</linearGradient>
<linearGradient id="paint74_linear_1464_5846" x1="8.80076" y1="28.505" x2="8.3716" y2="30.0248" gradientUnits="userSpaceOnUse">
<stop stop-color="#D2AB68"/>
<stop offset="1" stop-color="#B67D3F"/>
</linearGradient>
<linearGradient id="paint75_linear_1464_5846" x1="8.3532" y1="28.4003" x2="9.76056" y2="29.8676" gradientUnits="userSpaceOnUse">
<stop stop-color="#FADA81"/>
<stop offset="1" stop-color="#9A5E33"/>
</linearGradient>
<linearGradient id="paint76_linear_1464_5846" x1="11.64" y1="32.5291" x2="11.1898" y2="34.1236" gradientUnits="userSpaceOnUse">
<stop stop-color="#FADA81"/>
<stop offset="1" stop-color="#B67D3F"/>
</linearGradient>
<linearGradient id="paint77_linear_1464_5846" x1="11.8918" y1="33.0596" x2="11.3824" y2="34.8636" gradientUnits="userSpaceOnUse">
<stop stop-color="#D2AB68"/>
<stop offset="1" stop-color="#B67D3F"/>
</linearGradient>
<linearGradient id="paint78_linear_1464_5846" x1="30.4512" y1="33.0996" x2="32.5337" y2="41.1501" gradientUnits="userSpaceOnUse">
<stop stop-color="#708FBE" stop-opacity="0"/>
<stop offset="1" stop-color="#72DDFF" stop-opacity="0.63"/>
</linearGradient>
<linearGradient id="paint79_linear_1464_5846" x1="30.4512" y1="33.0992" x2="32.5337" y2="41.1497" gradientUnits="userSpaceOnUse">
<stop stop-color="#708FBE" stop-opacity="0"/>
<stop offset="1" stop-color="#72DDFF" stop-opacity="0.63"/>
</linearGradient>
<radialGradient id="paint80_radial_1464_5846" cx="0" cy="0" r="1" gradientUnits="userSpaceOnUse" gradientTransform="translate(29.3633 36.5494) rotate(52.6712) scale(5.43346)">
<stop offset="0.738765" stop-color="#9CB6DD" stop-opacity="0"/>
<stop offset="0.89825" stop-color="#C6F1FF" stop-opacity="0.37"/>
<stop offset="1" stop-color="#EFFBFF" stop-opacity="0.7"/>
</radialGradient>
<linearGradient id="paint81_linear_1464_5846" x1="33.0622" y1="39.3158" x2="28.7727" y2="35.4305" gradientUnits="userSpaceOnUse">
<stop stop-color="#D8F6FF" stop-opacity="0.63"/>
<stop offset="0.218803" stop-color="#A0D2FF" stop-opacity="0"/>
<stop offset="0.491108" stop-color="#8DC8FF" stop-opacity="0.56"/>
<stop offset="0.733041" stop-color="#9ADBF8"/>
<stop offset="1" stop-color="white" stop-opacity="0"/>
<stop offset="1" stop-color="#BAEAFF" stop-opacity="0"/>
</linearGradient>
<linearGradient id="paint82_linear_1464_5846" x1="30.451" y1="35.3379" x2="30.3888" y2="39.4719" gradientUnits="userSpaceOnUse">
<stop stop-color="#9BE1FF"/>
<stop offset="0.277442" stop-color="#9BE1FF" stop-opacity="0.51"/>
<stop offset="1" stop-color="#CDDEE6" stop-opacity="0.15"/>
</linearGradient>
<linearGradient id="paint83_linear_1464_5846" x1="30.2509" y1="36.9127" x2="30.2201" y2="38.3819" gradientUnits="userSpaceOnUse">
<stop stop-color="#C4C4C4" stop-opacity="0"/>
<stop offset="0.731853" stop-color="#DBF6FF" stop-opacity="0.46"/>
</linearGradient>
<linearGradient id="paint84_linear_1464_5846" x1="29.8387" y1="36.0928" x2="30.6643" y2="36.872" gradientUnits="userSpaceOnUse">
<stop offset="0.223958" stop-color="#DBF6FF" stop-opacity="0.35"/>
<stop offset="1" stop-color="#C4C4C4" stop-opacity="0"/>
</linearGradient>
<linearGradient id="paint85_linear_1464_5846" x1="46.6252" y1="38.9008" x2="43.0458" y2="46.4065" gradientUnits="userSpaceOnUse">
<stop stop-color="#708FBE" stop-opacity="0"/>
<stop offset="1" stop-color="#72DDFF" stop-opacity="0.63"/>
</linearGradient>
<linearGradient id="paint86_linear_1464_5846" x1="46.6252" y1="38.9005" x2="43.0458" y2="46.4062" gradientUnits="userSpaceOnUse">
<stop stop-color="#708FBE" stop-opacity="0"/>
<stop offset="1" stop-color="#72DDFF" stop-opacity="0.63"/>
</linearGradient>
<radialGradient id="paint87_radial_1464_5846" cx="0" cy="0" r="1" gradientUnits="userSpaceOnUse" gradientTransform="translate(43.5741 40.8442) rotate(92.6712) scale(5.43346)">
<stop offset="0.738765" stop-color="#9CB6DD" stop-opacity="0"/>
<stop offset="0.89825" stop-color="#C6F1FF" stop-opacity="0.37"/>
<stop offset="1" stop-color="#EFFBFF" stop-opacity="0.7"/>
</radialGradient>
<linearGradient id="paint88_linear_1464_5846" x1="44.6294" y1="45.341" x2="43.8409" y2="39.6074" gradientUnits="userSpaceOnUse">
<stop stop-color="#D8F6FF" stop-opacity="0.63"/>
<stop offset="0.218803" stop-color="#A0D2FF" stop-opacity="0"/>
<stop offset="0.491108" stop-color="#8DC8FF" stop-opacity="0.56"/>
<stop offset="0.733041" stop-color="#9ADBF8"/>
<stop offset="1" stop-color="white" stop-opacity="0"/>
<stop offset="1" stop-color="#BAEAFF" stop-opacity="0"/>
</linearGradient>
<linearGradient id="paint89_linear_1464_5846" x1="45.1867" y1="40.6166" x2="42.4818" y2="43.7434" gradientUnits="userSpaceOnUse">
<stop stop-color="#9BE1FF"/>
<stop offset="0.277442" stop-color="#9BE1FF" stop-opacity="0.51"/>
<stop offset="1" stop-color="#CDDEE6" stop-opacity="0.15"/>
</linearGradient>
<linearGradient id="paint90_linear_1464_5846" x1="44.0197" y1="41.6932" x2="43.0517" y2="42.7989" gradientUnits="userSpaceOnUse">
<stop stop-color="#C4C4C4" stop-opacity="0"/>
<stop offset="0.731853" stop-color="#DBF6FF" stop-opacity="0.46"/>
</linearGradient>
<linearGradient id="paint91_linear_1464_5846" x1="44.2324" y1="40.7995" x2="44.364" y2="41.9271" gradientUnits="userSpaceOnUse">
<stop offset="0.223958" stop-color="#DBF6FF" stop-opacity="0.35"/>
<stop offset="1" stop-color="#C4C4C4" stop-opacity="0"/>
</linearGradient>
<linearGradient id="paint92_linear_1464_5846" x1="14.1391" y1="38.9137" x2="20.9092" y2="43.742" gradientUnits="userSpaceOnUse">
<stop stop-color="#708FBE" stop-opacity="0"/>
<stop offset="1" stop-color="#72DDFF" stop-opacity="0.63"/>
</linearGradient>
<linearGradient id="paint93_linear_1464_5846" x1="14.1393" y1="38.9137" x2="20.9094" y2="43.742" gradientUnits="userSpaceOnUse">
<stop stop-color="#708FBE" stop-opacity="0"/>
<stop offset="1" stop-color="#72DDFF" stop-opacity="0.63"/>
</linearGradient>
<radialGradient id="paint94_radial_1464_5846" cx="0" cy="0" r="1" gradientUnits="userSpaceOnUse" gradientTransform="translate(15.5237 42.256) rotate(12.6712) scale(5.43346)">
<stop offset="0.738765" stop-color="#9CB6DD" stop-opacity="0"/>
<stop offset="0.89825" stop-color="#C6F1FF" stop-opacity="0.37"/>
<stop offset="1" stop-color="#EFFBFF" stop-opacity="0.7"/>
</radialGradient>
<linearGradient id="paint95_linear_1464_5846" x1="20.1354" y1="41.9975" x2="14.352" y2="41.7784" gradientUnits="userSpaceOnUse">
<stop stop-color="#D8F6FF" stop-opacity="0.63"/>
<stop offset="0.218803" stop-color="#A0D2FF" stop-opacity="0"/>
<stop offset="0.491108" stop-color="#8DC8FF" stop-opacity="0.56"/>
<stop offset="0.733041" stop-color="#9ADBF8"/>
<stop offset="1" stop-color="white" stop-opacity="0"/>
<stop offset="1" stop-color="#BAEAFF" stop-opacity="0"/>
</linearGradient>
<linearGradient id="paint96_linear_1464_5846" x1="15.5776" y1="40.6276" x2="18.1873" y2="43.8344" gradientUnits="userSpaceOnUse">
<stop stop-color="#9BE1FF"/>
<stop offset="0.277442" stop-color="#9BE1FF" stop-opacity="0.51"/>
<stop offset="1" stop-color="#CDDEE6" stop-opacity="0.15"/>
</linearGradient>
<linearGradient id="paint97_linear_1464_5846" x1="16.4379" y1="41.965" x2="17.3587" y2="43.1103" gradientUnits="userSpaceOnUse">
<stop stop-color="#C4C4C4" stop-opacity="0"/>
<stop offset="0.731853" stop-color="#DBF6FF" stop-opacity="0.46"/>
</linearGradient>
<linearGradient id="paint98_linear_1464_5846" x1="15.5938" y1="41.5995" x2="16.7271" y2="41.6657" gradientUnits="userSpaceOnUse">
<stop offset="0.223958" stop-color="#DBF6FF" stop-opacity="0.35"/>
<stop offset="1" stop-color="#C4C4C4" stop-opacity="0"/>
</linearGradient>
<linearGradient id="paint99_linear_1464_5846" x1="30.4506" y1="0.993783" x2="35.7464" y2="39.7191" gradientUnits="userSpaceOnUse">
<stop stop-color="white"/>
<stop offset="1" stop-color="white" stop-opacity="0"/>
</linearGradient>
</defs>
</svg>
